<mxfile host="app.diagrams.net" modified="2023-10-29T05:21:38.323Z" agent="Mozilla/5.0 (Macintosh; Intel Mac OS X 10_15_7) AppleWebKit/537.36 (KHTML, like Gecko) Chrome/118.0.0.0 Safari/537.36" etag="CdchCqWnEzH8z_GyUKKC" version="22.0.8" type="github">
  <diagram name="PÃ¡gina-1" id="qXAZ6ED-eoiPxc_VWZU6">
    <mxGraphModel dx="1281" dy="261" grid="1" gridSize="10" guides="1" tooltips="1" connect="1" arrows="1" fold="1" page="1" pageScale="1" pageWidth="827" pageHeight="1169" math="0" shadow="0">
      <root>
        <mxCell id="0" />
        <mxCell id="1" parent="0" />
        <mxCell id="Dv5H7iyxTRO2InqMJQss-14" value="VPC" style="sketch=0;outlineConnect=0;gradientColor=none;html=1;whiteSpace=wrap;fontSize=12;fontStyle=0;shape=mxgraph.aws4.group;grIcon=mxgraph.aws4.group_vpc;strokeColor=#879196;fillColor=none;verticalAlign=top;align=left;spacingLeft=30;fontColor=#879196;dashed=0;strokeWidth=4;" parent="1" vertex="1">
          <mxGeometry x="-120" y="357.5" width="760" height="482.5" as="geometry" />
        </mxCell>
        <mxCell id="wZPKLo5PwsMdjZlRSlF2-5" value="" style="rounded=1;whiteSpace=wrap;html=1;fillColor=#B3B3B3;" vertex="1" parent="1">
          <mxGeometry x="-40" y="480" width="410" height="210" as="geometry" />
        </mxCell>
        <mxCell id="Dv5H7iyxTRO2InqMJQss-43" value="" style="rounded=1;whiteSpace=wrap;html=1;fillColor=#00CC00;strokeWidth=2;" parent="1" vertex="1">
          <mxGeometry x="120" y="490" width="120" height="190" as="geometry" />
        </mxCell>
        <mxCell id="Dv5H7iyxTRO2InqMJQss-19" value="" style="edgeStyle=orthogonalEdgeStyle;rounded=0;orthogonalLoop=1;jettySize=auto;html=1;" parent="1" source="Dv5H7iyxTRO2InqMJQss-2" target="Dv5H7iyxTRO2InqMJQss-18" edge="1">
          <mxGeometry relative="1" as="geometry" />
        </mxCell>
        <mxCell id="Dv5H7iyxTRO2InqMJQss-2" value="ECR" style="outlineConnect=0;dashed=0;verticalLabelPosition=bottom;verticalAlign=top;align=center;html=1;shape=mxgraph.aws3.ecr_registry;fillColor=#F58534;gradientColor=none;" parent="1" vertex="1">
          <mxGeometry x="396.5" y="390.9" width="57" height="60" as="geometry" />
        </mxCell>
        <mxCell id="Dv5H7iyxTRO2InqMJQss-15" value="" style="edgeStyle=orthogonalEdgeStyle;rounded=0;orthogonalLoop=1;jettySize=auto;html=1;" parent="1" source="Dv5H7iyxTRO2InqMJQss-12" target="Dv5H7iyxTRO2InqMJQss-13" edge="1">
          <mxGeometry relative="1" as="geometry" />
        </mxCell>
        <mxCell id="Dv5H7iyxTRO2InqMJQss-12" value="Node Server" style="sketch=0;html=1;dashed=0;whitespace=wrap;fillColor=#2875E2;strokeColor=#ffffff;points=[[0.005,0.63,0],[0.1,0.2,0],[0.9,0.2,0],[0.5,0,0],[0.995,0.63,0],[0.72,0.99,0],[0.5,1,0],[0.28,0.99,0]];verticalLabelPosition=bottom;align=center;verticalAlign=top;shape=mxgraph.kubernetes.icon;prIcon=node" parent="1" vertex="1">
          <mxGeometry x="155" y="517.5" width="50" height="48" as="geometry" />
        </mxCell>
        <mxCell id="Dv5H7iyxTRO2InqMJQss-37" value="" style="edgeStyle=orthogonalEdgeStyle;rounded=0;orthogonalLoop=1;jettySize=auto;html=1;" parent="1" source="Dv5H7iyxTRO2InqMJQss-13" target="Dv5H7iyxTRO2InqMJQss-36" edge="1">
          <mxGeometry relative="1" as="geometry" />
        </mxCell>
        <mxCell id="Dv5H7iyxTRO2InqMJQss-13" value="Pod" style="sketch=0;html=1;dashed=0;whitespace=wrap;fillColor=#2875E2;strokeColor=#ffffff;points=[[0.005,0.63,0],[0.1,0.2,0],[0.9,0.2,0],[0.5,0,0],[0.995,0.63,0],[0.72,0.99,0],[0.5,1,0],[0.28,0.99,0]];verticalLabelPosition=bottom;align=center;verticalAlign=top;shape=mxgraph.kubernetes.icon;prIcon=pod" parent="1" vertex="1">
          <mxGeometry x="155" y="597.5" width="50" height="48" as="geometry" />
        </mxCell>
        <mxCell id="Dv5H7iyxTRO2InqMJQss-18" value="Image" style="image;sketch=0;aspect=fixed;html=1;points=[];align=center;fontSize=12;image=img/lib/mscae/Docker.svg;" parent="1" vertex="1">
          <mxGeometry x="389.33" y="507.97" width="71.34" height="58.5" as="geometry" />
        </mxCell>
        <mxCell id="Dv5H7iyxTRO2InqMJQss-26" value="" style="edgeStyle=orthogonalEdgeStyle;rounded=0;orthogonalLoop=1;jettySize=auto;html=1;entryX=0.5;entryY=0;entryDx=0;entryDy=0;" parent="1" source="Dv5H7iyxTRO2InqMJQss-20" target="Dv5H7iyxTRO2InqMJQss-31" edge="1">
          <mxGeometry relative="1" as="geometry">
            <mxPoint x="751.2" y="522.5" as="targetPoint" />
          </mxGeometry>
        </mxCell>
        <mxCell id="Dv5H7iyxTRO2InqMJQss-20" value="GitHub Repository" style="dashed=0;outlineConnect=0;html=1;align=center;labelPosition=center;verticalLabelPosition=bottom;verticalAlign=top;shape=mxgraph.webicons.github;gradientColor=#DFDEDE" parent="1" vertex="1">
          <mxGeometry x="700" y="357.5" width="102.4" height="102.4" as="geometry" />
        </mxCell>
        <mxCell id="Dv5H7iyxTRO2InqMJQss-23" style="edgeStyle=orthogonalEdgeStyle;rounded=0;orthogonalLoop=1;jettySize=auto;html=1;entryX=1;entryY=0.5;entryDx=0;entryDy=0;entryPerimeter=0;" parent="1" source="Dv5H7iyxTRO2InqMJQss-31" target="Dv5H7iyxTRO2InqMJQss-2" edge="1">
          <mxGeometry relative="1" as="geometry">
            <mxPoint x="726.2" y="547.5" as="sourcePoint" />
          </mxGeometry>
        </mxCell>
        <mxCell id="Dv5H7iyxTRO2InqMJQss-27" value="" style="edgeStyle=orthogonalEdgeStyle;rounded=0;orthogonalLoop=1;jettySize=auto;html=1;" parent="1" source="Dv5H7iyxTRO2InqMJQss-24" target="Dv5H7iyxTRO2InqMJQss-20" edge="1">
          <mxGeometry relative="1" as="geometry" />
        </mxCell>
        <mxCell id="Dv5H7iyxTRO2InqMJQss-24" value="&lt;b&gt;Visual Studio Code&lt;/b&gt;" style="verticalLabelPosition=bottom;html=1;verticalAlign=top;align=center;strokeColor=none;fillColor=#00BEF2;shape=mxgraph.azure.visual_studio_online;" parent="1" vertex="1">
          <mxGeometry x="726.2" y="240" width="50" height="37.5" as="geometry" />
        </mxCell>
        <mxCell id="Dv5H7iyxTRO2InqMJQss-28" style="edgeStyle=orthogonalEdgeStyle;rounded=0;orthogonalLoop=1;jettySize=auto;html=1;entryX=1;entryY=0.425;entryDx=0;entryDy=0;entryPerimeter=0;" parent="1" source="Dv5H7iyxTRO2InqMJQss-2" edge="1">
          <mxGeometry relative="1" as="geometry">
            <mxPoint x="220" y="420" as="targetPoint" />
          </mxGeometry>
        </mxCell>
        <mxCell id="Dv5H7iyxTRO2InqMJQss-31" value="GitHub Actions Pipeline" style="shape=image;verticalLabelPosition=bottom;labelBackgroundColor=default;verticalAlign=top;aspect=fixed;imageAspect=0;image=https://seeklogo.com/images/G/github-actions-logo-031704BDC6-seeklogo.com.png;" parent="1" vertex="1">
          <mxGeometry x="697.45" y="550" width="107.5" height="107.5" as="geometry" />
        </mxCell>
        <mxCell id="Dv5H7iyxTRO2InqMJQss-33" value="" style="shape=image;verticalLabelPosition=bottom;labelBackgroundColor=default;verticalAlign=top;aspect=fixed;imageAspect=0;image=data:image/png,iVBORw0KGgoAAAANSUhEUgAADZwAAAgjCAYAAACZX2CNAAAACXBIWXMAAC4jAAAuIwF4pT92AAAAGXRFWHRTb2Z0d2FyZQBBZG9iZSBJbWFnZVJlYWR5ccllPAABXstJREFUeNrs3dtxI7t6NuCe7R2B73zlVaUIFIBKUCYrEzUj+cuRCCwFoAhUPlz5ziHMT0itGY5EUmyyDzg8T5U8a5/Ke39rBviAxgt0HQAAAAAAAAAAAAAAAAAAAAAAAAAAAAAAAAAAAAAAAAAAAAAAAAAAAAAAAAAAAAAAAAAAAAAAAAAAAAAAAAAAAAAAAAAAAAAAAAAAAAAAAAAAAAAAAAAAAAAAAAAAAAB864cSAAAlubm96yv/nxhfX56jv9MAAAAAAAAAAMBnJZ+fen157v0dBIAyCJwBALM5c3PjUaWuEnc/2+/+PUJsAAAAAAAAAACwnpvbu7D7JZz4tzhH9VvsTp+Jch4KAGYmcAYAfOub4JiNjvJtjv0LbhUCAAAAAAAAAICvTgTInKda18GzUM5BAcA4AmcA0KgjIbL77vQtOpDE7sANQjZlAAAAAAAAAACowYGzVc5V1elLOM0ZKAB4J3AGAJU5EiRzaw5r+bwp4zl7AAAAAAAAAABWdeCMlfNVHBO7T5dzC6UB0AKBMwAoyJFn2G12ULo/Qmk2ZAAAAAAAAAAAuMaBc1bOWDEn558AqI7AGQBk5tPtOZ5ihz83ZLyQBgAAAAAAAADAm09nrYTKyFHs9l5IE0YDoBQCZwCwMLfnwKSE0QAAAAAAAAAAKidYRqViJ4wGQKYEzgBgJl4qg1XFzmYMAAAAAAAAAEBRBMvgl9j9Pv/kIm4AFidwBgBX8FoZFOnjVTQbMQAAAAAAAAAAK9kLl7nMG84XOxdxA7AAgTMAOJMNDqha7NwIBAAAAAAAAAAwC2evYBEu4gZgMgJnAPCJZ9mBPTZhAAAAAAAAAABGEC6DrMTORdwAXEDgDICm2dwALiCEBgAAAAAAAADQvZ2/Ct37uSvnr6AsH2eguteX5145APhM4AyAJuxtbCReLQOmJoQGAAAAAAAAAFTPBd9QtdgNr6EJoQEgcAZAdYTLgAzEzuYLAAAAAAAAAFC4vYCZc1jQptg5BwXQJIEzAIrn1hygEG+voNl4AQAAAAAAAAByJWAGnCF2QmgA1RM4A6Aoe6+XCZcBpdsMv8bXl+eoHAAAAAAAAADA0gTMgInE7j2E5iwUQCUEzgDImg0NoCGxs+kCAAAAAAAAAMxo78Jv57GAub1dyO0VNIAyCZwBkI29zYzEhgbQOhsuAAAAAAAAAMBV9s5k3Xe/z2YBrCF2LuQGKIbAGQCrsZkBMIoAGgAAAAAAAADwrZvbu374S5d+A7lzJgogUwJnACxGwAxgMrFz2w8AAAAAAAAA0DmXBVRFAA0gEwJnAMzGRgbAYmy0AAAAAAAAAEBD9s5mecUMqJlzUQArETgDYDICZgBZiLufrU0WAAAAAAAAAKjLze1dP/ylkBnQKgE0gIUInAFwlWETQ8AMIF9pkyW+vjxHpQAAAAAAAACAsjifBXCSABrATATOABjFLTkARRM+AwAAAAAAAIDMCZkBXEwADWAiAmcAnHRzexe6940LGxgAdbG5AgAAAAAAAACZEDIDmIULugEuJHAGwBc2LwCaE3c/W+EzAAAAAAAAAFiOc1oAi4q7n20ngAZwFoEzAPZfMXtUDYDmudUHAAAAAAAAAGYynNVK57SCagCsKp2T6lzSDXCYwBlAg/YCZm7HAeAU4TMAAAAAAAAAuJILwQGK4KwUwB6BM4BG2LQA4Eo2VAAAAAAAAABghJvbu75zXgugRHH3s/X6GdAygTOAig0bFl4xA2BKsbOZAjC2J6exuVJAGwCK69lCZw+1KPYlAEBPRlHslwEtzmtp3erMFkBFPe3uZ6u3BVojcAZQEa+YAbCwuPvZ2EgB+CNY5uMh382d2/1/wmFpAJi9P+v0ac3ZfO7B7F0AQDY9me/YvPVnncO6QJ3zXuic2wJoxUY/C7RA4AygcHub9DYrAFiTjRSg1V5cH87U82lnTgWA0T3ZB70Z30k91lbPBQCz9WRC/lzco7mYCSh8HrQnAaCf1c8C1RE4AyiQZ9cByFjsbKIAdffiqQd/1IuzoLcQmrkVAH71Yx9zooNcTCV2XtgAgDH9WOje98Z8r2YOG/tgQEHzoe9FAHwWO+emgIoInAEUwJPrABTKq2dAbT25D4esLc2pDkMD0GIf9tGLwWI9l0MhAKAnY1WCZ0Cuc2JvPgTgTLHzbRconMAZQKZs2gNQkdi9fxiMSgEU3Js/qQQZzq8OQgNQc/+VfuyNoucCAD0Zbfdivi8B5kQAauHibqA4AmcAGRluwUlsUABQKzdSAqX16CloFlSCzMXO4RsA6ui90nrR3ih6LgBYtycLQ08WVINMPOjBgJXmxH73y705EYAZCJ8BRRA4A1iZzQkAGhU7h7SA/Ht1YTPMrwCwTN/Vd4Jm6LkAQE8GxwmdAeZEAGolfAZkS+AMYAVCZgDwS+wc0gLy7NmFzTC/AsD8PVffOcCFngsA1u7JQudFM8ogdAbMPR9+zIkAsBbhMyArAmcACxEyA4BvpUNavTIAGfTuwmaYWwFg3n4r9VpPKkEl0gGQB2UAoNC+zD4YpRE6A6aeC9M8KHgNQG5Sz7v1rRdYm8AZwIyEzADgIg7HA2v28Kl3d/iZmsTOyxsA5NVvOdRMrRx+BqCkniz1Y/bAKJGwPzDVXNh3znQBUEgP3AmfASsROAOYmA0JAJiMZ+KBNfr5n6pApRyABmDtPit0DjVTPwegASihL+u795dcoFQuLgTMgwC0KnYuGwUWJHAGMAEhMwCYVexslgDL9fU+MlIzoTMA1uqzQidsRjtSv2UfA4Bc+zKvzVIL+1zA2Dmw73wDAqAuLvIGZidwBnAhITMAWFzsHNgC5u3xvW5GCxzGAWDpHsuhZvRdAKAvg6l5WRY4d/7rO0EzACrvjXc/W68AA3MQOAMYYbiJN21CBNUAgNXETvAMmL7X7zsfHGmHw88ALNVjOdSMvkvfBYC+DGax67OcewNOzX1957sPAO3x6hkwKQtvgG8MIbP0YxMCAPISO8EzYLq+3+tmtMbhZwDm7q/6zp4q6LsAyKEvEzajVhuvOAAH5r00LtiPAKB1sfPqGTABgTOAA4TMAKAosRM8A67v/59UggY5/AyA/grml24UflAGAFbqy/rON28q5pUzwJwHAN/y6hlwMYtugD3D5sN954Y3AChR7ATPgMvXAT5C0uTc6fAzADP0VqETNgN9FwD6MliGC5XAfNd3vvEAwDlS3+xcFTCKwBnQPCEzAKhO7GyQAOPWBD9VgZbnTYefAdBbwSLSXkWvDADoy0CPBUwyz6U/+4JmAKCPBmYkcAY0abjNLf3YeACAetkcAc5dHzh8Q+vcBA3AVH1VekEjqATouwDQl8FCXKYE7c1xfee8FwBMZTP01FEpgEMEzoCm2HQAgCYJngGn1ghh98uTSoDDzwBc3VeldZe9V/jGrufyfRYAfRnorwDzGwDkJHbv56uiUgD7LLiB6g0bDvedG9wAoHWCZ8Cx9YIPlOA2aACu66lCJ8QP+i4A9GWwAoEzqH5u6zvfcQBgKbETPAP2/IsSADVKG+n/+m///vfuJ22mh93PX6oCAM1L/UH6+e//+9//+S/lAJI0LnQup4Dkr92fhx+7OTIqBQAX9FT/r7MHC2P6rq29CQD0ZTDZ73u9FVRoOPuV5rW/VQMAFpPWk387XwV8cMMLUBWvmQEAZ4qdG3mA9zXEk/UD/OZGaAAu6KdSL+UVDRjHK2cA6MtgOul7T68MUNV8ll40C6oBAKuLnfNV0LR/KAFQurTRkIJmu5+fnQ0HAOA8qV94GsLqgPEA+L3GdjANgLHMHXDBOsSeBAD6MgD407A/7aJAAMhHmpPT+aqnIRQONEbgDCjWEDL72Gh4VBEA4AKPKbTukBcA/BJ8LADgXNZScBXfNQDQlwFA9+sMWLpoPKgGAGQpzdGCZ9Cgf1ECoCSpUfnXf/v3v3c/H7fZ/KUqAMAEUo+Rfv77//73f/5LOaAduz/3vSrAF3/t5sP/UAYAzuilvKIB1/0Z+rHru6JKAKAvg6ts9VRQpuEc2H92gmYAUIq/dj9/O2MF7fDCGVAEr5kBAAsI3XAbj1IA0Pqc6GY6AL7jFQ2YhO8dAOjLAGhx7gp758AAgPKEzhkraILAGZCtYXPh48n0x85tNgDAMlIP8tNBewAa5/AzAOYKWICQAABXziNBXwZAgWugdDg9qAYAFO/jjFWvFFAngTMgO59usbE5DgCs5e0mHsEzABrllTMAjvLxGCblOwgA5hEAqjecB/tp7gKAOtemzlhBnQTOgGzsvWbmFhsAIBepJ3lymBKARvnwD4A5AhZg3wGAC+eP0PmuDkAB89XexeMAQL3S+tQZK6iMwBmwqmFToXeDDQCQOTfxANAir5wB8IWPxTAL30cAuGjdrgQA5GzYQ3DxOAC0JZ2x+uk7M9RB4AxYxafba3xIBQBKEDo38QDQHmt2AMwNsAD7DQDoywCoaH0TXD4OAM17Gs6JAwUTOAMWtfeamdtrAIBSee0MgJZ45QyAX8wJMCsHMQEY05f1qgBApnPUxwXkAADBa2dQNoEzYBF7QTMfTAGAGoTOa2dQi40SwFnzHgAk9ndhRg5eAKAvA6Dk9cxwNsy6BgD4zGtnUCiBM2A2w0bCk6AZAFAxr50B0MR8pwQADKx9QN8FwMpchAZAhnOTV80AgO8EZ6ygPAJnwOQ+gmbd+0aCxgAAqF3qd7x2BkDta33zHIC5wFwA8wtKAMAZ7pUAgBykvQKvmgEAI6SewRkrKMgPJQCmMjQAbt8EAFoWdz+b15fnqBRgHQO12c1v9hIB2u6bfqoCLCLtK/TKAMCRnix0XpCBP9izgtXmo/RtJagGAHChuOvlH5QB8uaFM+Bqe7fVOKQJALQudO838QSlgDI4yAmj1v/mNwBzADA/r9YAcIpv8gCsarjIL4Wfg2oAAFcI6ey57w+QN4Ez4GKCZgAAR6XQmVtmAaiN9T9Au4ISwHJ/3hyyAEBfBkCOhu+f9okBgCk9DYF2IEMCZ8BogmYAAGdxEw8A1c1tSgDQLHvBoO8CYGUO4AGw4hwUhrNi1ioAwBweXewNeRI4A84ybBw8CZoBAIzmJh7I30YJ4DzmNIAmx/6gCrA432EAOOReCeALe7sws+HwtwPgAMDcgtAZ5EfgDDjpI2jWvW8cBBUBALiIm3gAqGZOUwKA5gQlgOUJewJwYF4wNwCw6NzjVTMAYGFv/Ye9UciHwBlwkKAZAMDkbIpAvqISwPnMZQDNETaGdei5ADAvALAKr5oBACt78k0a8iBwBvxB0AwAYHZpU6RXBsjH68tzVAUYJSgBQBt80IVVCXsCYF6A70UlgGn3AYZzY/YDAIC1CZ1BBgTOgDeCZgAAi3ocei8AKHIeUwKAZgQlAABYlwN2cJzLxGDy+ca5MQAgJ0JnsDKBM2icoBkAwGre+jAbI5CNjRLA+cxfAM0QMoZ1e65eFQDofMcHYP61x8fZMQCA3DhbBSsSOIOGCZoBAKwu9WE2RgAodQ4DAGBe90oAQOcSADjGJWJwpeGi8p+d/V4AIG/OVsFKBM6gQelGTJsFAABZeXJrOawuKgGM4rAbQOWsUSALQQkA9GSqAMCMc4xXzQCAUgidwQoEzqAhe0Ezh8IAAPLzOLxAC6zg9eU5qgKMY0MfoHpeVgI9FwB6MshZVAK4eJ2Rvkk6PwYAlEboDBYmcAYNGJ4/t1EAAJC/IHQGq4pKAOPmLSUAMM4D/iwCYB6ANbhEDMYbzpD9NL8AAAUTOoMFCZxB5YYDy+nH5AoAUIa3Dz02R2AVWyWAUVxsA1Ap6xHQcwGgJ4PMRSWAi+YVF18CADUQOoOFCJxBpXYTae9GGgCAotkcgeVFJYBxzFUA1TK+AwDoySBnLg+DEfYuLAcAqIXeBhYgcAaVGZ4+T5OoGy8BAMqXQme9MsAyXl+eoyrAaEEJAKp0rwSQD3sDAM3yzR+Oi0oAZ68n0jmyoBIAQKV9DjAjgTOoa+Lsu/fEdlANAIBqPNoggUVFJYBx85QSAFQpKAEAwHq8KA6nuTwMzptLdj8/rfEBgIoFl3XBvATOoAJeNQMAqF4QOoPFbJUAxnEIDsC4DszO9x+A9ujJ4LioBHDW2t63RQCgBY++a8B8BM6gcHsbBCZLAIC6CZ3BMqISwPg5SgkAjOsAAExK2BiOc2kYnDB8T/RNEQBoid4HZiJwBgWzQQAA0Jy30JmbeWA+ry/PURVgtHslADCuA/O6ub3rVQEA4E1UAji6bnBpOQDQah/UqwJMT+AMypwUgw0CAIBmpR5Q6AzmFZUARs9NABjXAQCYgENycJpLw+Dg3JHOkv20pgcAGvboLBVMT+AMCjNMhsJmAAAIncF8tkoA45iTAIznwOwelQAAoNsoARxcyz+pBACAPVSYmsAZFMQGAQAAnwidwTyiEsBo5iMA4zkAANNwQA6AswyvYjpLBgDwLjhHBdMSOINC7CbAtDlggwAAgM+EzmBiry/PURVgtHslADCeA/Oy/gcAWvf68tyrAvxaH6RzZELKAAB/0h/BhATOoADDBkFQCQAAjhA6g+lFJYBRzEMAxnPAn1EArjS8VAMcFpUAfs0XzpIBABzmlTOYkMAZZM4GAQAAZxI6g2ltlQDGcSgOAGB2XiEEMNZDy+zZ0rz0LdBZMgCAb3nlDCYicAYZs0EAAMBIQmcwnagEAEBLBIehCNb8AMZ6aFlUAhpft6c5wlkyAIAz1tbOT8E0BM4gU8PHfZMdAABjCZ3BBF5fnqMqwGhuigMAmJk1P4AxHlplzxZzxFvYDACA81hjwwQEziBDwyaBQ1oAAFxK6AymsVECAKAh9qShDNb7AMZ4aJG9WpolbAYAcBHfPGACAmeQGZsEAABMROgMgMUNL7YDADCfeyUAMMZDg6IS0KJhv9U5MgCAy3qpoApwHYEzyI9ENQAAUxE6gyu8vjz3qgAAtEBgGIpinQ9gjIfmvL48R1WgwbV6Cpo5RwYAYJ0NqxE4g4wMH/VNbgAATEnoDK4TlQBGcQACAAAARrKHCydtlIAG54UUNjM3AABcx7druJLAGWRi2EA2sQEAMAehM7jcVgkAgAbYm4aCeJUQoEpBCeCoqAQ01u8LmwEATNdb6avgCgJnkA8f9AEAmJPQGVwmKgGM4wA0AAAAjHavBHDY68tzVAVaIWwGADA5vRVcQeAMMjAc/DWhAQAwN6EzGMlhBgCgdtYIUCSXGALUR08Gh22UgIbW58JmAADTc8ELXEHgDPLgwyAAAEsROoPxHGqAcexzAJTF+gAAYEX2a+GkqAQ0MhcImwEAzEOPBVcQOIOVed0MAIAVCJ0BAAAf3O4JBdqt63tVAKhGUAI47PXlOaoCDfT2wmYAAPP2W3otuJDAGazPJAYAwBqelADO8/ry3KsCjOMANEBRghIAAKzKBQBw2EYJqFk6+CxsBgCwCP0WXEjgDNb3qAQAAKxh+IgFnCcqAQBQ4ZogqAIUy/clgHroyQDaXI8LmwEAAFkTOIMVue0bAICVBaEzONtWCWAUB6ABClkTKAEAwHpcAADHvb4896pAxWO/73MAAMvx7RouJHAG67pXAgAAViZ0BmdwuAEAqJQ9aiiYkAJAFYzlcFhUAiru4X2XAwAAiiBwBusKSgAAQA59qdAZAFPzsjtAGWsBJQB/hgFYlVvW4bCtElAbYTMAAKA0AmewEoeuAADITHAzOnxrowQAAEBGvFIIAFTp9eW5VwVqImwGALB6P2aNARcQOAMAAODDk9AZnBSVAEZxSztAxnxchSpYwwPox6BGUQmokL1SAACgOAJnsB4bCQAA5EjoDI54fXmOqgAAAOTEGh4AqNBWCaisZ08vm+nbAQCA4gicAQAA8NmTEsBRGyWA87mtHSBrLkWDOgQlANCPQU1eX557VaAWwmYAAEDJBM5gBQ5bAQBQQM8qdAaHRSUAAAAycq8EAACQH2EzAICs2EeFCwicAQAAcEgQOoOvXl+eoyrAKG5rB8iQS9GgrvW7EgDox6AiGyWgknFe2AwAIC96M7iAwBmsQ0oaAIASBAcf4KCoBAAAAAAAk4tKQOmEzQAAgFoInME6ghIAAFCIx5vbO/0r/GmrBHA+4WWAPPt8JQD9FgD6McjN68tzVAUK782FzQAAgGoInAEAAPCdJ6Ez+O315blXBQAAAACASW2UgJIJmwEAALUROIOFOagLAECh3LgLf4pKAOYQgBLZowb9FgCr92O9KsBBUQkofGy33gYAAKoicAbLC0oAAECJfexwMyPwbqsEAECpvb0SAAAAuXl9eY6qQImGi11cAgEAAFRH4AwAAIBzBbfvwi9RCeB85g+ArNwrAei3AFiVUAJ8tVECCu3Dw+4XFzYCAABVEjgDAABgjMfh4xk0zW27AEDB9PMAACuxtwpQ3ZgubAYAAFRL4AyW5/ZYAABK5+MZvHPrLpzP7e0AGXDAGfRbAKxOPwYHvL4896pAgetr38sAAICqCZzB8oISAABQupvbOx/RoOuiEsCouSOoAsDqjMUAAOtyQS18FZWAArnwAQAAqJ7AGQAAAJcIN7d3vTLQsteX56gKMG7uUAKA1TngDBUT8AewNoZCbZWAwvruJ+M5AADQAoEzAAAALvXoMBu4fRdGEHIAWJ/+HfwZB2Al9lLhsNeX514VKGgsFzYDAACaIXAGAADANZ6UgMa5fRfOF5QAAGBWAv4A1sVQmqgElOLm9q43lgMAAC0ROAMAAOAqw22O0CS378LoOSOoAsBqY7C+Beqn1wLIm2AwfOVCL0pZU6de+1ElAACAlgicwYIcqgIAoFLB4VUaF5UAzp8zlAAAYD6+RQFYE0NJXOhFQT22yxcBAIDmCJzBsoISAABQqUeH2miYW3jhfG5zB1ixZ1cCaIK1OUCG7J0CFE3YDAAAaJLAGQAAAFNxgJUmuYUXRglKAAAwKwF/AOthKMVGCcjdze2dsBkAANAsgTMAAACmEm5u73plAOAUt7oDrDL26tOhobW5EgBkSSAYvopKQOZr6Sf9NQAA0DKBMwAAAKb0KEhAo9zGC+czTwAAAGAtDI17fXmOqkCuhm9dxm4AAKBpAmcAAABM7UkJaFBUAjibW90BlveoBNAOrxoCZDcuB1WAL1zgRe7jtm9dAABA8wTOAAAAmNzN7Z0PcTTFbbwwSlACAAAArIOhaVEJyJhvXAAAAJ3AGQAAAPMIbu6lQW7lhTOZIwCMucCsvGoIkBcvfcMnLvAi4zW0sBkAAMBA4AwAAIC5+CgHwDFBCQCMuQAA+jFoUlQCcnRze9cbswEAAH4TOAMAAGA2boKkJa8vz70qwNnc7g5gzAXmXY9bnwAYjyFXWyUgw/E6dF4KBgAA+IPAGQAAAHMKw0c6aEVUAjhvflACAGMuAADQHhd3kZvhO5YLFAEAAD4ROAMAAGBuPtLRErfzwpkEkgGMtcCsvG4IkAev5cCfohJgrAYAACiDwBkAAACzu7m9EzqjCW7nhVGCEgAYawF//gGApriwi6wM36/0zgAAAAcInAEAALCE4HUFAD7x6gaAsRaYkXU4wOrjcK8K8CcXdpFhv6xnBgAAOELgDAAAgKU8KgGN2CgBnCUoAYCxFjAGAADNiEpALoaw2ZNKAAAAHCdwBgAAwFKCW31pRFQCOI9XNwCMscCsvHIIsC4XcMGftkqAMRoAAKAcAmcAAAAs6dHBV2r3+vIcVQHOZk4AMMYCxgEAoA1RCcjBcDmiXhkAAOAbAmcAAAAsza2RtGCjBHAWr24AAMzIpS8Aq42/vSrAn1zURUb9se9UAAAAZxA4AwAAYGnBgTcaEJUAzpsTlABgNg7QAfotACAXLugiF09KAAAAcB6BMwAAANbggx5Vc1svnE8IGQAAgAoJ/8OfohKwtpvbO9+mAAAARhA4AwAAYBU3t3e9KlC5qARwlqAEAHptYDYCDwDA6lzQRQbr5NDZhwQAABhF4AwAAIC1PHrVhsptlQDOcq8EAAAA1EL4H77YKAEZ8LoZAADASAJnAAAArMlN61Tr9eW5VwU4S1ACAH02MB/BBwBgZVEJWLkfFjYDAAC4gMAZAAAAawpeOaNyUQnge+YCAAAAKiL8D3teX56jKrCW4fKFoBIAAADjCZwBAACwNjdLUrOtEsBZghIATMNLRsABgg8Ay/Vi1rfwp6gErDwm64UBAAAuJHAGAADA6hyKpWJRCeAs90oAAABABYISwB9cyMWahM0AAACuIHAGAABADnz0o0qvL89RFeAsQQkAJiPEC3zhohcAvRis4fXlWQ/Cmv1vUAkAAIDL/VMJAAAAyMHN7d3T68vzg0pQoU0nVAnnzAO9Q0gAkwhKAACgF4MMRCVgDTe3d2ksticPcJ1Nhv+djO0AsDCBMwAAAHIR0kdAL0JRofR72gcQAGB2w6E6gEO8uAOgF4OlbZWAldiPB1oUv5l7YwXf4fsL+vPvevT7zqURAHCUwBkAAAA5SR8BozJQk/Tx5ub2TiHgvDmgVwaAqwQlAIwPAMZayIGX7FnDze1dbzwGKhG7AwEy8+uoXiR2V549GOaVQ4SbAWiCwBkAAAA58coZtUq/p4MyAAAz84IRcJT1NoBeDBak52AtAgBAKfPkfpgsWq/n6UTA78s/f+RFNS+oAVA0gTMAYA6xO/1M+1Is2gHK5JUzarTVl8D30k2RbucEuIp+A/hujLDeBtCLwRK2SsDSbm7vnlQByETsBMqac+6LageCac63AZAtgTMA4ENa8J7a+G9i8+PEU+gf3IgGMD+vnFGdFKDZ/b7WRwAAsxkOKgCc4uUdAL0YLCUqASuMw8ZiYGmb/bnP923O8V0wTSANgJwInAFAvdLCdHtg0dorzclF/Xf16U8s+A/9axb9AJdJt1D+UAYq7M/0BXDa46meG4CT9BmAcQLAGAtZcOCeFXjdDJhTmte2wxzXKwcL9FFHe6lP59OcSwNgVgJnAFCmzad/7JacPBb8/Tn/viO3q3nxBODreNnbsKcy286GPwAAsO5a24viAPPwiiT8tlECFu5xhc2AOeYxZ7HI0qkzFJ/CaM6iAXA1t8XDgoZmThMHfCd2f75MZgOj3TmjswkAtG43B1q3Utsc/1MV4FsbgWMAfQag1wLQi0GxHnzfZsHxN3ReNwOuWCMPvzqbRQvzZRj+oVfRaJYzSDCeF84AYB2bT41sryR883uiP7IJkAijAdXyyhkAAAAAkLPhuw0wcGCfhflWDpwrzU/bYa7qlYMG+7N4YC3Tm1MBOEXgDADmkxZp272FW68kzLQJ0NsIACr2uD/OQQU25mgw9gNM7cBL6QB6LYDlBCWAXzZKwMJrYWMwcEzs3s9teb0Mjvh0nrEf5tfQeQ0NgIHAGQBcL3a/g2U2KchuI2DYDOhtBACl8soZFfaOAmcAAAAA9bDXA79FJcD4C6w4BwmYwZXOeA3N2TOAhvxQAljO0HDZ7IBypYWUYBm1zUs2AoAi7OZd61dqmoN/qgJ8ayNsDKC/APRaAHoxKIu9fBYce58637iB95c1neGC9ebjfvhLZ8+wXoFKeeEMAA7b7DWZvXJQ6QKqtxEAlMIrZ1TYa7qMBAAAAKBwe99VAK+bsdzYGzrfsqHluWbruzHk4fOfxU9ztO/hABUQOAOA3+EyN95gI+D4RoAAGrC2tBnZKwOAcR+APznkDOi1AIBMbJWABftZoB1eMYNCDH9OP/6s9un/uPwcoGwCZwC0RrgMLt8I6D5tBNjIBxbllTMqml/73e9n8ygAAABA+ezxwMD+PUsYvlUHlYDqCZlBpT2iy88ByiJwBkDNhMtg3o2AftgI6G0CAAtxAzs1ieZOOE3QGOBs90oA6LUAgJVFJWAhgr5QLyEzaMDny8/3AmjmeYAMCZwBUIu0CNkOi5JeOWDRjYD+wCaAABowCwfiqMjWXAkATERPAQCwguFCPuDdVgkw7gIXEDKDxn0KoPWf5nwBNICV/VACWM7QBGmAYBpeL4Ny5j4bAMCkdnO/tSy1zJM/VQGM+QBX9hNh98uTSgAXSHvrD8oAcFUv1ne+f8AbezhY/wIjCJkBY3uA9OPyc6xbYAVeOAOgFJuh4euVAopapH38me33NgB8fAWu4pUzAAD4JSgBYPwAWI3vHfAuKgHGXOCMuWLrGy8w1qcX0ATQABYmcAZAjtICYTssGHrlgOo2AITPgGulsUOPQA025kI4TcgY4Fv3SgBc0WsFN8oDABPYKgFz962dA+VQqo09fmBKBwJoH2OM7+4AMxA4AyAHaQGQNqE9lw7tLf6Fz4CLCCBQUR9s/gMArhGUALhyDInKADDe3qFGQD/B/OyjQ3nzwsYZMGAJe+dGeq+fAUxP4AyANcROwAz4vfCPnfAZMJ6XHKhiDtzNfQoBp3nVEuCIYQ0NYG0NAKzKN38WWPta/0IZNp2zYMD6fWnc6yP64S+dQwO4kMAZAEuxqQCMWfh/hM/Sgj+oDHBASOOE3oJK+mQb3ADART2xEgDGEYDV2M+BdxslYGZPSgD5zwV7LwwBZOPI62fWcgAjCJwBMJfNp6YdYOyiP3bDrTPDjTOeOwc+e+z2bqeCQsXOpjaclHpBa0sAgNl6LZe5AADX0EcwZ6/aqwJkPf5v7d0Dpdi/BH2vz3AWDeAbAmcATEXADJhz0f+x2A+d22aA37xyRg1zXNz9PlYIAOAS1sbAJGvrzkFxgFEEIOA3+/NY90Jz0ri/Mf4DFfSx/ac1nvAZwAECZwBcKu5+tulXmwjAgov9OIw/vcU+MPDKGbX01uYzOD3W98oAAABAJu6VAN5slIC5CPdCdmInaAZUSvgM4DiBMwDGSBvGAmZAVov94dWzRwt9aJY/+9Rg6/cyADCGg3fAhIT7AcYLSgBvohIwc58K5DHWC5oBzfgUPgvD+k9fAjTrhxLAcoZDABoPSrL53EQDmGuBHHsW/QoVzGE/VQGM9QDWv8Aadn2Wb8YA5/dhYffLk0qAHgJrXqhc7ATNAD6vBV2Ibg0DzfHCGQD7Yvf+uoJXzIBSF4X97pfeRwhojtvYqaUXD8oAAIzogQEmkfbShPsBzhaUAN5EJcCaF6od3wXNAD4ZxsW3sXE4l3ZvfQi0QOAMAK+YATUu8tOY1lvgQzscjqMCW/MVnCRcDAAAQA7ulQDebJWAOQzfd4F1bHxvBfje/ljpbBpQO4EzgDalkJlXzIBmFvieNYcmOOhB6WLn1lY4KfV01rEADt8BsxDuBzhfUAJwoS2z96bAsgTNACboi4XP8p/vlADGEzgDaEPc/WxtDgANL+7TOBgFz6BqQRCB0ueq3e9hhYBvxvphfQsAAACLG74xAPZnmG+c7VUBFh/PN76vAkzj08Xo6UeQHiiewBlAvTb7TSwAX4JnTyoC1UmbdVEZKLyHt+kMx3nNEsB4CMwkHe71PQHgW0EJ4M1WCZiJ/XFYzoOgGcA8Ps6n7X56l6MDpRM4A6hLOqAabQgAnLWw/zHckufDBdQjKAGFi+YlMM4DGA8BALIl+A+dS2+Zh9fNYDEb4zjAor1z7IaLk4d+J60rg8oApfiHEgAULQ4bAT+Gn17YDGDUoj6Nmz+64VVIoHw+SFL4vKSXh+/H+aAKgHEQYBZCFADf04vBcFgWZuAyNph//H4QNgNYz3BO7SGNx52zaqvUXxVgPC+cAZS5AbDV/ABMvqBMz5g/dT4YQ+nSB0l9EiXbdD6swymhc7AJMA4CGF8AFib4D79slQBjLBTHq2YAGdl79az36hmQOy+cAZQhdr9fMnPbDMB8C/qPW2SiakC5fJgEqJqXNwDjIID1NMAajJHwLioBM3AJG8w3ZjtnBpAxr55Zx0DuvHAGkK/UPMbhNgMAllvIp3E3DjfI+LgBZUp/dvVQlDoPpVvMzD9wXFACwDgIMOsYYz0NcJjgP3S/vqPBZIZLD6x1YXpeNQMor89OP149m4eXmuFCAmcAmS32OyEzgFwW8v2wiH+ygIfi+DNL6aLfx3BcOoRi3Qy0Ov6pAjAzYQqA4/Ri4MUF5uECNpjegz10gHJ9BIb3gvn6peuZF+FC/1ACgNVthoX+j+F5XI0NQF6L+I9ny43PUJDhxicoldu14LSgBIDxD8A4A7AUwX/4JSoBelDIe5wezp8ZrwEqkMbz4Uzxj254zEJVLq+lKsBlBM4A1iFkBlDeAv6hc3MjlMQNT5Q87/SqACd5eQMAYCZCFQAHGRuhc0iTWXrPXhVgMpvhTAMAdfbivUvTL6ZecAWBM4AFF/adkBlA8Yt3C3coh0NyANUyvgOtcqkCoNcC0IfBWlzKiPEV8vXgMkOANnxcmr736hnf2yoBXE7gDGBeQmYAlS7cO6EzKEFQAgpfSwBHCBUDAAAALCoqAVPyuhlMNjY/OI8G0KbhTLLg2Rl1UgW4nMAZwHyLeSEzgLoXox/PlAP5cjMmpa8rgOOCEgAtcRAPsJYG0IfBmpx7YAb3SgBX+XjhxvgMoFf/CJ65QP0rYTy4ksAZwESL+NSYDCEzi3mAdhbscViwG/chUw6EUPIcowpwkgMpAAAAAMuISsCUbm7vQudCKbhqXB4uyAWAX4ZzbB8XqOvhrWVgEgJnANc1Ivshs15JAJpdsKeFuhtRIE8CCZTM3ALHBSUAGuPFIWAxLm8B0IfBJ1slYGJBCeBiG2EzAE75CJ4Nl6i3fOYguugXridwBnDZwl3IDIDPi/U0J9jYhfwEJQCo03ATMgAAAAAzci6CGQjzwmWcVQNgdC/fcPDMBb8wAYEzWFZUgqIbj4chaGbhDsCxRXocFunmfMiIm9kpeF7xexdOC0oA6GcBZuEAMIA+DD5EJcDYCll48EoLAJf6FDxrYT7ZmDdhGgJnsOyEbfIqS+z2Qmb+/gEwYs5/6NySAjlxUI7S1yXAYfdKAAAAADCrrRIwMXt6MJ6wGQCTGM5Cp3Nt6SfW/L/T322YhsAZwJ9SA7UZQmYW6wBcu3B9UAnIw83tXVAFCuVABxxnbAda4TAesMY6ulcFABdZgYOaTNxjhs6eHozl/BoAc/T5cTgj/fHqWVVzp7/DMB2BM4B3+yGzXjkAmGpxbhEL2QhKQKFzifUJnCBQDOhlAQAAZhOVAOtbWJWwGQCzG149S8GzGl49M3fCxATOgJZthubih0OcAMy4KI/DotxiFtblNmJKZg6B44ISADUTrAVW5HVFoPU+rFcF6LZKwMR8q4HzOTAPwKIqePXM3AkzEDiD5W2UYFWpmfh4zazXXACw4KK8hltgoGgO61IwBzvgOAehgdrpYQHjDwCwlqgETMU3GhjFgXkAVvXp1bMSzr2bO2EmAmdAKz5eM3vwmhkAKy7Ghc5gXUEJKJS5A4ztQLsEa4HVOBQMNM4rPDTPgU2Mq7CKjfEXgJzWBJ/CZznOUcJmMCOBM6BmcWgkvGYGQE4LcaEzWI+PmZQ6d5g34AQHoYHKGeMAYxCAdSasYaME6C1hcdFF6gDkagifPQzhs00Ga4Y4nA+P/u7AfATOYPkJ16JwfpuhiZBaByDXfqCU58ahOg6LUPI6RwngKGM7oHcFmIdXFgHrTGhXVAImXN/2qgDfj7vDOQIAyN7wCMj+y2dLnmdIa5UH8yYs459KANSy6O48KQ5AYQvvm9u7NG89qQYsKnQ+lFPumscrfXCYg9BAzb0rgHEIwDoTFufsBcZVWJSwGQClrx3ST5/+8d5lA1Ofb9gMc6a1CixI4AzWsekcFJysll6NA6DkBfdukZ02joXOYDmpD9c/UuqcoRBwWFACAIB5pNcWHeIArDOhORslwLgKxl0AuMTeme63X9P+4l4/eD+iN/yYH4XMYEUCZ0CJUuPgNTMAallkC53BwhyWo/C1UFAGMLYDzXBpGZCD0HkpHGhsfakKYO5n0nG1VwU46cHeNgA123sBDSjQP5QAVpk8e1W4SAqZ/UhPiFtoA1DhwvpBJWAxQQko1FYJwNgOAACA9SXMyXkMJnavBHCUC9cBAMiawBmsx2Lx/Dp9BM165QCgVm5zgUV5KYJS5wprIjjOwRWgKm6AB6yhAawvYSVRCZhYUAI4PN767gMAQO4EzmA9bqY/bdO9Pxn+YHENQCvSvNf5kAeLuLm9C6pAocwTcJhxHQAAAOtLuJ6zLEzGZSpw3HA2AAAAsiZwBustGntVOOjXa2aeDAeg0R5B6AyWEZSAQjnwAUc4wAJUxotCgD4LYPnxLqgCrXOWhYl5NRIOEzYDAKAIAmewro0SvInd+2tmP2xeAoDQGSzEAV5KXj8BAAAAML2gBDQuKgHGVZh/rHUJOwAApRA4gxUJV/16zezBQhoAvvQJQmcwMzcWU+j8YG6A44SJgVr61F4VAH0WwCq8xEPrtkrAhGvboArw1XAOAAAAiiBwButr7ZWz2HnNDAD0CZCHoASYHwAAAAAYBCWgZc5wYEyF2QmbAQBQFIEzWFlDG3ZeMwOA8X1CmjNtOsN83NBOqayp4AivAgGV8LIGoM8CWH6cC6pA46ISMDHfYODTOOvMHAAApRE4gzzUepA83brvNTMAuILQGQBH5gYAoF5BCQAA9GCwsK0SMBUhXvgqXdKuCgAAlEbgDPJYUMbuPZxVg7f/LR8hMwchAWCyXsGcCjNwQzsF2ygBHOTmZKD0/jSoApApry8CxjmoW1QCJmRtC38SNgMAoEj/VALIQwpn3dzepU3sUOB//bj72XrFDABm7RUedr3CU+cDDUzNQRIAAHJizQcYnwCMc7A4lwkzMd9e4LdojAUAoFReOIOMDE9nl7TA/HjJ7EHYDAAW6xWAaQUloNA5wRoMjvB6JVA4h/KAnPssa2jAOhLqtFECJqZvBGMsAAAVEDiDzBQQOkuL4IchaNb7OwYAixM6g4k5MEfBohIAQHX0poAxCgBYWlQCpiLEC3/YeN0MAICSCZxBhobQWS63m8Tu90tmbyEzC2EAWLVPiJ1b0GBqQQko1FYJ4KBHJQBK5CIEoABeYQSsI6FCzoAAzDa+9qoAAEDJBM4g7wXnGq+dpf9/+6+YPVj8AkCWfUJUCZiMAyWUPB8AAPUISgAYpwCAhbnkkKn55gLGVwAAKvFPJYB8DbdIxeFm2/Qzx6bMx+I2urUKAIrqEx52PcJPlQAA+GrXJ/VCmQAAs/RZwfckoLb1oyrQOPM6wAzsTwMAUAOBMyhjARq7902+fm/De2z4LP3ntx9/7WMgAFQhvYb6pAxwPcEECrbp3BgLALUwpwMlCJ2D6QBQDWdHmJIQL/zidTMAAKogcAaF2TsE2+//8582bQTKAKCNviC9hJrm/KAacLV7JaBQaR5wOB2+Sn8uemUAAADgjPUjtCoqAcD0XHIJAEAtBM7AQhUAKLsHeLi5vfupEnC1oAQUOg+k8LFCAEDh3AIPFESwHwDqsVUCZugVoXVeNwMAoBr/UAIAACjegxLA9W5u74IqUCgfL+HwuN6rAgAAANaNcJiLjQGMrQAAcIrAGQAAFC69brP7JaoEXC0oAQAAK3ELPFAMAQ0AqEJUAvSIMDkXBAIAUBWBMwAAqMDry7NXzuB690pAoXNArwpwkPAGAAAA1o1w2FYJAKblew0AALUROAMAgHoIncF1ghJQsKgEAFAmt8ADBRLQAIDCCUWgR4TJRSUAAKA2AmcAAFCJ15fn2NnIhqs47EvB3EgMxnUAAACsFwGAdWyUAACA2gicAQBARV5fnr1yBtDm+N+rAgAU614JgNLc3N4FVQCAYglFoDeEacXhclgAAKiKwBkAANTHh0K43KMSULCoBGBcB4oUlAAwdgFYL8KCohKgN4RJbZUAAIAaCZwBAEBlhlduokoANMcHTQAojFvggf/P3r0YN7IbbQClXc5EESgAlaDISEZGsBgAI2Asa84utasXJT4GMwD6nCrVvfbv349vNWBjiEY3zHRGQA0GjTKFB7UhjL6urqQAAECPNJwBAECfTDmDGz08Pq2kQKOyCMC6DjQniQCwfgFYw2BCvj/CugrjyiIAAKBXGs4AAKBDp9spsyQAwq39AEBb3AIPNMuEIEANBk3KIgAYlUZeAAC6peEMAAD65eU23GYpAqz9YF0HmEgSAWANA7B+wVRcWsXYHh6fVlLAugoAAH3ScAYAAJ06vdzWeAAQSxYBALTBZCCgAyYEAWowaIvvjACsqwAAcDENZwAA0LHDfreSAlzPjZw0vO5nKYB1HWhGEgFgHQOwdgE0ziUERJZFAABAzzScAQBA/9ysBhBLFgEAAADAlzRGEJZLCikkiYDA62qWAgAAPdNwBgAAnfMFItzEwRNathUBfLIUAWBtAhifSbJAg5IICCqLAGBULn0FAKB7Gs4AACAGL7zhOkkEtEqjMXzt4fHJ2g4AAGBfCFG5pIoS6+pKCgSWRQAAQO80nAEAQACaD+B6DqDQuCwC+MS6DtRUa9qjAb0wrRGwL4QG+J4IYPR1NUsBAIDeaTgDAIA4TDmD6yQR0DA3FsNnzyIAAACwL4SAsggArKsAAHAtDWcAABCE2yvhag6g0LIsAvgkiQCoiIlAQDdMbQTsC6F6LqfC3hasqwAAcDUNZwAAEIspZ3C5JAJaddjvshTgs4fHJ2s7AD1TAwKA/SB84kJCAPtvAAC4hYYzAAAIxJeKAKFoMobPkgiAuZkEREFuWGcuJlsA9oMAQBgu/QMAIAoNZwAAEI8GBLiQw8A0LosAPnkWAQCd139qQAD4muZYovKdEEX4/oTge28AAAhBwxkAAARjyhlAmPU+SwE+SSIAKqD5lZL1nylnzOLh8UmdBQB1yiIAGJV9NwAAYWg4AwCAmNxoCZdxGBjrPXTGYWigAtYhSsgiwNoGcHYfuJICUbmUCsD+GwAAbqXhDAAAAjLlDC6WRABgbQcYi6ZXCtra7zMzF7YAQH1cRoX6D0amkRcAgEg0nAEAQFxZBPAzh4JpmQPH8CWHYYA5qS0B6xvA9JYiIKgsAtR/YF0FAIBbaTgDAIC43GwJl0kioHFZBGBdB6qh6ZUiPlw0YL/PLFzYAgDV1YhZCgCj2ooAAIBINJwBAEBQpy8asyQAuucLUPjAYWhgRtYfwBoHMO3+byUFgnIJAQAAAHAXDWcAABCbLxzhZ0sR0LIP0y6AP5IIgKlpdmWqvb36jxmZ4ggAEGN/a89BSPbbAABEo+EMAAACO005AwCIxmFoYA5JBIB1DmByLpMiJE0RAAAAwL00nAEAAKacwQ9Mo8BaD92xrgPQjTOHidV/AABxZREAAAAA99JwBgAAwbnlEi6SREDjsgjgPc3EwAxM1wAi1FgrKQDWJJjdVgQAo3OxCwAA4Wg4AwAABlkEAP067HfWefgsiQCADqzP1H8r0QAAxKQWZAIuVAEAAAhAwxkAADBwIxt8z5enWOuhP88iAKZiugZg/wxgTYKJZBEAAAAAY9BwBgAAmHwDAESURABAB/v51Tf/ZxcOAADEsxUBwOT7bwAA6JKGMwAA4JWDaAAd82UofPbw+JSkAEzEdA0gUo1l7wFYi2Am3gECAAAAY9FwBgAAvMoigPMcUsFaD11KIgCgYd9eHOOwMQDBPYsAYHwucAIAAIhDwxkAAPDbYb/LC40IAL3bigDecQARKM7FBUBApjoCNUgiIKC1CLC+AgAAMBYNZwAAwFsaEeA8TQk0z5QL+CSJAICG5Qv+NQ4dAxCO6TuoDwEYmb01AAAhaTgDAAD+0ogA30oioBNZBPCPg4jABFxcQKk9vLoONRbA16xBqA8BAAAA7qThDAAA+CiLAKBrplnCe0kEgHWGjvfu9vhY+4CINPwTkek7AAAAwKg0nAEAAB9pRIAz3NBOJ7II4B0HEQH1I93u3U25QI0FBKUGIyJ1H+o8AAAARqXhDAAAeOew362kAGclEdDBOp+lANZ2wBpD83Khfy1Y/4CmafgnKu/8UOcBAAAwNg1nAADAV7IIALq2FgH840AiUJCb3yniygPFJpmjxgIisfYQkXd9AGX34CspAAAQkYYzAADgKw6jwdccGKYXWQTwThIBYH2h41pO7Yc1EIjE+zsAAAAAGIGGMwAA4BO3tMFZSQR0ss5nKcA7DiQCozPZh4KuuiRG7YcaCwhGDUY4vtMBAAAAStBwBgAAnJNFAGCdhyCSCABrC53XcWo/rINA9zT8ozYEAAAAGI+GMwAA4JytCOAzB1ewzkO36/tKCgC04MaJZWo/ACJIIiAgdR4AAABQhIYzAADgS4f9biUF+FISAdZ5AOACSxFQkSwC5qCpH5jYswiIxjs+Jq7tkhQAAADi0HAGAAB8J4sAwDoPQWgMAaAF61v+n26cigYArUkiIBg1HtZZAAAAitFwBgAAfGcrAgDrPABwHRN9qFQWATPQ1A+ov6Ac7/YAAACAYjScAQAAZx32u5UU4BOH5ehJFgH844AiAJ3v0x1IBgBQGwIAAABcRMMZAAAAQFCH/S5LAQCKcEkBNVL7MQtN/YD6CwAAAADao+EMAAD4yVoEANZ5CMIBRQC6rdtcNgAAoDYEwHoLAACX0nAGAAD8JIsA3nt4fEpSwDoPAJypFVdSAHhHUz+g/oLxZREAAAAAJWk4AwAAvuUGdPhSEgHWeeiTg4oAVFy3jfEZ5WZ2AIA+asMsBQAAAKAkDWcAAMAlsggAuubgMQCM51kEAO+ZFA4UZpIi0XiXBwAAABSn4QwAALjEVgQAQBAOKgL3SiKggFEOFY80JQ2sjQAwrywCAAAAoDQNZwAAwI8cSINPNCNgnQcAPjHBB+As0x+BUvXXSgpEc9jvshQAAACA0jScAQAAADDIIoA/HFgE7pBEQAkjXxCwlijWRwBolloOAAAAmISGMwAA4FK+xATo21YEAHA3E3wAzjAFEihkKQIAay74vQcAgPFpOAMAAIAbOChHb0aemgGtc4gAuJUakRKyug9rJACglgMAAACmpOEMAAC4iC8x4ZMkAgAAXrmQgIJMoqUXpkACY9dfKykQTBYBAAAAMBUNZwAAAAC8WosA/nBwEbhBEgGFZHUf1kkAYOEiAgAAAGBCGs4AAIBrOJAG0LcsAgCAuhz2OzUaAHxtKQKC1YUrKQAAAABT0XAGAAAAt3kWAb1xmBnecXARsG5QgyL1mcPKzMUUWWDE9SRJAXUhAAAAQDkazgAAgIs5kAbvJBHQKdMsAQDqsRUBAHwpiQB1IQAAAEA5Gs4AAAAAAL5gAgdgvaACueC/t4sGmINpkMBYnkVAJC4EBAAAAKam4QwAALiWA2kAHXN4BQCgqtosSwEAvpREAABM4eHxSd0BAEBIGs4AAADgRr5gomNZBPCbCRyA9YKeazI1H3PtpVdSAO5cR5IUCMZFgADzUnsAABCShjMAAOBaWQTwVxIBndqKAACg75rM9DQAGpZEQDDqNgAAAGByGs4AAICrOJAGEGKtX0kB/jCBA7BO0Dl7fOZgKiRwr2cREInvZQAAAIA5aDgDAABukUUAYK0HAKCciS4BMNkWgBYlERDIWgQAAADAHDScAQAAt3AgDcBaD1GYwAH8xIQNWpZFwBweHp+SFADrB6jXABrhHTEAACFpOAMAAIDb+YKJnmURAMBFkggoYJJJFof9Ts2HtROwfkDF1GsAAADAXDScAQAAVzvsdyspAHS/1mcpwB8Pj09qH+Dc+pCkQAfUfczBdEjA+gE/W4sAAAAAmIuGMwAAAADOcagFAL6XREAJE1/0spU41k/A+gEAcJ5LhwAAiEjDGQAAcKssAgBrPQSxFAFwhgkbqPngRg5sAtYN+N7ElxDAJVxQRmTqEAAAwtFwBgAA3MoN6ACdO+x3WQrwh4ONwBnWBkqY9BCnmg9rKGDdgCqp0QAAAIBZaTgDAACAOzw8Pq2kQOeyCOC3JALgQx1oXUDNB/cxJRKwbsB5Lv0DqMtSBAAARKPhDAAAuMlhv1tJASAEh1vgDwcbgY+SCOhov63mwzoKWDdATQgAAADwl4YzAAAAAM5yuAX+SiIAoGNZBADU7OHxaSUF1GYAzFyPJCkAABCJhjMAAAAAfpJFAA4UAJ8sRUAB6zn+Qw/7nXqPueqrlRQA4BPTZwHqlEQAAEAkGs4AAIB7rEUAEIJDLvBHEgEAHcsiAKBimv0J47DfraQAAAAAzE3DGQAAANznWQT0ziEXsOYD75nIQ0F5xv9slwwwBw0kAACA/QsAAFRIwxkAAADcJ4kAwJoPAGM47HdZCgDwnmZ/glmLAAAAAKiBhjMAAOBmJt4AhOKwCyx+H3RMUgAWbrSmjGyPT9D6yu8eAFRSEwJg/wIAAK80nAEAAABwiSwC+C2JAIBCtiIAgC9p9icME2+pnN9PAACAQDScAQAAAPAjh13gr2cRQGxusqagGuotU22Zg0YSAFCL0QDviMH+BQCAWDScAQAA9/IFKIA1HyJJIgCgBIc3AeAzzf4Eox4EaKM+SVIAACACDWcAAABwJ18sAVj3gVBMOqSEXMN/icN+t/JHgfoKAGarxbIUAJpg/wIAQAgazgAAAOB+SQRE4AAyWPcBawDFbEWAtRXgS0sREMRaBADNcBkRAAAhaDgDAADuovkAIJwsAnCgAKIygYcgNZbDzqivAAAAzksiAAAgAg1nAAAAAFzD9A1woAA8/zCyw36XpYD1FeC9h8enlRQIVA/6fQdQpwAAQFU0nAEAAABwMYdf4A9TjiAsE3hQ74H6ClB7wdiyCGiIicigTgEAIAgNZwAAwBiyCACAYJIIwLMPI3FgE6yxgHWB2LYiAFCnAABAbTScAQAAY/BlKEAsDkWDG2whHJN3UO+B+gpQe0EJJswCNFuvWL8BAOiahjMAAAC431IEBJNFAG6wBc89jMMBY7DOAtYEQssiAGiWSzMAAOiahjMAAAAArnLY77IUwI37AHRd762kAMDMHOAmiq0IAJqVvCMGAKBnGs4AAIC7OYgGENJaBODGfQjGVFvUVFDYw+PTSgqA/RaR+H4Fv7OgZgEAgFppOAMAAADgFlkE4MZ9ANR7ADA2k0IAgIa4oAgAgG5pOAMAAADgaof9LksB3F4LUZi4Q8Gaqubfra0/IWbgsCZgr0Ukpt0CdMB7IwAAeqXhDAAAAIBbZREQnZv3AVDrAcDoTJNGvQVAS1ycAQBAlzScAQAAY3ETJ0A8pl6Am/chCgeHCLePNtGWuZgOANhnEYV6i4b53YXP+xj1CwAA3dFwBgAAAMBNDvvdSgrg5n0AupZFAMCUHNYmEJf40TIXkcFnLisCAKA7Gs4AAABgBA7DEFgWAcFZ/6H/Om8lBUpopHnfQVLmoKEf7LEggiwCgL5qGN8VAgDQGw1nAAAAMI4kAoJyCJnwHCQAoGNZBNhfAxPTdEoIh/1OnQXQH1POAADoioYzAABgFI3czA7A+LIIwKFo6JzDQoStoRyEZi4a+sH+CtSCUPU+YSUF+LqOsZcBAKAnGs4AAAAAuJlDyPCbG/gBuFZLU2LVe8whiQDicUAbtSAAHXBxEQAA3dBwBgAAAMC91iIguCQC6JNDzxSUG/rv6kA0c9DQD/ZW0C3ToQD6rme8TwIAoBcazgAAAAC4VxYB0T08Pq2kAF1KIqCExqbEqvWw/gJTMRGECNRW+F0GNQ0AADRBwxkAAAAAd2nswDQAXMOEHUpoqnZS6zEXUwEA6JTpsfhdhv6ZcgYAQBc0nAEAAGNaiwAgrCwCgnNrLfQpiYACWjyYqdbDGgwUZWo0URz2O7/rADF4XwwAQPM0nAEAAAAwBjfaAtAVN1FTUFbrAQCoAwHoWtJQDwBA6zScAQAAAHA3tzODG/mhQ0kEFKqbcoP/tbM/OWZgIgB45qE3mvjpaV+zkgKobwAA6JuGMwAAAADGkkUAQEeeRYB66Y9Gm+QAANSCAMzq4fFpIwUAAFql4QwAAADG4ZZCcEsz+CyAviQRoF6CeZkgC5516Ikmfjrkdxp+lo61ThIDAAAt0nAGAACMKYsAIK7DfreSAgBAt9YiAABQS8EbLtSAy7ioDACAJmk4AwAARuN2TgAgOjfzg2cZftg3+92C6ziYCZ516EUWAUBYybsmAABapOEMAAAAgDG5rRkAoEOa5QAA7qqlshTokN9ruNzy4fEpiQEAgJZoOAMAAABgTFkEBOdmfvAswzka8+EGJgGAZxzUgVAnjZRwNe+bAABoioYzAAAAAEbjkAEAQNcclgYAuF4WAQBH6eHxaSMGAABaoeEMAAAAgLE5iExobugHzzB85bDf+d2C2zyLALpm0gcR6sAsBTrmXTBcZ2g6S2IAAKAFGs4AAICxZREAAABAfzTNMZMkAgAalkUAwAemnAEA0AQNZwAAwNi2IgCIzUFkcEM/eIbhE7f+wx1MAIBun+2VFAjAdyb0LosAbqqDNJ0BAFA9DWcAAAAAlJBFAADQJc1zzCGJALr0LAJ652ImAvyOZynAbXscTWcAANROwxkAAAAAJbi9mdDc1A/NPrtJCpTgoDHcTVMK9EntRe+yCAD4rhbyLgoAgJppOAMAAABgdA5VA9CoJAJQ52F9BspzuJogXMhEFKYgw+026iIAAGql4QwAAAAAYHxLEUCTTNChBIcvYQQOYUJ3PNN0T6M+ABfaiAAAgBppOAMAAACgFIerAWhNEgGo87BGA5PQ6E/vsgiIQnMl3O/h8UnTGQAA1dFwBgAAAEApWQRE9vD4tJICNPXMJimgJgKAyai96N1WBABcUxtpOgMAoDYazgAAgFG5xRCAN58JWQoANCSJADXRxdR5zGEpAuiDRn+CUC/hdx64lqYzAACqouEMAAAAgJLWIiAwh6KhLc8ioIDc4/8oFwsAcKckAnqnXiIgU/1gpDpJcz4AALXQcAYAAABASVkEADQiiYACej50qc5jcg+PTyspQBc0+tM7FzARkf0BjGej6QwAgBpoOAMAAACgGLc5E51D0QDh9VwLmWAAwK2SCFADQl+8B4bRaToDAGB2Gs4AAAAAKC2LAICaaQ6llM4PXarxmMNSBNB83ZWkgBoQ7BGAi2g6AwBgVhrOAAAAACjN9AsicygaIK7c8/84B6kBuFESAZ1bi4DAvAeG8Wk6AwBgNhrOAAAAACjqsN+tpABA5TSHUkKEw5bZHzNTM5USmvcsAtRH4PcfuIqmMwAAZqHhDAAAAEbiyx74VhYBgT8fVlIAUP90ygQDAK6VREDPTIHF7z9QiKYzAAAmp+EMAAAAxpNEAGc5jAxAlTSFUkqQw5bZnzQzMB0J1F2gNoJ6rUUAxWg6AwBgUhrOAAAAAJhCFgGBLUUAQI9MMGAmSQQAVMqFSwCUpukMAIDJaDgDAABKcHshAO84jEx0DgFA1TSFYl98H3UeaitA3QWL3++/VlLAc+A5gAlsTI4FAGAKGs4AAAAAmIqGZCJLIgCgUyZ5oLYCAE34AExr+fD4tBEDAAAlaTgDAAAAYCpZBAT2LAKojwk5lBLsVn81Hmor4JK6ayUFOqcJH/5x8RhMI2k6AwCgJA1nAAAAAEzisN9lKRBYEgF4NkGNB9ZvALqtiVZSgL/sEWDCvdHQdOZSJQAAStBwBgAAAMCUsgiIypf+UCUTcigh4m3+ajzUVsBPliJALQQxuJQCJjfsjTSdAQAwOg1nAAAAAExpKwICSyIAzyWo8cAaDoBaCALIIoDJDU1nKzEAADAWDWcAAAAATOaw362kQGAmKUFF3PqMegcAJqu7fDbSuywC+EQjJsxjeay9NmIAAGAMGs4AAAAAmFoWAUElEYBnEnqkyY6ZLEUAQCW1UJYC2CNARdLQdOayJQAA7qXhDAAAAICpud2WsHzJD1UxdZAS1iIAgE80iKL+g5iyCGA26fij6QwAgLtoOAMAAABgUm63JbgkAvA8QqcctmZyD49P9hYAzC2LAM5y8RjMb2g624gBAIBbaDgDAAAAAJiOiUoAHdNYDwDvaQwlQP2XpQD2R1C5dKzJfpl2BgDAtTScAQAAADAHEzCIKokA5ufgM4zPYVJmshQBADPyfgt+lkUA1dh4JwYAwDU0nAEAAAAwhywConKTLID6BgAC0RiK+g9i24oA6qrNHh6fNt5RAwBwCQ1nAAAAAEzusN9lKRBYEgHMzsFnSnCQ0pQPZuCGfqj6+bT3oWveb8FFz4laDeoz1GimnQEA8CMNZwAAAADMxYFkonoWAUCXsggA4J0kAtR+gOcFqmXaGQAA39JwBgAAAAAwrSQCmI/bmynFhAvTC5iNZn7wfMIcTLcFzwv0IC1MOwMA4AwNZwAAAADMwoFkInNrLEB3sghgNuoq8HzC5LzXAs8LdMa0MwAAPtFwBgAAAMCcsggIKokAZrMUAQW4sf+ftQiYmkOR4LmEiWURgOcGOjTUb0PT2UYUAAAMNJwBAAAAMCeHs4nqWQQAXckigFklEYDnEibkfRZ4bqDrOu7h8emXCwQAANBwBgAAAMBsDvvdSgoElUQA03NQhoI1TZaC+o5ZaeYHzyWod8BzA4zr97Qz79MAAOLScAYAAAAAMANf1MMsPHeUkEUA1nfAc4naD/D8QKc13dB0thIFAEA8Gs4AAAAAmNtaBASVRACTM2mDErYi+CSLgKlp5gfPI6j9oHreA0O7lsca75fGMwCAWDScAQAAADC3LAKC0vgC00sigEk4iI01HjyP0KssArjNYb/z/ED7hsazjQsGAABi0HAGAAAAwKwcNCCwJAKYjoMwFKxlVlL4RH0HEJvLNei59lPnwH1MOYP2pePPRuMZAED/NJwBAAAAUAMHDQjJF/IwKc8bTMRBbGayFAGou6Aw76/gfvYK0FfNNzSdrUQBANAnDWcAAAAA1CCLgKCSCGAyJm1QgkPH6jsA3nCpBuob4Dunyyk8S9CX5bEG/KXxDACgPxrOAAAAAJidKRgEpgEGppNEAJPaioCpOeAIai4oyfsrsFcAvqXxDACgMxrOAAAAAKhFFgEBJREAtOuw362koLYD4J2lCOiUybZgHwVcWA9qPAMA6IOGMwAAAABq4WZbQnp4fEpSgOLP2UoKMC0TQJiJRhcASlHbwLg0cUKA/ZnGMwCAtmk4AwAAAKAKbrYlsCQCgCY5IPmzLAKAOBwmpmea6cFeAbjZ0Hi2cfEaAEB7NJwBAAAAUJMsAgJ6FgEUZ+INzMMEWyan4QWAArIIYFynJk7PFsSRjj8bjWcAAG3RcAYAAABATRxKJqIkAoD2mM56kSwCgFA0+dMr76vAswWMIy3+NJ79clkIAED9NJwBAAAAUJMsAiLy5Tp4vqBHp6kFMDXTYwEYu6axpwDPFjC+pcYzAIC6aTgDAAAAoBoOJQMAjViL4GLqO6aWRADTc1AYtQxgbwXcSOMZAEClNJwBAAAAUBuHDIhoKQLwfEGntiJgag+PT0kKAKhloH6mnAFvaDwDAKiMhjMAAAAAapNFAACoV2QFd0gigMlp8qdLmmHAngGYvq58bTxzmQgAwLw0nAEAAABQlcN+l6VARG5uhSLPVZIC6hVZEdKzCAAYgToGprEWAfCF4UKDzcPj08Y7PgCAeWg4AwAAAKBGWQQAjCCJAHUKWP+BslyeQce2IoDyTpdU2GcB3+3vNJ4BAMxAwxkAAAAANXKgh4iWIoDRmXCDOqUOJhYwOQcRARhBFgHYZwHVGPZ4Q9PZLxceAABMQ8MZAAAAANU57HcrKQAwgiQCCsgiAJ8BwDsuz6BLp6lLwDTP20oKwDX152vjmctGAADK0XAGAAAAQK2yCIjGzaww6vOUpEAJDh7flJnPNwCgNSa0gucOqN9w8cEw9WzjXSAAwPg0nAEAAABQq60IALhDEgEFZBFAM0xcggm4NAN1HzAWF1UAd0iLP41nv9SnAADj0XAGAAAAQJUcMCAoB6NhPM8ioAAN8bczrQBAzQXNMNUW7BuAZi1fG89MPQMAuI+GMwAAAAAAoEdJBBSQRQDtcLM9qLngRhpeYCYuIQNGNFzuNkw929gbAgDcRsMZAAAAADVzwIdwfPkNUC+TLu7KzucbQH97lyQFOqXmg3l5JwyMaahZTT0DALiBhjMAAAAAapZFAMC1NG4CcLIUARSVRECPXDIAsz+D9vRAyT2iqWcAABfScAYAAABAtRzwISgHowHq5JZ9GQLw3rMI6FAWAdg7AN1LC1PPAAB+pOEMAAAAgNo5XADAtTRuAvCbW+uhqCQCOrQVAVQhiwCYiKlnAABnaDgDAAAAAKiML7YB6nPY76zNMgTg354lSQH1ClDwWcwLTWfAtIb61tQzAIA3NJwBAAAAUDUHfQC4hoZNAD54FgEUkURAh7IIoCprEQAzeZ169su7RgAgMg1nAAAAALQgi4BgliIAqIqDjrKkXUkEUIRmTnq0FQHUw5QzoBKvU882ms8AgGg0nAEAAADQAgd+ALiUhk0A3nl4fEpSgNF5rujOYb9bSQGq48IKoKb697X5bGWfCQBEoOEMAAAAgOo58ENEbksFUIt0KouAGSQRwKh7Fc8UahRgqr3Y8GxqOgNqM1x4tdF8BgD0TsMZAAAAAADQBYc7oH6nA6MwtWcRwKjUXPRoKwKodg+xkgJQsdfms41L5ACA3mg4AwAAAKAVbrIlmqUI4GpJBKhBmpBFgM8HaJomTtQngH0ZwOd95/I09UzzGQDQBQ1nAAAAALQiiwCAHzj8DG0wQYTJmYIJo/I80R1TWKH6Z3QlBaCxelnzGQDQPA1nAAAAADTBwR8i8kU0XC2JgAI1iLV4fOo6fEZAu3sUzxI9MjkJPKsAJfeir81nK/U0ANASDWcAAAAAtMShAgC+5LAGtMNFAgBNU3PRI7UJtLGPWEkBaNzy+LPRfAYAtELDGQAAAAAtySIgmKUI4GJJBKg9ZAvqKvAswbU0w0NTXEgG9FRXaz4DAKqm4QwAAACAZjgABMA3nkVAAVsRyBYA6JrmFWjIacpZlgTQGc1nAECVNJwBAAAA0JosAiIZvmCWAlwkiQB1h2xBXQWeIVCTQPc0igI903wGAFRDwxkAAAAArTENAwCYhOmqsgUA1CRAlc+tZxeIQPMZADArDWcAAAAANOWw362kQDBLEcD3TNugkCwCGaOuAjxDqEWAKplyBkSsxV+bzzbehwIAU9BwBgAAAECLsgiIxM2lALMwVVXGAIBaBKiQKWdAcOn4s9R8BgCUpuEMAAAAgBY5EEQ0SQTwLdM2KCGLQMb0RyM/3PzsrKRAbw77nd9raPsZfpECgOYzAKAcDWcAAAAAtCiLgGCeRQAwrdON+ciY/iQRALDwbgl6sRYBwLv9ruYzAGA0Gs4AAAAAaI7DyQSURABfc3CCQtQa0C+N/HAbE2XpzVYE0L7TpEL7N4DP0uJD85mJ3wDAtTScAQAAANAqt9cSii+DASblALKajn6pqQB4bVIB7CkAouyDhwskNqcGNM1nAMBFNJwBAAAA0KosAoJJIoAvmbYBwFUcrIOrn5mVFACo1WG/ywvvigGuofkMALiIhjMAAAAAmnQ6SACRPIsAYLI6YyUFWdO1JAKA0ExDgv72FS9SALiJ5jMA4CwNZwAAAAC0LIuAQJII4D0HIAC4kUZ+uI6JsvQmiwC6pJkU4P66/23z2UokABCbhjMAAAAAWrYVAZForoFPPBOU4JCizPH5AdiD0LHDfpelAF0+26uFhlKAsQzNZ8tT89lG8xkAxKThDAAAAIBmnQ4RQCRJBPCOCTUAAPYgcA2N7uAZB+D6PYHmMwAI6H8iAIBYRtr0Lyf4rzrKi2AHkAEAQsgLB+CIQ3MNvGf9Z3TeJ82T+cPj01ISTGl4V+55B3sQQsoigK73FvlY5w3PeZIGQBHD+ppO73GG9XZrbw0A/dJwBgCNOG7U0+L7l6LPi75emi5Hyu2af5+fmtzy8ILabyMAQHW2CwcIiMPvOvzb83seAADsQeAqvuuDEM/5yzCFRxIAk+wVNJ8BQMc0nAHATL5pIHOT73x+yn4YD//d//1cw5pGNQCAgkzEIOJ+0h4DfksioIC1CGbNXk3HlIbft5UY4Pu9hxRQ6wGNejn+bMQAMJlh75DefF831F3OSwFA4zScAcDIzjSS9TZ9jK+dOxBzrlEtL/5M4/j0z3vhAgAAfCOd9hMQ3bMIAACK7z0AoDnD9+0Pj0/ZZxnAbIYzVK/npTSfAUCj/iMCALjOcSO8+vBPaSZjCnnxuTnNyxhqXyvdSk5E62HSkhjAZw+U3h8cP29exIC1/+mXFBjbcX313ZnnGvt44N+6PEyGSZJArQfYYwAw1j584bwTADTDhDMA+OCLCWUayqhB+uL38KvJaesP/9hLGgAgiqHm0XBGpP0BAACAvQdcLosAQhq+P/feGKAeJp8BQEM0nAEQ1odJZV4w0ouPv8s/NqW5wRcA6MHwZdQXdQ/0vKdNvoQl+DNgL0sJaxFU8WfgXS1TGn7ffKbAmT2HFOjMVgQQz/Bd+PEzzSXDAPXuyd82nznDBACV0XAGQNc+TCvzEhH+WH54Tj4e4tGQBgC0ygFlIhn2t1kMAABAwT0HdMP3XRDa2ucaQPV+f793OsOUjz9b9RsAzE/DGQDdeHOztcYyuM93DWl58eYGSC93AABgNs8iwN4VRpdFMK/T9AHPN5MyORbsOVDnAd3vM/Kx5nNZGUA70vCj+QwA5qfhDIDmfJha5oUgTOvt86cZDQCoigPKBKzNARi3lshSgLB1lecf7Dno21YEEH6/N7w7dnkxQJv7Es1nADATDWcAVE1zGTTl7fOqGQ0AmEteODRAoD2z5giC/u7bU1KqhkA9R0ymOMEXew0p0BPfSwEna3sNgKYNa/i75rPhr74nAYByNJwBUA3NZdC1t8/3d81oXgQBAPfaLhwaIFadrX4GGK+GQD1H3JoK8FwA0Lnhe+iHx6eX499upAHQxZ5l+Fke1/bhHw9Nxc4cAcDINJwBMJs3t1E/L3xxBZGlN2vA64ugQV6YigYAXGmoGT40t0PPTOMgKus8JWQRVPVn4TlnUibHgr0GXVuLAHh1ajob6r4kDYCuDO+SNJ8BwMg0nAEwCdPLgBu8XTc+TkX7++WgRjQA4At54cAAcWpmAEbgAEpdfxZvLiSCKesq6wDYa9An6zvwcc/xctxz/JIEQLc0nwHASDScAVDEmwYz08uAEpZv1huNaADAR1v7ECLtv31RSrTfeSlQgHW0zj8TzztTMs0J/tVbKynQE3tm4IyX489GDADd03wGAHfQcAbAKDSYAZXQiAYADPLCZGXiSAuNEsT7nYexbUVQ5Z+J5x2fLwDcay0C4CunycpZHQgQytvms+EzYOsMEQB8T8MZADfRYAY05qtGtLz4d6DMDUYA0JHTYQFBEIVpHPidh/tlEVT5Z+ICAYB5WH9R5wEhHPa7l4fHp2HKWZIGQDjD2p9OZ4iGmlHzGQB8QcMZABc7brCGTZUGM6AX6c16tnxzKD0vTo1oXiYBQNOGG6wdkiNKXQt+5+EOLqGp88/EBQJMbfgOxPtAAHUeEM7wHjmJASC04XNA8xkAfEHDGQBnnRrMBg5pApGk08/baWiD9emvpqEBQBuyvQyB9u9JjUqU33UpQLh6znMPMG29tZICHVmLAPjJ6bILl5cB8CotNJ8BwF8azgB4xxQzgLNev2R4Ow3t75eVXjABQF1MxSCYYQ+fxUCQ33UYm4PI9dp67pnY8P5vJQYAgFiG73kfHp+ckwHgo+Fz4V3z2cIl1QAEo+EMILjTzdDDj9uaAK63fLOevv59Xvx5yaQJDQDmlxcOCRDDswjwuw50Wst5bw0wLesu3fAdDXDlmvHy8Pj0SxIAnJFOP6+XVA+XWGk+A6B7Gs4AAjLFDKCo9Lq+akIDgNmZikGkGhT8rsMN7NOr/rMxsZbJDd+fWBcAupBFANzg5fizEQMAFxjOA2k+A6B7Gs4AgtBkBjCrtPimCW3hxRMAFDEcFH3z2Qvd7/sdjgagQ3nhnTbAZHsKKdCRrQiAa50uvRiaBrxTBuAams8A6JaGM4COaTIDqFp6sz4v39zYPbx8csM6AIwn2xMBtM8BaApZi6B6JtYyteGQmM8cgMb5jgW4Z/14eHxyzgaAW2k+A6ArGs4AOqPJDKB5y9N6/mkSmi9IAeAmDikTqY5ULwIAAPfsKaAHWQTAPQ773cvD49MvSQAwwh7rtflsqFG3zv0A0BoNZwAd0GQG0LX0ur5rQgOAmwyfmw7NAbTPWs7o7Knb+DN68z4EJnH8nUtuHwdo2lYEwAhejj8bMQAwkjT8nN5z5YXmMwAaoeEMoFGazABCS4vPTWjr01+zAzEA8M/wuXi6ORC6N7wr8AUlAMDd0sJ0HALuJaRAL+yLgZHWkuG98vD9qwswABhbWmg+A6ARGs4AGqLJDIBvvH7ZsXxzqF4TGgD8+0x0MACgUQ5AU7A+QC0HX3kWAQAAp4nLzugAUNLwGaP5DIBqaTgDqNxxM5FOGwtfqANwrY9NaPn4sx3+xgsqAILJ9lQEqv/UeQAA90kiIOheAnrgUgFgVIf97uXh8WmjRgRgAsNnzWvz2Wtt64JpAGb1HxEA1Ol0c7MvdwAorcgUNJ9jRH6mNHRCtXusX1IgguPnkHe+WMPBemkdgPu9ONBFoDU2Hf+ykQTWbwCflQBUS/MZALMw4QygIqfD+c8LNyMBMB1T0ACIYr3QDE0Aw7sFdRwAwN3S4s97Mojy+w5dcAAXKLW2PDw+vSw0nQEwn+E7ztdzPZrPAJiMhjOAmZ1uQkoLBx8BqMPr59LwGfX62VRkChoAAMBPTu/OYGz2tu1xeQBTexYBft+hyXoBoIhT05l9CQA10HwGwGQ0nAHMxDQzABpybgqal1YANGOY+PSmmRp6r91WYqAjSQQUsBUB4PMH/L7TnSwCoKTTO2bnfACoycfms9+fV2IBYCwazgAmZJoZAJ34+3l2emk18OIKgBbkhcMAAK0xcYNSNQENcXkAQBmmydJZvaDGA6ZYa16On5+bhffMANRnedrnDX8dauOtMzwA3Ou/IgAob/iy5vTCabPQbAZAn15vTfo1/CwcCgWgTqaZEMJpqjr0IomAsTmMDKipQK1Fd9YiACbcU75IAYAG9nqvZ3g23nEAcCsNZwAFDYX66dC9240AiMbnHgDVcYsfQFtM3KCQLIJmOUgOMD4XhwHAbTSdAdCKtNB8BsCNNJwBjOw0zey10cw0MwAAAGBq3kfQiyQCCjDxFFBTgXqLzrhkCJhh3ckLTWcAtLkH1HwGwMU0nAGM5NRoNkwyG358CQkAAFAnkzEA2mHiBiVkEbTJQXKAcZkmi/oO4O49yrD+aDoDoFXDnvC1+ezXaciCfSIA72g4A7jTm2lmm4VbAAEAAGqXRUAEbqWkE0kEjO10IBBATQVqLfphgi0w9x7TJWcA9GAYsrDRfAbAWxrOAG70ptHMNDMAAIBGOGQOAKGpA9rnICfAeEyTpQumoAKVrEP2mwD0RPMZAL9pOAO4kkYzAACA5jmoTATeW9A0E2UoxPQLQE0F/yQR0IEsAqAGh/3uxZoEQKc0nwEE9j8RAPzsVCQPhbNiGQAAAAAA5pEXGoAA7uaAIB1xoQBQjaHp7PgZu1k4WwRAv4b3csvj593w9+vT599KLAD9+o8IAM7TaAYAwJXWXqhCM/u9X1LA5xJYp4nluCb6Xsz6ALd4Oa4fWQx0tpYO+wQNvKjvAMp8zmo6AyCafPzZ+k4KoD//FQHAZ0Oj2ekFkJdAAAAAfcoiAABQx8EFkgjokGYzAChkmHRm3wJAMGnxZ/LZr+HcranaAP3QcAbwhkYzAACAMLYiIACHSGnSaeIGjG0tAnUc3OhZBADqO4BraDoDILB0/Nmcms9Wms8A2qbhDGCh0QwAACCaw363kgIAQJOyCJhYEgE90dyPmgBgMhpjAYhuuBhR8xlAwzScAaFpNAMAAAgti4DeOUxKo0znY3Sazbv6s1TDMUdNlaQAoCYAuGGdepEEAPym+QygQRrOgJA0mgEAAHC0FQEAQJOyCJhYEgEd0dxPD0wNApqg6QwAzu5L/zafiQOgXhrOgHA0mgEAAHCSRUAADpPSFLeaUogDyf1xcQBTexYBQFWyCIBWaDoDgG8tT41nG81nAPXRcAaEcRrD+2uh0QwAAIDF3y/6AahLEgFwAXUcPp/gBg7v0QvvdIBG1y1NZwBwXlq8bz5LIgGYn4YzoHtvGs3c6A0AAMBHJp7QPYdKaYwJMozusN9ZB/v7M81SAICwvMsBWt7HaDoDgJ+l48/m1Hy20nwGMB8NZ0C3NJoBAABwgSwCgKokEQDqOGqkiZ9O+N4UAGak6QwAbtrHbk5Tz1biAJiWhjOgO8NtBkNxufCFCQAA/J+9O8xtW1fCAKoAbyddQRdQhF6ZlZVZQRfQFXQteWbD5KZtkjqxRJHDcwCjRXF/XAwEc2jx4wD/YDoGg/AbCV1wSykbMQEjrnslAIDxmF4LBPgeWyahMwD4qHT+HE09A6hL4AwI40XQ7DS5CRkAAIDLLUpAdF680QnPKaCHo2VC/PS+J5hVAes/QBuEzgDgKk9Tzx7sdQG2JXAGhFCaRkEzAAAAPsN0DEaQlIAO3CoBG1iUICaTagFgSH7DAULtac6fG/tWALjK09Szk8sXAdYncAZ0rYzGfZjcKgkAAMAn/fzxfVYFBiDIQw+SErDBOr+oArAWt2bTOe9TidDb+R4GIn635Uln9q4AcJ00mXoGsDqBM6BL+SaCfCPB5MUIAAAA61iUgOCSEgDWdwK6UwIA0NsB9E7oDABWZeoZwEoEzoDulKBZ/mgEAQAAWMu9EhCdl2o0/nzOqoD1HeiAixDRa4HeDmATQmcAsLo0PU49O9kXA3yOwBnQjdzw5VsHJkEzAAAA1rcoAQNISgBY34nk54/vsyoAXORWCbDuA3TxXSd0BgDrS9N/U89mFzQCXE7gDGhebu7KVDO3RgIAALCJnz++L6rAABwypWV++8P6DnTBoSQ65bkFgH72skJnALCd/C7iaeqZvTLAPwicAU0rY2xz2ExjBwAAwNbulIDgkhIAA1mUQA8HeioQksR6D9CjEjo7qAQAbCbvlU9PU8+UA+B1AmdAk8pUs4fJzcYAAADUsygB0TlsSqPP5awKbOBeCYCNmBpLb+wBiGBRAmA0ZWq30BkAbO8oeAbwOoEzoDl5VO30ONUMAAAAqikv8CG6pATAIKzr4/Rwsyqgn4J3CUkSYb3X2wEjf/8JnQFAHU/Bs5MLHAEeCZwBzci3A5SpZho1AAAA9nKnBATnsCktOioBa3MoGdiSQ0d0xvNK7/xWA9jfPobO7HMBoN4++iR4BiBwBjQgN2RlqpmDJQAAAADbSkoAQEAOoqOnglc4GEcQixIAo8uhs/NH6AwA6sp76lOZejYrBzAigTNgV6UJO01ezAEAANCAnz++z6pAdA6d4nlkAMJHwNZMjaUXei26Z3ItwG/fiUJnALCPo+AZMCKBM2AXppoBAADQsEUJCC4pAZ5HIBKXBmD9gjcJR9I7FwkA/L3/Ofh+BIDdCJ4BQxE4A6oz1QwAAIDG3SsBwTl0iueR0ISPAOBZUgIACLvvPagEAOzmKXh2ygM4lAOISuAMqMpUMwAAAFrnkDoDSEqA5xEIyA3/VOUmazp4RvVZdM9vNADvfkcu02PobFENANhN3nufBM+AqATOgCpyI5XT/JMDJAAAAAC789ILzyGBCR0BwCO9Fr1blADgfTl0dv4InQFAG3twwTMgHIEzYHNlqtlJJQAAAOiIw+pEl5QAzyEQiQko7OCoBDTuVgno3L0SAFy8H8qhM79pA8D+0iR4BgQicAZsxlQzAAAAOrYoAcE5fIrnkJCEjgDgWVIC9HUAw31vHlQCAJrZkwueAd0TOAM2cW6Q5slUMwAAADr188f3RRUILikBnkMgID0cVZX3YeDZBGs6QBPK79oH36MA0Iw0CZ4BHRM4A1ZVpprloNlRNQAAAOjcnRIQmRdbgLWbgO6VAACs6QAjy6Gz80foDADakibBM6BDAmfAakoTdJrcTAwAAADQg6QE7MXUDWAjixJQmQsY8WzCBn7++G6/AHD9d2kOnR1UAgCakibBM6AjAmfAKspUs5NKAAAAEIXDTQzgVgkAazfBnoFFFQAAAH7bI5l2BgDtSVMJnikF0DKBM+AqOWFfGp6kGgAAAAS0KAGBJSVgR6ZuAPo3QnAbNQ0+k7Mq0Lk7JQBYTw6dlWln9koA0J58BvvBXh5olcAZ8GnlBZqwGQAAAJHdKwGROSANBLIoAfo3dqKfAtDXATSvhM4OKgEATToKngEtEjgDPqVMNTPKFQAAgNB+/vg+qwLBJSWgNi9M2YiQEU8WJaCyWyWgMSbJ0rU8iUcVADb9jjXtDAAa3tMLngEtETgDPiTfel3CZkk1AAAAGMSiBATmgDRgvSYUh9TZQVICgNXcKQHA9numMu3M3gkA2pWDZ6d8ZlspgD0JnAEXK42LsBkAAACjMTGFyJISsANTN1idkBF/8DxQlcM/NPQszqqANRyAC/fROXR2UAkAaFY6f06CZ8CeBM6Ai5SpZieVAAAAYECLEhCZl1SAtZqAXBhAbfopgBW4RACg/vfu+XNjXw0ATUvTY/BsVgqgNoEz4J9K2CypBAAAACNy2IkBJCWgFgFHNiJcxJ/0b9R2qwQ0wiRZenanBAD7KNPOfA8DQON7/i9fvz0IngE1CZwBb8qHP3JzMjl0BAAAAF62E5kD0tSUlIANLErASy4MwPoGAAAf3kfN5z8O9tgA0LwcPDu54A+oQeAMeFVpRE4qAQAAAL8sSkBgSQmoSMCR1QkXoX8D+PV+d1YFOu/pPMMADeyvTTsDgC6k8+ckeAZsTeAM+EtuQCZhMwAAAHjmIDvROZxKRUkJWJk1mrfcKwH6KQA9HQAfZ9oZAHQjTY/Bs1kpgC0InAG/KWGzpBIAAADwl0UJAD7PLZtsRKgIAB4dlQA9HQBrMe0MALpy/PL124P3MMDaBM6AX3KTIWwGAAAA73L4icgcTqWGpARALeVGftBPMQQHyrBuA7Dxd7RpZwDQh1M5Cw6wCoEz4OkFhLAZAAAAvMPhJ4Cr3SoB1mcA2ERSAjq2KAFA83tv084AoB+pTDublQK4lsAZDO5F2AwAAAD4t0UJiMqLJypISgBU5jAk+ilGIdhPz0yUB+iEaWcA0JVjnnZmKjpwDYEzGFh56SVsBgAAAJdzCAoA2iFMBACPkhLQKxNrAbr73jbtDAD6kc6fk0uSgM8SOINB5dT6+Y+jSgAAAMCHLEpAYH4rYjNeZgJ7cICdHZgyxR59VlIFAGCP/db5czP5zRwAepCnnT34DQH4KIEzGFAJm2kaAAAA4IPy7a2qAADNrMuzKgCNSUqA5w4+xHQcgP735nna2UElAKALp3KGHOAiAmcwkJxMFzYDAACAqzkMRVimULEhE/QAvRuj9FNJFajMZD16tigBQP/yRW1l2pn9FwC0L5l2BlxK4AwGURoDYTMAAAC43qIEALA7h9iAViUlwDMHlzFJHiDc9/o8PU478/0OAO0z7Qz4J4EzGMCLsBkAAABwJYehCM4UKlZnch6wc+/mO4jaTJuiZp+VVIGOuUAAIOYeLE87y6Gzg2oAQPNMOwPeJXAGwQmbAQAAwCYcigKAHQkRAQ1LSoDnDS6yKAFA6H17Dp7dTH5LB4AemHYGvErgDAITNgMAAADgo0yjYgMm5wF7c8CR2v1UUgUqMVGPbpkgDzDM9/08PU47870PAG0z7Qz4i8AZBFWS5sJmAAAAsAFTVQBgV8JDQOuSEuBZg3ctSgAwjjLtLIfOBM8AoH2mnQHPBM4goLLQJ5UAAACATS1KQFCmUbEaE/OAFrgsAAjaZyVVoGP3SgAw5N7sKXjmIhkAaFuednby2wMgcAbBCJsBAABANQ5HAcA+FiUAGifATw1JCeiVMDiAdeD8uZkEzwCgZWl6nHZm/wYDEziDQITNAAAAoB6Ho4jMyyNWdKsEbLAGL6rAJzjICOizoA16OQCe9vfz+Y+DtQEAmnYs59OBAQmcQRDCZgAAAABAg5ISsLJFCYAeCPCjz4I3mRgPwLN8qcz5k0NngmcA0K705eu3h/MnKQWMReAMAhA2AwAAgN2YlEFURyXgWl48shEHlPmsRQmAQH3WrAr0ysR4AN5YH14GzwCANp38JgFjETiDzgmbAQAAwK4WJQB4U1ICrL20Ih9eVAUqE+AH0MsB8Im92/lzM7nsDQBadSxn14EBCJxBx4TNAAAAYF8OLhOZGwpZwa0SYO2lMZ4fIAqBRnplWi0Al+7/Z8EzAGhW+vL128P5k5QCYhM4g04JmwEAAEAzvPAGeF1SAla2KAFXcsidqgT4AfRzAFxH8AwAmnby+xfEJnAGHRI2AwAAAKACUxP4NLdashFhIa61KAEQoM+aVYFemVYLwBVriOAZALTpWM61AwEJnEFnhM0AAACgLflFtyoA/CUpARtYlIAr+zbPELXdKgHAMwEBANbY1wmeAUB70pev3x5cRgjxCJxBR4TNAAAAoFmLEhCR6QlAS4SF0LfRoaQEbMAkYqzBAAxP8AwAmnQSOoNYBM6gE8JmAAAA0LR7JQD4jYPQgL4Npl/v+JIqALg8AIDN1hfBMwBoy6mceQcCEDiDDgibAQAAQNvyS21VICihIaAVDo6xlkUJqCwpAWsxgRi9HAC8TvAMAJqShM4gBoEzaJywGQAAAHRjUQIAB6GBtpmuwg5ulQDAbyYAVNvzCZ4BQBty6Ozh/ElKAf0SOIOGCZsBAABAV+6VgIiEh4AWmCbKyhYloKKkBKzIBGJ67eWsvQDUXnsEzwCgDSehM+iXwBk0StgMAAAAurMoAcAvDkIDrXNRAFU5VAMMblECAPYieAYATTi54BL6JHAGDRI2AwAAgP64rZvAhIeAvTkUxtr0bdSWlIBrOZhFxwS9Adid4BkA7O5YzscDHRE4g8YImwEAAEDXvKwmJFM5+MCzMqsC0DoXBQCdulUCOl137REAaGpdKsGzw+QyEgCoLQmdQV8EzqAh5eBOUgkAAADo1qIEBJWUANiLQ8pAACbGoidnVIsSANCifBHJ+ZNDZ4JnAFDXr9CZyy6hDwJn0IiycEptAwAAQMdMyyAw0xTwrADRmEwLdMMhLDp2rwQAtOyP4Jl9IgDUkc4foTPogMAZNEDYDAAAAEJZlICAkhLgWWEnDnsBIXz5+m1WBfRYjMakWgA6WrNy8Gw+f24mv0UAQC1CZ9A4gTPYmbAZAAAAhOP2bkLywgfPCBCJA/BAZ0yRpUeLEgDQ636xBM8O1jMA2JzQGTRM4Ax2JGwGAAAA8Ti8TGBJCfCMsINFCYAgjkqAPovBuJAHgK6VqWc5dJY/pp4BwHaEzqBRAmewLy+WAAAAIKZFCQjIVAU8I1SXD3epAhtyYBBongNXdEwfB0AIJXj2NPXMPhIAtpFDZ7MyQFsEzmAn50UxTzZLKgEAAAAhucWbiJIS4BmhskUJgEgcmkGPxUhcHABA0PXtKXiWp55Z6wBgXcdyvh5ohMAZ7EDYDAAAAMJblICITFfAs0FlAtxsKh8UVAWgA6bI0iPTXwCIvp/MU88Opp4BwOqS0Bm0Q+AMKis3FyaVAAAAgLjc4k1gSQnwbFCR9RSIRnAIfRb6OAAI5sXUsztrIACsQugMGiFwBhWVW36PKgEAAABDcKspETkkDVQjwI2ejYCSEvARpsiijwOArta/HDw7nP96sNcEgKsJnUEDBM6gkvIywMIHAAAA41iUgICSEvAGF21hHQW4gAAR+m8G4IA9AEPLwWtTzwBgFUJnsDOBM6jHggcAAAADcZs3UTkkDVRyrwRU6tlmVaAyvRQfYcIwPVqUAAD+23PmqWcvwmcAwMcIncGOBM6gAgsdAAAADMsLZCJKSsBLX75+m1WBDSxKAAQlQITem9BcwAMAb66RT1PPDpPfPQDgI4TOYCcCZ7CxssAllQAAAAAgCIekgc05qExlLgmgpqQEXMJkYTqlhwOAf8i/efwx9cz6CQD/JnQGOxA4gw2Vm32TSgAAAMCY8o2lqkBASQn4w1EJWNmiBEBkgkTouwnsXgkA4HJl6lmeeJY/LkMBgPcJnUFlAmewkfKiyEELAAAAYFEConFIGtiYg8ro14hOL8UlvGumOy7eAYBPr6FLCZ/lqWfCZwDwNqEzqEjgDDZQDtxYzAAAAIDMoXkiSkpA9uXrt1kVgN7lg32qAABXs54CwEp71D/CZ9ZYAPid0BlUInAG23DbHAAAAPCL270J6lYJAGsnwSxKQEXeJfIuoX465cIdAFhZCZ8dSvjszt4VAJ4JnUEFAmewsrJ4JZUAAAAAILCkBBTCh0AUDskDwBVcGgAA26+1wmcA8Jvk0h7YlsAZrOi8aKXJYRsAAADgb3dKQDTltzDwHGDNJIpFCajcS82qwDtMwcM6CgC8SfgMAJ4dvbOE7QicwUrKYmU0JwAAAPCaRQkIKCnB2LzAAyL5+eO7fg0APs+kUADYbz8rfAbA6E7eWcE2/qcEsN5ipQQAm/jUrdb5B7Wt/8dWnGzpplIAgODyAeZz/6gQRHOrBMNLSsAGa+asCuxo8d1GRfl3Yd95/MX0OzpeQwGAnb38XaX0lbf2uQAMIofODi4Wg3UJnMEKzguUsBnA+94KjS09N/jl/32N///5wvUmTf/+IVB4DQCg7b5Yv0YkSQmGJ3QIRHNvfQOAj3OgDwCaXJ/np78LnwEwCKEzWJnAGVypbMZsxIAR5ab8/s9/06xv58KA2/zOmpXeWbP8sAgAUKeHFjgjlLzPsA8cmn0ka7tTAvRrDNZLzSY78grfQ+jhAIBVCZ8BMJA8ROZGGWAdAmdwhXJw3w/+QFS/vRzy0rt/n5nI9k5IzfoHAPCJfuzcXykE0aRpncnPdKbsFwH0awCAPSEA9LX3nZ/+/uJMiDMgAIRxXt9O5/XuoBJwPYEzuM5JCYDOvQyVmU7GX94Jqc2vbNTmV/47P0oCAPwu91ZJGQjkVgmG5buM1bnwCP0aeilG98bv7NB6D7eoAgB0vY7nzyx8BkAgSegM1iFwBp+UFyJVADryHCxzcIetvPFsza+soX/+Wz5UkVQQABjEvd6HYDzPAOjXQC8FjOtOCQAgBuEzAIIROoMV3CgBfFzZUAmcAS0SLCPKOpte/JNAGtDVWmwNBi7odx5UgWAObrT3XQYrWLz4pZHvtzR5B4ReCj0W+A4DAF72qfPk7AYA9q0wnP8LwN69ILetY+0CVW79M9EINACV4JGZGpnh0gA8Ao+lr5kwOYrjhx4kiA2sVeXqPqe7TzufbHADxAbccAbXT57GSZMXjUANfjeXZQUxLTk7NeurZ3E6+1sWNQGAaLL6hcakr2p4gAs9i4AajGtT291eEKilAC58bkoBALp45g+//73mMwCCeXp7dmk6gxtpOIPruSYaWMNY7I6bbjSX0b0bGtI8uwGA2jxvvIilLQcR9GXaVAJzyyKgsp9H9RpqKdRYoH4DAN75oPlsZF8GADUbL5r5IQa4noYzuMI0QUqSAApwexnc6IOGtOHsWZ42mtEAgPVldQiNSSIAZprPQy0cEIBaijVoPiTi8xIA6NhZ89lwth/D+w8AqvP2nHp6e249SAKuo1MTLn/QjJOhJ0kAC/nZYHZ+ChCwyrM+nf0ti6DATc90z3Pgwtrjf1LAMxBjGPyRveilsnFufKZZG6KkB423qLGI5m3csucIAPistk0bzWcA1Me7CLiSG87gciY/wKyF69vXs814UI9vbkY7/10dT5lNEgMA7jQeOmGtAQB+cTsGVRnXbbe7vVqNktLm77VJOjNtyIVIjFkAwFfz6jzVC8NU747/aq8FAGtL4xqMg5/gchrO4ALThMdkB7jHWKCOG2eyYhXi+aw59N2taBZHAYBr5wg2MdOS8ed5EEP73h3IAXM+FwGgZ0kEBOPAAADgYud7LjSfAbCyp7dn0YN9vHAZDWfwjWkjuQ1gwC3GgtQtZtCwD25FO68f0vSXFkoBgA/riLeaQRAA8N/8GmrjRlpK0rzPQQQEq9+MWQDA3XXE2eFW5t8AlPT09vVDDPA9DWdw2UMF4FLjJgS3mEHnNKIBABfK6gFaMm4OsOmwCzZDs8TzEAB6Z26I+g0A6M7ZevJwtp9C8xkAi3t77jy9PYceJAFf03AGXz9MBikAF9BkBlzki0a085rD4ikA9ON5Y1MhEI9xiyWeh1CdcdPbdre3TkMxmve7/uzVV6jfAADz8P/2U2g+A6CEZD0OvqfhDD4xTVpMWIDPaDIDZvNu4jqc1SJp+ntuQwOARmsAm5hpzOPvepY22QzNQrIIAOicGgv1GwDAmfPms/Gvp0N87ZsAYG6Pb88Y+4DhCxrO4IuHiAiAdzSZAcVccBuaxVQAaEP2TAcCMV6x1PwXajWuCXtfRCma9/t1EAHqNwCAL+uPP3MlzWcAzGxckzPPhU9oOIMPTJMSExJgMxWSz67NBWrx0Xh01oT2exIMAMTxvLEGQUPG2tQcumk2QwMAzM+ckEiOIgAA1qT5DICZpbfnydPb8+VBFPCvHyKAv709NMbJx5MkoHtHG+SABmqa8cviKqghgPqf2/+TAp6FGK8wZoCxD4yLXY4xaePdNLE8uOEMAKi4th6/HNILgPkuzMQNZ/AvEw7o11gsHhWNQAumseyv8ezsJjRNaAAALGVcWxvE0J5pwwYAAPNSYxGK96gAQOV1yvg1aD4D4AZPb88PTWfwjoYzODNtwk6SgO44MRTowkdjnSY0AKhjTrLx0hOon/kCReapoFajcwcR+Myh8mciAED1Pmk+sycCgO88bt4d8A6903AG/z4ogD6MReGzTS1A796Pg2eLrWojACg7P/HcpRnjoQbm2wAAN0ki8JlDxbIIAIBozprPfpoO5dV8BsBHkvec8LcfIoA/E4knkwjoQt78utEsiwLg4jrp9yTaoit8z82pwK3P2/9JAc9DjFMYK8AYCG8evMPoZmwZn4MOHyGMt7HJHiMAoMWa3D4IAN6zPgcTN5zB5p+bPIA2Hd++siIQ4Hpf3IJm4RUA5p2z2GhIK8af5UEMAAA3SRu3CAH1MS4BAM053wtxtg/CuxoAHs2D4RcNZ/DfgwFok5OSAWY2Ne/+Nak+uwVNXQUAAI05q/dhzrmlnysiyRuH7lDOQQTdsJZKJM8iAABadrYPYtB8BtC9NL4b8x4DNpv/JwJ6N22WSJKA5oyNZj8UfABljOPt9DWOvT82TnkBgKufpVKgJRqUAGiMTfaUlEQA1Ma6BQDQWe2Tf+9/ePvLh7ev48YeCIDePE4NyNA1DWfgFApojUYzgDrYiAUA18siACplDZW5HUWAOg0+ZzNLF5/xIAU8BwEA6nfWfPYwNaBpPgPoh/djdE/DGV3b7vZPUoBmaDQDAACi07BNS7yAAaAZ4+YyKVBYEgFQEesVAAATzWcAXUkODaJ3Gs7o1nQyYJIEhJc1mgEAAC0wrwFq5EUaC8kiwM8t0DkHNBCG9QoAgM/rpHfNZ0epADTnceo5gC5pOKPrB4AIILT89jVO2B9EAQAAAPXRqAR8xm1RBOV2F0ryHhOohboNAOACU/PZMDWfjfvZNJ8BtMNaHd3ScEaX3G4GoeXN1GhmYwoAANAgLyCB2hxEwMyyCPCzC/TMwQwEo+EaAOBK4542zWcATUnWc+iVhjN69SQCCOmo0QwAAGic+Q4tcdpfG5IImJlNy4RkXZrSbGIBKuH5BwBwh/Pms6kB7ajGAgjpcbrwBrryfyKgN17OQEjjxPtBDAAAQOvGF4/b3V4QQBW8OGMhWQQE//k1NgL3cjADYWi4BgCYvb4afv/7aS/rYWOtASCKcU3HPJmuuOGMXgd7IIaxMHvQbAYAAHTmKAJa4fCn8JIImJtNywTnhj5K8k4TWJv1CQCABU03nz2c3Xym/gKoW/Luk95oOKMrb4P8kxQgjOM0oc6iAAAAOmMeBNTiIAI848DPMDAfm5Lw3AMA4CNT89kwNZ+Nh7NrPgOok0Oi6IqGM7qx3e3Txom8EEHe/LrVbBAFAADQIwdv0BgvXWJLImBmbodCnQZX0JwEeO4BAPRZh2k+A6iXC3DoiYYzemJzC9TPrWYAAAC/mBcBq5oO8ALPN/BzDMzLO2uisKkZAKAC581nUwPaWKdlyQCsKnmPRi80nNEFt5tB9cZJsFvNAAAA/uMGGJrhZo6wkgiYm4OmUKfB1Q4iaKouVl8RiboNAKBCU/PZg+YzgNU5VIguaDjDoA6sza1mAAAA7ziQA4AGZRHgZxmulkTg84Q1eHcLABCiZnvffOaWWoBykkM36YGGM5rndjOoVt641QwAAOC7eRO0wGFQPjcYuRWKJtiAT2luxWqKG+uIwrMOACCYqflsmJrPHjaazwBK8C6N5mk4w2AOrCG71QwAAOBbNubTDBulAQBupo7yWUJp1iMAAAIb9+RpPgMoY7vbP0mBlmk4o/VBPG0s3ENtxkazBzEAAAB8K4uAhiQRxLHd7QcpMLdxk4sUaIiNWpTkVqw26iv1MOo2AADWqO0+aj7LkgGYTbLuQ8v+TwQ0zu1mUI9xonp0qxkAAMBlxvnTdrcXBK2wURoA4DZJBD5HKCiLAACgTdO+vT/13nTw2MF8BeBuj+bTtMoNZzTL7WZQlfGklAfNZgAAAFdzewatSCIIxUFeeJ7BF9z8QmlOSW6CAxiI4lkEAAB9mG4+e5huP3PzGcDt3HJGszSc0TKbIqAO46T0QQwAAAA3ySKgFV60AADcTB3lM4QiNFUDAPRbB541n417/RwgBXCdJxHQIg1nNMntZlANt5oBAADcwZyKxiQR1G+72w9SYIHnmZ8rWmTjFXBpfaUOJoosAgAAxndTUwOa5jOAK3jHRos0nNEqt5vBuvJGsxkAAMCccyxowUEEAAA38e4ztiQCgngWAQAA5z5pPsuSAfiQNTyao+GM5rjdDFaXp+u1TSwBAADmYcMXrUgiCEFjIHNzAjJNcnMfoL6iQVkEAAB85qz57GFqQNN8BvCOW85ojYYzWqQ7GNbzs9lMDAAAAPOxmZmWTIdFUTefEQDUWUeZF6ivYFEOFAUA4Mr6UfMZwL/0MdAUDWc0xe1msKqjZjMAAIDFZBHQiCSCemkIZAkap2mcG/wA9RWeaQAAdO9d89mD+hLo2Xa3f5ICrdBwRmt0BcM6HmwcAQAAWNSzCGjEQQRVSyIAgGp5D6q+giVlEQAAMIfx5typAU3zGdCr5BAiWqHhjGa43QxWMzabZTEAAAAsxyEfNCSJoGoaAplbFgFqNEB9BSGeaeo2AAAWqTM/aD5TewI9cHgUTdBwRkuSCKA4zWYAAADAVZzoVzWfDXNzQyeAOkp9BfVz4wQAAIs7az57mBrQNJ8BLXPLGU3QcEZLdAJDWZrNAAAAyrIBjFYkEdTHSy8WkkWAGg3UUR3XV4MUULMBAMDHNJ8BHdDbQHgazmiCxXooTrMZAABAeeZhtOIggiolETA3a4gA6ihAzQYAABfUpJrPgBa55YzwNJzRCh3AUI5mMwAAgBWYi9GQJALogucWftZBHdU777DxHAMAgCtpPgMaY32I0DScEZ7bzaAozWYAAADrOoqAFjjNr0peeDG3ZxHQA2vmqKMANRsAACxD8xnQALecEZqGM1pwEAEUodkMAAAAmEsSATQviwA/76CO6pVDU4li3MArBQAAotSums+AoBz6SFgazght6vhNkoDFaTYDAACogI1gNMQhUhWxIZqFnllZCnTE7TCoo4CI1GsAAIT0u/ns7d+OX0eJAJVzyxlhaTgjOh2/sDzNZgAAAHUxR6MFSQTgWQV+5kEd1TDvsYlAwzQAAKGN+xqn5rPx1jPNZ0DNrBURkoYzoksigEVpNgMAAKiPDWE0wUl+VfGSC88quIN1dACCPr8GKQAA0FB9+775LEsFqEgSARFpOCOs7W4/SAEWpdkMAACgQjaE0ZAkAmhWFgF+7mE53pP6fAAAAPjc1Hz2MDWfjbeeZakAa7NmREQazojMqbuwnKNmMwAAAGBhBxGsz8stlmBtkU652Q+ASI4iAACgB9OtZ+ONZw/qYGBleh8IR8MZIdkEAYvKTssHAAConhditCCJAICGZBFQkM0pPh/w3AIAgCtMt54N061nD2piYA16IIhGwxlROf0YlpGn0zwAAACofP4mAlqw3e2TFFZnrZW5aYqmS272A8BzCwAA4tTD4z7JqfnMeiZQkoOKCEXDGeFMm1CSJGB2ms0AAACCsDGMhiQR+AwAGqJGoxinIftc4A421AIAwMStZ0Bp1o+IRMMZESURwCK8WAAAADCPg9LcrrUiN8yxhHGDhhTo2LMIQH0rAgLIIgAAgL99cOuZuhlYivUjwtBwRkSukoT5PTgdHwAAIBzzOFqQRCB/APUZ3MQ7U/UV3MR7YQAA+LZmHm89G288c+sZsITkUEii0HBGKK6QhEUcvVQAAACIx1yOVnihsionKDI3t2+iPgPUtaBeAwCAJnxw6xnAXBwmRQgazojGBgiY1zghGsQAAAAQd14nAhqQRCB7APUZXE+Dk9oKAACAMqZbz8bGM7eeAXNIIiACDWcYXKHvSdCDFAAAAEJ7FgENcMjUCmxQZwkOtwL1GcV5nqtrQb0GAABla+o87bscv9x6Btxsu9ubo1M9DWcYVKFfms0AAACCs1GMRiQRyB0AuIkGJ/UVXCOLAAAA5jE1nv2+9UzjGXCLRxFQOw1nGFShT8dxwiMGAACAJpjfEZ7btqAJNlXAxoEAFKeGUs/CNdzCCQAACzhrPBsvAcgSAS7lQh5qp+GMKINpkgLMJnvhDQAA0BQbxmhBEkFxDvgCgAZ4j6qehUt5RwwAAIvX3OPezLHpbPxyQBdwiYMIqJmGM6JIIoDZJjUPUgAAAGhKFgEN0PwEnkfQEhuKKCmJoAo2B6FWAwAAfpoaz37femadCPhKcqAUNdNwRhQ2nMA8NJsBAAA0ZnxpJQXgGtvdfpACnkcAzdDoVIckAirndnQAAFiBxjPgAkkE1ErDGdXTtQuzyTZ9AAAANMtLKsLTBAWhZRHAf8aNRFKgoCSC1etYnwGeTQAAwLc1+dR4Nl4akCUCnHExD9XScEYESQQwy4TF7WYAAADtyiIAruDFFXNzYwYAPUsiAAAA4BLjpQHTXk6NZ8AfDuakVhrOiMDmB7ifZjMAAICGudGaRlgHhLg8h+BfbqClGBtSVncQAZ5JAADANTSeAe9YX6JKGs6o2na3T1KAu2UbDwEAAPqY/4kA+I4N6SzB+iMAnUsioHJqNQAAqJTGM2CSRECNNJxh8IT2JyRuNwMAAOjDswiITjMUhJRFAP96fTl5plGSm2LXq1+TFAjwTFKvAQBAgLpd4xn0zXtSaqThjNp5OQL30WwGAADQCZuagQsdRMDMNDwD0LMkAip3FAEAAMSh8Qy6pm+C6mg4o1pOg4O7ZafVAQAA9DcXFAHBeZGyvCQCPHugGJv8KcYJyOpXUKsBAEA7NJ5Bn/RPUBsNZ9TMgAn38SIbAACgP26ZAT7lJRVLcOgVAIBaDQAAWK6m13gGXUkioCYazqiZ0+DgdkcvDwAAAPrzNhccpEB0budYVBIBM8siALUZ1fBuVd0K7zmgFAAAGqHxDLphjY+qaDijSk7ahbsnF4MUAAAAAHjnIAJm5mZNAAAAAIBCzhrPHDABjdJHQU00nFErAyXc7kEEAAAAXfOCieic3LecJAKA4rIIKMVmFHUrnHNIKQAAtF3vv3392HgvCC1KIqAWGs6olcV5uM14ekUWAwAAQN9zQxEA79mAzhJsYoaLuAmQkjzvgd+yCAAAoH1njWfmANAOfRRUQ8MZ1bHxAe7itAoAAIDOOYiEFmx3+0EKs0siAFiF2oySDiJQr8JEwzMAAHTk9eX08PYv41eWBsSnn4JaaDijRgZIuI3bzQAAAPjNgSQAeNZABazbU1gSATA9fwYpAABAd/OAfNZ4BsSWREANNJxRIyfvwW1s8AAAAABa8SgCmQI0JIuAUpx+rLYCzx0AAOjb1Hj2Y2NPKURm7YkqaDijRkkEcDW3mwEAAPCHk8wB8KyBqjyLgIKSCMBzRwQAAMC0hjvedpalAfE4WIoaaDijtoFxkALcNDFwBTIAAADvZREQmbVCWQKoy+AmBxGoreibgwEAAICz+UGe9pfaYwrxJBGwNg1n1MYLELiea48BAAD4iBPNAViKNUm4wrixRwoUlEQAAAAAnJsaz35sHIwEkTyKgLVpOKM2SQRw9URgkAIAAADmizTISxRZArQkiwDUVlCAgwEAAIBPnd12lqUB9dvu9kkKrEnDGQZEiE3RDwAAAAAUpakZbuL2WYrZ7vbG6eWyTVKgclkEAADAV6bbzsamMwdWQP2SCFiThjMMiBCbgh+AWjnlFwDMG+FuNkvLEKAhWQTQhCQCajZuHJUCAABw4fxh2LjtDGp3EAFr0nCGARHiyl4YAAAA8N3cUQQAeLbA+qznU5jDoJbjnTY1c+gMAABwFbedQfWSCFiThjMMiBCXAh8AAIAv2dhMA2yWvp9N0cztWQRwM7UZxJdEgOcMAADQmrPbzoDKbHf7QQqsRcMZBkKIye1mAAAAXMqBJdC3JAJmlkUAN9OwSTHevy6SqbqKqnl/DAAA3DunePv6sbEGDMBEwxlATDYLAgAAcKksAiKzWfqu7JIUmJuNzKAug46praiZ98cAAMAsXl9O401nbjuDejyKgLVoOMNACDEL+iwFAAAAzCGBbyQRMDPPFFCXEYf3r/M7iAAAAIAeTOtYY9NZlgaszyGTrEXDGUA8TqcDAADgWlkEBGaz9O1simZuzyIAoGNJBNTq9eU0SAEAAJh5npGn286yNGB1SQSsQcMZq9vu9oMU4Koi3u8MAAAA19IgAH1KImBmWQRwN4fKUYyTj2WJGg0AAOBeU9PZgyRgVQ6ZZBUazgBi8SIaAACAqzm8hOgcWnVTZkkKLPA8yVIACEU9IEv64JAZAABgUdPasKYzWE8SAWvQcEYNHkUAF8siAAAAwJySDjm173pJBHiOQH0cBIAaSpbg2QIAAASde+S3rx8ba8WwCodNsgYNZwBxZCcIAxBkcjtIAQCq5MRzIksiAM8RANRQsoR/ZBEAAAAlvb6cHsxFYBVJBJSm4YxV2YwMV7GhAwAAgHtkERCZU/uu9igCPEegWkcRoIaSIczEO2QAAKC4qenMGheUdRABpWk4A4hToA9SAAAA4I55ZZYCwSURgOcIAGooGcJfNdogBQAAYMX5yIMkoJgkAkrTcMbadNrCZbIIAAAAmIGTBonMWuKFtrv9IAWAemkOQA0lQwAAAGjBdFCZpjMoZLvbJylQkoYz1mbQg8s8iwAAAIAZZBEQWBIBrEbDMoAaSoagRgMAAPiHpjMoKomAkjScsRodtnBVQT5IAQAAgBnml1kKRGZN8WKPIgConiYBiFF/DlKgYub4AABAFTSdQTEHEVCShjPWlEQAF/HSGQAAgDllERBYEgGU50AsgNg0TUGzNZr5PQAAUNscRdMZLCuJgJI0nAHUL4sAgGCcpAIAdXsWAWrNdtlQDhCDRk4Iw82x1MqhpQAAQHU0ncHytrt9kgKlaDhjTRbn4fICHAAiMakFgLrnmYMUUGsCV7CZGSA+72WhPVkEAABAjTSdweKSCChFwxlA3WzmAAAAYAlZBETl1L5vuQUOIA7vAKDuunOQArVyaCkAABBgzqLpDCA4DWeswqYQuFgWAQAAAAt4FgGBJRHIh3LcjAnQBs1T0BQNywAAQPU0ncFiHkVAKRrOWEsSAVxccAMAAMDc881BCgTmBq9POOgLIJwsAqiazTsAAABwB01nALFpOAOoVxYBAAAAwD+SCGRDMW7PgAU5dI7CNE9BO8+PQQoAAECgOUzeaDqDWTmEklI0nLEWLzTge88iAMBkFgBYkCYC1J3tcfsbQDxZBFBlvTlIAc8NAACAeUxNZ95NwnySCChBwxlAvQX2IAUATGYBgAVlEaDulAt4VsDqHD5HMZr2wXMDAABgLdOe2CwJgDg0nFGcFxlwEUU1AAAAi5pOEoSo3OT1jnVXPCsgLL9nlKReuNyjCKi0PhukAAAABJ7TPGysh8EcrF1RhIYz1pBEAN9yMh0AAAAlHEVAUEkEMmFxWQSwPI2dFKZpH9RnAAAAq5qazgAIQMMZQJ2yCAAAAAA+50YvWJxDsaCcLAIKUT9dVmcOUkB9BgAAsChNZ3An70opQcMZa3CFI3zDiaYABOaUZACINf8cpEBgSQR/se7K3LIIoBgNBBRjIwqYwwMAAFQwv8kbTWdwryQClqbhDKA+WQQAmMgCAOah8C2HHcCCHIoF6jGalUTwLY38AAAAsLBpDTpLAqBeGs4A6uMkUwAAAMxD4XtJBL9sd/tBCswsiwDK0eBJYZr2v66r1JjU6igCAACgNa8vp/GWsywJuIl1Phan4YyibHyAiyieAQAAKOb15TRIgahsCIbFaEaG8rIIKET9JB88JwAAAGrigA24TRIBS9NwBlAZJ5kCAACwAnNRokoi+OlRBHguQHgaPaEOToamSt4hAwAAjc93NJ0BVEjDGUBdsggAiMrtEgAQmg3ORGVDMCzAhmZYhd87itnu9oMUPpVEQIVsvAQAAJr2+nIaNtbH4Gr267E0DWeU5qRd+JoNfgBEZgILAHFlEaAGjcmGcTwToA0aPaGKuipJAfUZAADAahy2AddLImBJGs4A6pJFAAAAQGk2OBOZjcEwO4diwXrUZJTikNCPqSsxZwcAAFh37qPpDKAiGs4A6iuYAQAAYA1e4BBV6vzPf/AjANAMDZ+grgJzdQAAoFuvL6dh41AmuIb1LBal4YxinDQMAGACCwBULYsAdWhIyY8Ac5pe6APQuO1ub7xXVwEAAECNHLwBl0siYEkazjCggSIZANR7AIBbt1GHBuSQL4Dm6rFBCqCuAs8GAACg83lQ3jgoE6AKGs4AAAAAgN+yCIio4w3CyafPzByKBdCPRxGoqzBHBwAAqNHry+lBCgDr03BGSQcRwJeyCAAAAFjZswgIKnX657bmCtAejZ+grgJzdAAAAOtkcJGOD+akAA1nlGQwgy9M1wADQNSJ6yAFAGhibuqZTlS93tCRfPR4DgBwK5tR1FWozQAAACqfE2VJwLeSCFiKhjMAAAAA4FwWAdTPBnGANmkuoDD1hLoKc3MAAICaueUMYEUazgDqkEUAAABAJZ5FQEQd3rqbfOrMzIt7gP4cRKCuwtwcAACgVq8vp7yxvxZgNRrOKMKpcPAtLwwAiM7mFABoRxYBAMCqNIBSShLBT48ioDZuvAQAAPjDWhl8zb49FqPhjFKSCAAA1HsAQP2mkwIhokd/Xrhr/B+kANAfB4cCAAAANXPLGXwriYClaDgDqKMgHqQAAABARZwUCACwEu8MKCz1/Iff7vZ+3zAnBwAAME8C4AMazgAAAACA97IIiKiXDcM2RmPcB2BGBxGA2gwAAKBmbjkDWIeGM0rxogIAoFE2uwJAe6aXNgD041kEUB2nNlNK6vzP/+hHAHNyAACAEKyXARSm4YxSkgjgU1kEAAAAVMhLGyJ69OeEm2QRAACYiwMAANTKLWfwOQfGsxQNZwDrc3owAAAAALAat2hAlb+XgxQopdcNKTbiUCl1GQAAwOfstwUoSMMZAABwL7crAECDbHImqtY3DtsYzQKyCAAAqpmLq80AAAA+nzMNUgAoR8MZAAAAAPCZLAKA5jkRFtRi8OjPDVU4igAAAMDcCaAWGs5YnBN34WtOXAAAAKBimhCIqPWNwwcfMTPLIgC1GAAAAABEYM8tQDkazgAAgJs5XAAA2uaFDVQpiYCZx/osBaiW30+K6W2dz7om5uAAAAChZRHAXxxYySI0nAEAAAAA0JRWNxC//bmST5eZZRFAvTSEAqjLAAAA+NCzCOAvSQQsQcMZAAAAAPCVowigGkkEzMxLeahfFgGF9HYK8qOPHHUZAABATG6IBihDwxnAurIIAAjOxgwAMHcFdWo5Bx8txnjojgYESkkigPXYLAkAAHA1h2YCLEzDGSXYhAyf86IYAACAqr2+nLIUoBpJBBjjoTt+Tylmu9unTv6cg08bYz0AAIC5FABf03AGAADcpJcNKADAT04IJGK9Oqi/AYhOYyiF9VJvuDWW2jikFAAA4ErWzQCWp+EMAAC4VRIBAACovwlLMzHEkUVAIb00YqmrqMrry2mQAgAAwE2scwMsSMMZAAAAAPAlm98I6rGxP4+bOAD65eYbSkmt/wHdGgsAAABNySKAX6x7sQQNZwCKXQC41aMIAMAcFigmiYA5aSYGdRh8pIONKWoqauM0fgAAgBu9vpyyFOCPJALmpuEMQLELAAAAl3CzBuFsd/tBCgBE510ChaXG/3xujaU2xngAAADzKoAqaThjUa5mBABQ5wEAbXATDqxaf/v9Y25u0oB4sghgFkkEVDbXNr4DAADcx6GZAAvRcMbSkggAANR5AEAzsggI5lEEADTCxhnUT3dyiBYVcggAAADAnRyaCbAcDWcAAMAtDiIAgC7Z6Azr0DjHrLyAB6BTSQRUJosAAAAAgFppOAMAAG6RRAAAXcoiIJrtbj9IAYDoNIqifpqFQ7SobWw3xwYAAJiHG6QBFqDhDAAAAAC4iM1wUJ6GORbgxTsAvUoioCLm1wAAAABUTcMZAABwFRteAaB7GhWI5lEEAKjDoO/6abvbJx8rlXkWAQAAwDxeX06DFADmp+EMYD1eDAMAABBRFgHRBN9grGEO4zgA3C+JgJrYDAkAAABA7TScAQAA17LhFQA69vpyylIgoCQCMI5DA7+/gxQoZbvbt/bzdvCpUhH1GAAAwPxcAgEwMw1nLM3CPQAAAEB7sggIJuQ6ZfCb2TB+A0BN1FXU5FkEAAAAANROwxlLSyIAAGhHgycbAwC3sTmOaJLvG4zf0AgnNVNKMweLauKnNm6sBAAAWEQWAcC8NJwBAAAAAFexOY6Igm40PvjkmFkWAQAXSv4soB4DAACI4vXlZL4FMDMNZwAAwDUeRQAATLIICCb5numdF+7QxO/xIAVKaehmMGua1MSNswAAAACEoOEMAAAAALiFTXJEE+q2sIY2eFOPLAIArqQeATUZAABAJEcRAMxHwxkAAHCR7W4/SAEAOJNFQDDJ90vnNApDO2ycoZRD9D+ANU1q48ZZAAAAAKLQcAYAAFzqIAIA4Deb5Igo2K1h6m/mZtwG4FpJBDArDcMAAAAAhKHhDAAAuFQSAQDwjs1yqGl9rwShURia+n0epEApwRr2P/LoU6Qi6jEAAIAFWTcDmJeGMwAA4FsNbCwBAJaRRUAwbg3DeA0A10kigHk4AAAAAACASDScAQAAl0giAADes1kOde0ytrv94KNiZs8igOa4aRbUVBi3AQAAAGAxGs4AAIBLPIoAAPiETXOE4vZeAICrWBeEeWQRAAAAABCJhjMAAAAAAHqSAnyPNnYzq9eX0yAFaE4WAaipCFWPGbcBAADKcFgmwEw0nAEAAF/a7vaDFACAz2hiIKCDCABooAbLUqAU64NwN2M2AAAAAOFoOAMAAL5jQy4A8J0sAgJJNX9zNnSzAKe5ghoMuqOmojLPIgAAAAAgGg1nAADAd5IIAIBv2DxHKNvdXo0LgBoMLvcoAridm8EBAAAAiEjDGQAA8CknAQMAl7B5joBSxd+bDd0Yo4FLZRGAmgpjNQAAAAAsQcMZAADwlYMIAABQ5wJAfV5fTlkKlBLpYCq32VIZt1ECAAAU5BA2gPloOAMAAL6SRAAAXOgoAtS597E5GmMzcIMsAohR69EnGx0BAAAAiErDGQAA8KFIpxYDAFXIIiBYvZsq/LaSTwaAK7k5h1IOvlcwTwYAAACgHxrOWIwNygAA4dmYAQBc7PXllKVAMEkNTgdj8yAFaJ4ajJ5rpxa+V9qmKRgAAACAsDScAQAAn0kiAACudBQBgdTY3KUGB+Aqmv4pqdIbYsN9j3TFGA0AAABAWBrOAACAf7itFgCADqTKavDkI2FmWQTg9x1arp8Cf490QlMwAAAAAJFpOAMAAD5yEAH43QG41uvLaZACkVTW5JV8IszsWQTg9x1mdvA9wsXcAA4AAABAaBrOWFIWAQBAPNOm2yQJuInfHQBrQnh238rmaIzHgN931E59fI8YmwEAAACgehrOWMzryylLAb5kExEAtUoiAADu4IYNIqlpfUYdzqys0YPfd1hCZTfEhvneMDYDAAAAQDQazgDWk0QAQKUeRQAA3Or15TRIgUCSCGhUFgEAHdZPajtqcRQBAAAAANFpOAMAAP7Y7vaDFACAGWQREKgGTupwGuS2SeiP5gao6/ZazIkBAAAAinEwLEvQcAYAAJyzKQMAmINGByJJIqBBWQQALORRXQdfe305qcUAAAAACE/DGQAA8NN0s0OSBAAwgywCAqnh0IVHHwNzsskZuvy9H6RAz2q4tRbMhwEAAABoiYYzAADgtyQCAGAOGh1QB8OqjMEALGq72w9qOviUG78BAAAAaIKGMwAA4De3KgAAczqKgCjW3DRd6YZtYrPJGdRf0KODCKiBGycBAAAAaIWGMwAAwCZXAGAJWQQAxl8AmlTjwVXJx4I6DAAAAADmo+EMYEXb3T5JAYBKuN0M5qvxBikA/DzVPUsB9bBaHOMvUPT333yULlmLoSJumgUAAACgGRrOANaVRADA2jRAAwALyiIAAID2aPKCf2n8BQAAAFaSRcASNJwBAABuVAAAluJ0d8JYY9O0wx9YwFEEYBwQAR2yvkkNsggAAACAlXgvzyI0nAEAQMemDa5JEgDAEpzuDt9SiwMAUR1EAH+xsQsAAACApmg4AwCAvjn9FwBYWhYBauNP2ajNrDT6AsYBCko1fBNr3FIL5r4AAAAA9EDDGQAAdMrtZgBAIU55h8+pxwGAsKb1RWDzs+E3SwEAAACAlmg4A1iXW2UA8BwCAFqXRUAUJW/IsEGbBRxFABgPKKyGesYaJ8ZdAAAA/vD+BWA+Gs4AAKBDbjeDRdnoBHDGKe/wKfU4ABDdQQTwk3kvAABAPZII6FAWAUvQcAYAAH3SEAMAlOS0d9TJ/7JBm1m9vpwGKQDGAwpLa/6fl7ydFr4Zd7MUAAAAgLVYm2ApGs4AAKAzbjcDAFaQRQD/UJMDAOFNa43QMwesAAAAANAkDWcsLYsAvuZFHAArcLsZAFCUE9WIxE0ZBGWjM/Ce+otS0or/39Y5Md4CAAAAwEI0nLG0ZxHAt5IIACjF7WYAwIo0Q8B/dfkgBQAW5h0dQAEOWAEAAACgVRrOAACgL079BQAANTPtySIAjAv0VDtp4MdYCwAAwCe856E3WQQsRcMZAAB0wu1mUPT3bZACwN9eX07GRviPl53MPcZmKQDGBTpzEAEVcJskAAAAsDbrEyxGwxnA+rwQA6AUm1oBgLVlERCB5nGMrYDxAaqvnZLkWZuDVQAAAABomYYzgPUlEQCwNLebAQCVcLoaanPNbBhbAeMD3FtPJSlQgSwCAAAAAFqm4QwAAPrwJAIAYG1OfycQtwMTSRYBYHygs9opiZwKaOoFAACojEP/6FQWAUvRcAYAAI2zmAIAAFXRzMasXl9OWQqA8YHOHERABWPsIAUAAABgbdaBWZKGM4AKaAQAYGE2tILfO4CaHEVABNZrCCKLADBO0GHtlCSOsRUAAAAAlqXhjEU51QsAYF3b3f5JCgBAZbII6Lg+T1JgZs8iAIwTqKfA2AoAAMBPbkUHmJGGMwAAaNS0+SJJAgCoyevLKUuBIJa4sVR9ztyMqYBxglqU2tClnsLYCgAAwGeSCOhMFgFL0nAGUIdHEQDg+QIAdOQoAjrlZE1mpYkXME5QkaSewtgKAAAAUJRb2FmUhjMAAGjQdrcfNk7tgRp+DwEAz/NzanTmlEUAGC+orHYqUeuop1ibA1QAAAAqZI8GwPw0nAHUU+wmKQAwI7ebAQDVen05DVKgN9Z+WIBTKwHjBbVZtN5RT1GJLAIAAAAAeqDhDKAeSQQAzGG72z9JAQAIIIuAAOY8yCGJEwBo3GHhf756itW9vpzMZQEAAOp0EAG9cdArS9NwRglZBAAAZUyn/CZJAAABuGmD3njRyay8RASMF1Qoqado3FEEAAAA1UoiAJiXhjNKsHkILuMlGQBzcLsZ1ONRBACfs/GZKLa7/Vw/q0maAEAHtdOSNY96irVlEQAAAADQCw1nAPVIIgDgHtvdXrMZABBNFgHATdyuARg3qFVa4h+6cCMbXOT15WQOCwAAUKEZDw+ESLIIWJqGM4C6it4kBQDueIZ4jgAA0TyLgADuvrXUi04AgLslEbCyLAIAAACgIt61szgNZwB1SSIA4EZuNwMAIsoiIAKHBFGb15fTIAXAuEGlHoP9c+FSNnEBAADUy7oBwAI0nFFCFgEAwHK2u71mM6j393OQAsDnXl9OWQoEke7833vRCQAAseevgxQAAACAimQRsDQNZyzOxiG4is1HAFxlumkhSQIACOwoAgI4iADjJmD8gMvMfQCPA32oQBYBAABAnawb0Cs9GpSg4QwAAIKams3cbgYARJdFQADpjrp9EB8AAIT2LAIAAAAAeqPhDKAyNiEBcAU3Y4LfU4DwnLxGFNOBD1DDuDlIATB+ULnHyv95YPwEAABoh3UDepRFQAkazgAAIKCpQTlJAgBoRBYBAdxaf3vRCQAA5qsAAADMzGGBdMxt7BSh4YxSsgjgYjYhAfClabHE8wIAaIkFcSI4iIAKZBEAdzqKgBKmA7Oq+eeA+SoAAECTkggAlqPhjFIswgIAzOdJBBCHjVEA33t9ORkriSDdUAcksTEza+0AAGVlEQAAAFTLgd10yft1StFwBlAhm5IB+OIZodkMAGhVFgEB6vF05f8kSQ1jJVATGxEoaK7bYW0cY+1xU/0FAAAAQJc0nAEAQBBTs1mSBADQKLf2EMG19fhBZMzJhmcAGq6boEZHEQAAANTJxQ50LIuAUjScYWCDOjmtEYC/TDcpJEmA2g6gYVkEBHBtA5kaHuMkUCMNFBRxw+2w7//3gxRRfwEAAPAJh/7RKwe5UoyGM4pw6ioAwO2mjRlPkgAAWmb9iCDSlXU8zMkLRACarZ3APBUAAIBLObgboAwNZwD1FsSDFACYuB0JAOiF2zao3hWNZElazCyLADCeEMy9J41bF8X8FAAAgI8kEdCr15fTIAVK0XAGUC/X/QIwbmYdbzZLkoDwv8uDFAAukkVAAJfW59Z2mJUbNgDjCQ3XTWB+CgAAwDUcUgNQgIYzSsoigKskEQD0TbMZANAbm58J4tJGMrU8czI+AsYVQrridtj3/7tBepifAgAA8N6taw3QiCwCStJwRknPIoCrC+NBCgDdPgPSxgZVaIkbTgAudxQBlVOnswbr64Bxhd5qJ2sprCmLAAAAoFpuN6Nn1nUpSsMZAABUZmo2e5IENCWJAACaq9m/+s8HKTGzLALAuEJnkghYkc1bAAAA9UoioGNZBJSk4Qygbk5iAOiMZjMAoHevL6dBCgSQREDhsTFLATCuENTV77q+a+4H81IAAIA+OfCP3lnXpTQNZ5Qc4Dzk4bYCOUkBoCuazaDdus6cCOByWQRU7vDNf+4QIQDUXHC7JAKMjQAAAHzA+xeAgjScAdQviQCgD9vdXrMZAMAvzyKgckkEFHQUAaDmIrIbDuE5SA1jIwAAAOdc3gDeF1GehjOA+jmRAaADU7NZkgSo6wDYbF5fToMUCFDDp0/+vp9fAKLIIqBSSQSYjwIAAPCOPRcAhWk4o7QsAriekxkAmh/nNZsBAEA8aniKsOkZWHB8yVKgkIs3hHknxsqMiwAAABWa1guSJOiZ90WsQcMZpT2LAG7iZAaARmk2g+5+5/2+A1zuKAIqd/jk71vHASCSLAIqk0TAiuxnAAAAqJN3LwAr0HAGEEMSAUB7NJuBug6AL2UR4LkOmm+BxWmuoIgrDuE5SAvzUAAAAH5zuxn85H0Rq9BwRmlZBHBz0TxIAaCpcT1tLIZAj2yaArjQ68spS4Egdf2nfw0AAai5KCXN/N8D81AAAIA+uN0MYCUazijKAi3cxeZkgEZMm1CfJAFdSiIAuIqT2oj2bPesZ1avL6dBCsDC40yWAoV8+55L8z7mnwAAAJxzoDf84n0Ra9FwBhBH8qINID7NZoCaDuAqWQRU7vDNXwMA8Eua6b8D5p8AAAD9cLsZwIo0nLGGLAK4WRIBQFyazQA1HcB13LhBwOe65zxzcssGYLyhKRccwqN5H/NPAAAAfnK7Gfxh/ZbVaDhjDc8igJs5rQEgKM1mwBmbpwCuk0VAgFrfLaYAAN9Ld/7nsBQbtwAAAOpjvyzAyjScAQSz3e0HKQCEG7vTRrMZ8J8kAoCrOLyIKM92z3jmlkUAlPD6chqkQCGfHsLj/RfqLgAAAH5zuxn8x/ota9JwxhqyCOAubsQACESzGfDF2ADABSygE8Dh3b/CXONflgIAjUkiQN0FAADABdxuBr9kEbAmDWcUZ7EW7pZsUAaIQbMZ8P/Zu7ckN5r0PMDJ0b8C3flKdnAFXACjCzvRrKQLO7FWguzgArgCRsi60p2WQCO7Cz/R3TgUgDrk4Xki2pxR2B7N97Oz3jx8mZcynRIA3CQqAQV8133fMe4BJdsqAStzkAy5CwAAgMMr6J1KwKsXJWBNGs4AymTTDSBzms0AeQ5gUhbSyT3/96qAcQ8A5CbkLgAAAB7mPAX8EZWANWk4Yy1uSYTHeOUMIGOazQAAJheVgMzZ/MS4BxTt188fvSqwFk1oGP8AAABIvn777rwVHPn180dUBdak4QygXJ0SAORHsxlww3jRqwLAOBbSAeMeAFRDoz45kbkAAAAyMZy56lQC/uaBH1an4Yy1RCWAh9mQA8iMZjPgRk9KAHATC+pAK6ISAPIWjbHnxVpelAAAACAb1gcAMqPhjFW4nRWm4VUMgKzG5C5oNgNu0ykBwE2iEgCNcPAZgKrZ3yIXv37+8HcRAAAgA8NaQacS8Id1C3Kg4QygbG50AMiAZjPggfGjVwWAcVxgBDTEeAeslbfMUVmctREAAABo23DuyllYeC8qATnQcMaatkoAk4TtXhUAVh2HU6OZZjPgXk9KAHCTqARA7TTYAtAAh8jIgfMKAAAAebBOAJ+9KAE50HAGIGwDcKeh2axTCeABxhCA21hYB2oXlQBYmQYMlmafC7kLAACgUc5ewWm/fv7oVYEcaDhjTVEJYLLQLVgALD/2WvAAZDmAhVlYBxqgsRaAJnz99r1TBVaeX0ZVAAAAWM+wNtCpBHwSlYBcaDhjNRZwYVJufwRYkGYzYGJPSgBwk6gEAADz0ODPgjqX8LAirzkCAACsb6cEcJLLCcnGX0oAUIfU/PDr54+NSgDMP94GzWbAtIwpALd5MXYCtdLoAUBDnoLDM6wnKgHAvK68WBJdVA4AzWcFzWZwnqxMNr4oASsHhj54mQmmtLEoBzBbbumCm3WA+WwdLga4KZv9VgWgRvtMaN8GyCFruXAJkLkAuCU/9sO/fOQM2OH1Sc1oANBGdnB2HM6wbkFOvHAGUJcUwqMyAExLsxmwgCclAABo3lYJgEx4URaQuQC4aDgo/jRhbjwcOn/e///9bsx2YR8AVJUhuqDZDC6xbkFW/qEErMmCAEyuGwI5ABPRbAYsleOUAOAmFtoBAOYTlQAAgFNSo9n+53d4Oyjezfwfl/4zUgPa7+GndyYGAIrOEek77gwWXBaVgJx4bo8cAsRvVYBpeU4VYLKckhY5OpUAFrJ1KQfA6JyWMpoNKaAq1vSAzPKW/TtA5gLgOB92YZkms7HShVRxP65H/3QAoJg84RwWXJby7UYZyIkXzshlAQCYNpj3qgDw8FhqkQNY2rMSAIzjIAkAwOzkLcDYBsCro8ufuoz+10p7Kru0p+uMDAAUkSecw4LrXpSA3Gg4A6jT87DgB8CN0vhpkQNYcwxSBYDRXGIEGNMA5uNwA2BsA+BwOHyX8f+KXXg7I/N7aD7r/FMDgCzzhG80XPHr549eFciNhjNyEJUAZuGFDIAbZXo7H9AW4w8AAAA5iEoA1MbBLYDbFHg4PP3vuhuaz4z5AJBHnuiCcxAwRlQCcvRFCcgkUPxWBZjF5tfPH0IIwLg80oW8b+cDGrHPb+bqAOMznDUlQAYEkLUAxoj7zLVRBoDRWbAPdVx0HPc/W2dnAGCVPNEFZ7FgrK2LcsiRF87IaXIPTE9YBxhhuJ3PmAnkMiZ1qgAwWlQCAABZC2CEFyUAGGfYp3iu5L9O+u/i1TMAWCdPOIsFI2k2I1cazsiFxV2YL7gL7QDXx8lOJYCMPCsBwGjWlIAaRCUAZC2AeTm4BXCTWs+ZPB8az1z+BwDz0WwGN4tKQK40nGGghPp1FsoAPktjY9pQCJrNgAzzmxIAjOPAIFAJDR1ArqISAAC0pZFXwNLFf+nVs51XzwBg8izRBc1mcKutEpArDWdk4dfPH1EVYFY7TWcAfwwbBxY3gNzHKQAA2hCVAMiR/TugIg5uAYwwnCt5bui/8ut/38OrZ/4GAMAkWcJ5LLiRdVhypuGMnBgsYV7PSgDwurixMyYCBXhSAoDRHBwEimYjEcicMQowlgG0o+U91EPjmQudAeAOms3gbva6yZqGM3LyogQwq86NTEDL0sJG2iQIbzfVAZSQ3YxXAONEJQCMYQCzsX8HFE+DP8B1w55EpxKvNdhpPAOAm3OEZjO4T1QCcqbhjGz8+vmjVwWY3bMFMaBFQ8OthQ2gNHIbwAgODgKF08gBADAvN4UDjNMpwad67IZXz3rlAIDTNJvBQ6K9bnKn4QygPcI90JR0+9z+j2eVAApk7AIYzwFCoFRRCYCcuTASkLcAmmFP4kJtDo1nLnkGgD80m8HDXEpI9jSckRuHg2CZoC/kAy2MdV1a+A9u4wPKHst6VQAYJSoBUCI3VwIAyFsAa9NENVpqykuvnu3UDAD5QbMZPMplX5RAwxlAmzqHl4GaDY21FjWAGjwpAcB1DhAChTJ2AaVwYSRg/AKoW6cEN9fr0HjWKwcArdFsBpOwZkERNJyRFZ26sKhnNy4BtRleNUsLGsY3oBadzAYwWlQCoDAvSgAAAEAGnpXgLl14O3vzW+MZAK0YvnmazeBxUQkogYYzDKDQtp0DzEAtjhY0jGtAbYxrAONo3ABKE5UAKIELIwHjF0C9nBmZzKHxzDkcAGrODelclkZ1eFz89fNHVAZKoOGMHDkcBMty2wRQtKNXzSxoALUyvgGM4CAhUOC4FVUBAGA2shbAOJ0STF7P3dB41isHALUYzmbJDTCNrRJQCg1nZMfhIFhtMgBQ4viVcoMFDaCV8Q6A66ISAADMwiEIoDQuugVgTV348+pZrxwAlOroIvBONWAaLiSkJBrOAEg6TWdASbxqBjToSQkARnGgECiFxg0AgBm56BZgNPutC9R4aDxLr551ygFAKYbvlmYzmJb9IYqi4QyDKXCg6QwoglfNgIazmnEP4LqoBAAA09O4AZgbAsDDuv3PzqtnAJTg6HwWMCHrrJRGwxm5ikoAq9B0BmRreNXsd3DLHtAu4x/AFb9+/oiqABQyXvWqAAAwG69fA5A7r54BkK3hDKnzCTA9D/JQHA1nZMnhIFhV5yYlIDfDQoaGWKD5nKYEAKNYqAcAkLOAhmnuBxjH2ZAsdMGrZwDkkw0Ol4F3qgGziEpAaTSckTObVrCeZzcoATlIi+oWMgDej4uqAHBVVAIgc9a+AQAAgI+8egbAaoazCC4Dh/lED/JQIg1nZD2wKgGsygIWsJrhxhzPswN8ZlwEuMJCPQDAbDmrVwWgAJr7AShdF7x6BsCCnNGCRVivoEgazsiWw0GQBU1nwOKGRYz0Y/wBOD1O9qoAcFVUAiBXGjYAAMwHAWCk41fPeuUAYErDheC/gzNaMDevm1EsDWfkTjcvrE/TGbCItEBuEQNglCclALjqRQkAAGYRlQDImQNcADex31COLvxpPuud4wHgUUcXggPz0w9BsTScATDGbphgAEzu6LYcT7MDjNPZSAS4zOtBQMZsKgKl09gPyFoA9eiUoEhpX313aD5TDgBu4VUzWJ7LcSiZhjNyH2BNiiEfnaYzYErDAobbcgDuo0kX4LqoBAAAMhZgjAKAih1ePdtpPgPgGue0YBUux6FoGs4oQVQCyIamM+BhHxrNOhUBuC+XKQHAVV7fAHIUlQAomdt4AWMUAGSpC5rPADjDq2awHo/vUDoNZ5RAZy/kRdMZcDeNZgCTjqm9KgCcZ/EeyHRsiqoAVMBYBuTIuQIAeNOFP81nfWoyUBKANn24FBxYnrUKiqfhjOzZgIcsdcONSJ1SAGMMC9luygGY1rMSAAAUJSoBUAkvyQIAQBnSXtJO8xlAe4YLbF0KDityQSo10HBGKXT4Qn7SRETTGXDRUaOZpgiAmcZZVQC4yJoSkBMNGkAtohIAuXGICwCu0nwG0IDhVTNntWB99qmpgoYzShGVALKl6Qz4RKMZwGKelADgoqgEgDEJYFq/fv4wngFyFgCUTfMZQGWGRrP0otlONWB9LsahFhrOKGXQjaoAWdsNkxWgcRrNABbX2QQEOM+aEmBMApiNMQ3IiZdkAeB+ms8ACpfG7/DWaGYMhzx43YxqaDjD4AtMpdN0Bu3SaAawKmMvwGXWlIAcRCUAKqO5A8iGW8MBYDKazwAK4rwW5Mk6BTXRcEZJohJA9rph0alTCqjf4Sl2CxcAWWQw+QsAIG8aM4DaRCUAjEcAUDXNZwCZ0mgGWXMZKlX5ogQUFpI8+QoFhSZd+lDt9zh9i599kwGyEvfZa6MMAGcz7G9VAFa22ee1qAyAjAUwOXuSAPIcy4r7nxffX4BVvt1dcGYLsrbPSPpzqIq/0JQWlvqgIx9KEsPbJk9UCqjmO/wULFoA5MohZoDzWdYlRsCqbDACMhaAnAWQYZ7TcMajYtB8BrDEN7sLGs2gBM7tUJ1/KAElMTmF4qQJzm6Y8ACF+vAMu99ngLyzFwCnvSgBsKKoBICMBQAAVKjb/zyn8wTDT++MEMB00pg6XPjj0h/IX9RsRo00nFHkgKwEUJzdMPEBCnFYsDhqNAMgf8ZrgDNcYgSsTEMGUKuoBMDKtkoAAFlJe1W7ofks/dkrCcDtji4H12gG5bBGQZU0nGFABpbSDQtKJkCQMQsWAOWP46oAAADAEtzYC2TAOAQA+eqC188AbnJ0bstls1AWr5tRrS9KQKGh6rcqQPHhaqMMkM13tQtvCxWdagCUb5+zzPUBTufePtigA+QzgKkzlj07QM4CkOXgVnH/87L/lvdKAWAPCyqw0XBGrf5SAgq1Fa6gaN2wcLm1eATrGJrMOt9TgCrH+F7GAjgpyr8AAJOzZwesOf4AAGXqwtvZoefj77r9LaAlLgiHanjdjKq57YmSw5ZbdqCSsBXeGs8ELljm+9nv/3gKFisAquZ2Z4Czedh6ErA0Fy4BteerNMZpOAPW4PZwgMeznLUycpS+7y/B4W2g3u9vH5zdgppYn6BqDqBRcujaCVxQlRS4NJ7BPN/MPlioAGiNg80A57OxA9GAXAYwbcZyUBlYnAuXAOQ4mhGDBjSg/G9uF97ObdmjgrrYA6J6FuAoPYDtVAIEMODkdzL9HmkyA2iYQzcAJ3NyysfWkwCZDGDajOWgMrA0+4kAchztikEDGlDOtzbNW5zfgkrZA6IF/pJTehiz8AH1slEEt38X0++MRQoA5CmAy7nZehKwGJuNQCP5Ks093dANLMm6F8A0Oc46GTWIQQMakNf3tQteM4MWWJugCX8pAaUP1kIZVOt5P/l6FsrgMk1mAFzwpAQAJ0X5GVjIVgkAAKZn7xAAONINP+mcUfr3MWhAA1bgQh5oSrQ2QSvcrEkNIc1tO9AGjWfw59uXfhc0mQEwxsZmGsDJPG3DD1iC9SygpYxlvw5YSjrUtVEGABkOxmaH8NaApmkdmONbmsYVZ7igPc7i0AwNZ9QS2BwSgnY4qEOL37ouvC1MWKAA4FYO4ACcztgO0wCz2+cwezCAfAUwPXuFADIcPJwn0v8hUwB3fj/T2OEMF7TLORyaYrOTGsJbCm07lYDm2Eyihe9b+tFUDcCj3KwE8Dlv74KNQGBmGs6AxvJVH6xlAjIWQGkZTsMZvInh7RW0aE8NOPPN7IMmM+CNMzg05S8loHRp0N6HuSjIQXOe97/7afM63TpkwYcqWJwAYK7cFN42ygD440XuBmYmfwEAyFgAQBm64SedRTr8z7aH/OFMErTn6KJw57iAY1u5gNa4+Ymawp1XzqBtUZij0O9X+nHzLwBzc8MSwOcsbi0JmFNap+qVAWgsY3khA5CxAOQ3qDqLDH9qQoM6v4uHuYZzXMBJXl2nRf7SU1PYS4eEOpUAgs0m8v1WdcHtNwCsI218bZQB4F0+d6AGmJOGf0C+ApiYg10A8htkSBMalPsd7IJzXMB49n1oksU4agp/fXCzAPBeCncvms/I4PtkYQKAHFj8Avic1a0lAbNwGBqQrwBkLIAC8puGM5iHJjTI99vXD//S+gVwC5c806y/lIBapIaSfRgUAoFjXfoZxoZtsJDDAixMAJCx9G2ShQD+iHI7MOP4AgDAtLZKAAAU4rDu/Pz12/dPWcbF2bAc57iAiViToFluf6LGcCgYAmPCn+YzpvjudMHT6gCUxStnAO8zvVucgTlsHRwCGs1W3f6PnUoAM7GuBTB9frM2BuvTiAbTfde68Of8lnPEwGTfat9oWqbhjBpDo8UQ4KYwmP4PgZCR35guaDADoGyp6X6jDAB/Z/ydbA/MwGFooOV8ZZ8OmMU+XznfAiC7QSvi/uflKAf1SgInv2OH3w3nuIDZvsnO2NC6v5SACqXmEbcTAGM9DxPQ9Gfc/7xYqGH4O9EFt94AUJ8ufeMcgAb420uwCQlMTNYCGhflK2AGWyUAABrSHc+rhjNNn3KR8020RHMZsBLrETTPDVDUGi7dwANMFhYt0DTz7Tj8c7YwAeuIw59+/2CB3zc3MAG8mwtYRwJkLYDpslUfXOAFTM8LsgDzZDfrYlCPlJW8ikYt36fD319nuIBVv632e0DDGXUHTptZwNQ0oNXxjeiCl8sgywn68Pu5Uw5YhEM6AH/mCLtgwxKYztbaEdB4tkq5yvoOMKl9vnK2BWCe7KbhDNoQw1EzWnjbn4/KQgbfof7o3zrDBWTFWgS88YtAzWHUoggwt8NzuRZi8v0W9Ef/1sIEFDBBd+AbFuMmJoD38wbzBWAqGvsB+coeHTAtDf0Achswrxg0pDHft6YL78+A2I8BSmCvBwYazqg5qPbCKbACTWjLj/ddsDAB1UzQZThY7/cPoPF5hcM1wCTceAngQiFgchrOAObLbdbEgNGZ7MO/dy6K4+/Jx7zuzAdQMhc4wxEbn9QeZC2MAFkE0HB0E5BNsbvG8481szABdTjZ7CLDwXIciAaQPwD5CmCGbNUHa7iAfAVQQm6zJgZMKYb3L6Ud8lyvNEV/K7rw+VIZc36gWtYh4L2/lIDKbYVbIAPvJt77ifjxuBRD48/SW5iAZl16WUmGg+W+w71NHgD5A5h0LAHgbd1btgKmGk8AAChDF068dv3hnNSxc2tpXk+b2ZmzWslT8GI50DYvm8EHOjBpIRy7jQcoXVELLBcWJRKHDIDD+LWR4SAPbmcC+Hses1MJ4EFbzfwAf+crazuAfAUgswHMIYYTL6l9VHuOHF4Xv0TzGMCN35dr59mgRQ6VUb0hWGtwAJoOwmHEQssVFiGARSfnMhwsysEdgOCADfA4jfwA77JVaubvVAKQrwCyzmzWwwDO2y7wn+FMBEAmrEHAaX4xaIIFEgCALNx0E4wMB8uxcAag4R2QqQBkKyAzbhYHmD+z2YsDAIAQNr9+/ojKAJ/9QwloxFYJAABWdc/hABkOFjIcBAQA4H7mLwDvRSUAHvSiBAAAAMDMomYzOM9tmzTDrTwAAOu596Z/GQ7y/z0FqInsATxgu89TvTIAyFbANKxVAchrAAAwN+sPcJkXzmiJG2YBANaxeeD/rQwHC/HKGcCrqATAPTSbAchWAAAAAEBRNkoAl2k4oxk2/AEA1pmYP/LsuAwHi3r++u17pwxA416UAABAtgJW5yIyAAAAYE7bR860QSs0nNHcx0EJAAAWs5loYi7DwXKelQBomWZ3wJwFACALUQkAAACAmUT7wjCOhjOaMnwcokoAAMxuqmYzB79hWZ1XzgAAAJiCNR3ggfEjqgIAAAAwExcJwkgazvCRAABg8rw1w4EAGQ6W45UzoPksowTAjaISAACYkwEAAADZ27joBsbTcEZzho+EDwUAwDxmeXLcjdiwKK+cAc3nGSUAbpyvGDcAztM4ApiTAQAAADmI9nTgNhrOaJXNLQCAeSblGxkOquCVM6BZNhmAW+dBSgAAYE4GAAAAZG3uc21QJQ1nNGlYpHZgGQCgoEm5V85gUemVM79zQMusGwFjvSgBwHnWcwBzMQAAACAD1hzgDhrOaJYNLgCAySx5A4zJPyzHK2dA0/lGCQDjBQAAAAAAQPE2XlSH+2g4o3UOLAMAPGbR58ZdGgDL8soZ0CobDoDxAmBS9uOAsdmqVwUAAABgQtFeDtxPwxlNGxasfUQAAO6fkG9W+M91SAmW45UzoOmsowSAcQIAQLYCAAAAirTW2TaohoYzcGAZAKCoCblbbmFZXjkDGvaiBIBxAuBx1nIA2QoAAABYgR4BeJCGM5o3PJMZVQIA4KYMtfbtLxYEYDleOQNazTu9KgBXRCUAADAHAwAAALKzGXoEgAdoOIOQxYFpAICiJuQZ5LfePwZYjlfOgIZFJQAuzEuMEQDjuTwIMPcCAAAAlhDt4cA0NJzBHza6AACuy+n2F/kNlvOkBECjXpQAOCMqAQCAuRcAAACQleghGpiOhjMYDK9kRJUAADgrq6fGvXIGi+q+fvveKQPQoKgEwBkORQPcwDoOYIwAAAAA5qbZDKal4Qze80oGAMBpm0yfGpffYDmdEgCtyTT/AAAAAAAAAPCeZjOYmIYzODIcInJoGQDgw2Q818PWbr6FRT0rAdAoa0WAuQjANKISAOZcAAAAwAw2LhOF6Wk4gw+GgwI+OAAA5UzGHUiAhXz99r1XBaBBUQkAACbxogSAORcAAAAwsajZDOah4QxOc2gZAKCQm1+8LACLelICoDU2J4ATrB8D3EeuAsy5AAAAgCmlZrONMsA8NJzBCcOidlQJAKBhpT0z7sAnLKNTAqBRUQkAAB6jqQQ4wbouAAAAcC/NZjAzDWdwhg8QANCw0prNvHIGC/r67XunCkCDXpQAMP8AmERUAsCYAAAAAEzARTYwMw1ncJmmMwCgufxT8G3TFhFgGZ0SAK3RXAIAMBmN/MDxXCuqAgAAAHCHjXUFmJ+GM7hg+BD5GAEAJuJlZLfeP0JYxJMSAI2KSgAEF10AyFSA8QAAAABYk2YzWIiGM7hi/0FKr5z5KAEAJuJlcPgT5tcpAdAor3EAADzIQRDAHAsAAAB4wNYaIyznixLAdV+/fe/2f+xUAgCoVFW3vuyz22//SMG4ASBnAHPYZyD7KgCPZ6q059apBMhVqgCwei6z1gUAQEni8JAMsBAvnMEIw0FKr2UAADWqsWlEboP5dUoAAADAnbxqBEQlAAAAAG6g2QxWoOEMRtp/pPpg4RsAqEuVLxTJbQDAjDS2Q9vMMwCMp8A0NJ4C5MFaFwAAJdBsBivRcAa3sdACANSiymYzuQ0AmFlUAmiag9EAE6h8TQoYNw70qgAAAACModkM1qPhDG77YMX9Hz5aAEDJ0o0vX2o/2DP894v+ccNsnpQAaJHD0WA+pQQAxlTA7z8AAACwGOf2YUUazuBGDi8DAAVr7Xlxr5zBfDolABomY0CjNJ0CTMqrkeD3HwAAAOCSjb0ZWJeGM7iDpzkBgAK11mzmogAAAGDSOZUSABhXAb//AMZkAABYhGYzyICGM3jgQ6YEAEAhYsMN814gAQAmtc9VvSpAk7zEATBtpoqqAH7/ATAmAwDACZrNIBMazuBOw4fMAWYAIHctN5t55QwAmC1jKQH4vQcA4Gb21wEAAIBLNJtBRjScwQOGG6191ACAXDXdbHbEIQYAYGpeOoLG2NwEmIU1G2iPTAVgbAYAgHO29mMgLxrO4EEOcQMAmdJs9ievxeAAEwAwbb7oVQHaml8pAQDAJHMpuQogPy5WAgAgB9EeLORHwxlMw2FuACCrbKLZ7D0LEjC5qAQAxkJoiMN3ADOwXgPNcSkYAAAAcIqL1SFTGs5gAl7NAAAysnFL7FnyGkzHoWsAYyG0xBwLAECmAqiSSwAAAFiZZjPImIYzmMiwABNVAgBYkWaz63kNAGAqche0M5fw+w4wHxcEgUwFAAAAtEmzGWROwxlMaPjoRZUAAFag2Wwch5hgGsYboHmyFwAAwGjmTwDGaQAAeJdBNZtB/jScwfQcYgYAFp18B81mo3mVFib7XfJ7BPDGOhD4PQfgsfllrwrQhBclADBOAwDAQLMZFELDGUxsOHjpIwgALDb51vhxMwdG4cGxRwkAjIkAAABjaS4FyF5UAgAAlsqems2gHBrOYAbDoW8HmQEAk+98s1pUCbibm04B3ucKoO7f814VAGZnTw3qZt4EkP/c11gNAMASnHeDwmg4g5kMBxGiSgAAJt9ZcpAJHpvrAHCUzZQAAADgLJcXAZTB3hkAAHNy3g0KpOEMZjR8GKNKAAAT2pp8T5LTopwGd/F7A/CZw5NQ8fxLCQDm52IT8DsOQBaiEgAAMFfWdN4NyqThDGbmAwkATGhjc15Og5U5dA3wOVPIZwAAAKdFJQAow3BZIwAATE2zGRRMwxksw4cSAHg4T9jomYXmGRgvGocAzo+RSgD10VAKsChrNFAnL0IDyGQAALRLsxkUTsMZLGA4lOmDCQDcNfEOms3mzGm9KsBoNpoBznOIEgAA4LOoBADGbQAAmrTRbAbl03AGC9F0BgDc4fWWF81ms9NEA+PGI2MRwIVxUgnAPAEAeQp4z3oSgHEbAIAmOe8GldBwBgsaPp4+oADAGJ4UXy6j9TIaXOXANcDlPCFLAADIU8B71pMAjN8AALRHsxlURMMZLGw4OO5DCgBcm3hrNluWzTM4z+tmAPIENJmBlADA2Av4nQYwfgMAwGiazaAyGs5gBZrOAAAT7+zyWZTP4OL8BYDrZAmob44AwLJelADkKQCyGL+N4QAA3MqZN6iQhjNYiaYzAOCDaOKdRT4D3vN7ATA+S8hxUNf8DADjL3A/L0ADGMcBAGhDDM68QbU0nMG6LNAAAK8T79TsZOItn0Fuvw/GJQBZAhrlhR2AFZiDQlX8PgPIZQAANDD/d+YN6qbhDFY0fGC9GAAAbdt6WSurfNarAryKfh8AgJazkBIAGIOB+zloBlAFFysBAHBJdOYN6qfhDFam6QwAmrbR0JHnPxclwDzFoiDAneOnbAd1/C5HVQBYjVcmoXyyFEAdc+NeFQAAODf3d64E2qDhDDKg6QwA2pt0h7dms6gU2WYz/2xombkJwONZD/A7DIBxGFqlcRSgHl45AwDgU0bUbAbt0HAGmdB0BgDNeL3hRbNZ9myg0SrjE8DjHK4Ev8MA3MmcFKr4Pe5VAaCqMV0+AwDgYGPeD23RcAYZ0XQGANVzw0tZuUzTGa3RbAYwTY7oVQGKJg8BGIsBv78A/GG/DACAxJkSaJCGM8iMpjMAqHrS3StDUbnMPy9aG6OiMgAA5gEyEUAGvDYJfn8ByGuerOkMAKBdKQ86UwKN0nAGGdJ0BgAm3WRDJqOJv+fGKIDJOYQD5c7fADAeA3dyiRdA1eO7jAYA0J64z4LOlEDDNJxBpjSdAYBJN9lkMv/8qJkxCmCmHKgEUCQvcgBkwDwVzIMAyJILlgAAGpvnp3NvygBt03AGGdN0BgBF25h0V8MGGjWPU1EZAKZnfAUAeJg8BeXRvA9QMWeYAACa4twb8ErDGWTOgg0AFCcGTRw15jFNZ1Q1Tu3/Xn8xTgHMTn6A8rJ/rwoA2dC4AuWJSgBQ/bw5jfXWvAAA6ubcG/A3DWdQAE1nAFCM16fETbqrzGN9cGCCisYpZQAAAABgStbFAZoZ7/tgzwwAoEYuLwY+0XAGhdB0BgDZ85R4/dzYSPF/h41TAMvxUhLI+wDIUiBLAVBpVkt7DVElAACq4fJi4CQNZ1AQTWcAkOeEO3hKvKUs5p8zpdo4rAewWlYEAAAw9wGgKprOAACq4ZJ14CwNZ1AYTWcAkJXX2100mzWVxeQwShynvhinAFbzogRQTNbvVQEgO15MgnKyVFQFgCbHf01nAADlSjnOuTfgIg1nUCBNZwCQBbe7NPzPXgkwTgEwhgYWAACgAZpDARqm6QwAoEguWQdG0XAGhdJ0BgDrTbiD213kMBtnZD5OedUMILv8COTNIWmADGneBwAoJrdpOgMAKMfW5cXAWBrOoGCazgBgnQm3Jg4svJAxr5oB5OdFCSB75ngAxmjgTppDARi+B5rOAADytzGPB26h4QwKp+kMAEy4We/vhBKQEa+aAWQ8RisB5E2GAsia5n0w3wGgnPl12jvzijgAQIbzd2dKgHtoOIMKaDoDABNuVstg/l6QA6+aAeSfGYCM53xKAGCcBu6mKRSAd4YLPO1ZAADkY+tMCXAvDWdQiXR4KR2GDzbeAGBKmji4lsH8/WBNGmIByuFmZ8iXQ9IAGTPnhex/R3tVAOBMhrOHBgCwvo25O/AIDWdQmeHQc1QJAHiIJg5uYcOMVf7eaXgEKCtfKgHkyUYrQBE074N5DgDlzbddnA0AsOKc3dk3YAoazqBCms4A4CGaOLg1e6Xc5eATS7EoCFBuXgAAAKiJl2IBuGrYd7WPBgCwHGffgMloOINKWbABgJvFYcIdlYI7slcfNPwzP4uCAGWzTgN+LwG4g9cowe8mAFV8M+xvAADMKwZn34CJaTiDilmwAYDRtqmJw4SbR/8eKQEz8aoZQAUcxoQ8c5YSABizgbtYCwXgJmmPI+11yHUAAPPM0519A+ag4QwqN4QHTWcAcNrrd9LhX+QuMuZVM4D68ieQV4YHoAwvSgDmNgBUMRdPex72PQAAppufO/sGzOaLEkAbvn773u3/eN7/dKoBAK+2JtvMlLt2MhcTiBrNAKrMCSl/PqsEmBMCcFeW+q0KkIfhhRoAeDTf2VMDALiffQ5gdl44g0YMT9OnA6tRNQBoXPoWutmFOXOXzMWjvGoGUG9OkEEhr7khAMZu4HZbJQBgCl47AwC4m7NvwCLcOgUNckMQAA1zswtL5a2UtXYqwY28agbQRk5IedQrZ7Ayr3IAyFGAHAVAVlnPWSYAgOucKwEW5YUzaJAbggBodLL9RbMZC+atKG9xI6+aATSUTZUAVudVDoACWdsD8xkAqs56zjIBAFzmXAmwOA1n0CiHoAEw2YZF8lZUCa44NMT6uwIgIwALZjAlADCGA3fRuA/AbNK62fCSpu8NAMDRXNy5EmAtGs6gYUcLNUIIADXSxEEOeWsja3GBhliAdr0oAaw6V5TRAcrl8DGsSI4CYKHvTR/eLtH23QEAWpay0GbIRgCr0HAGOAgNQK2TbU0c5MJBKD6NUxpiAdpmYwhWpeEToOwcZS4N67HOCcCiuW/Y73WmCQBocg6espC1MGBt/6IEQPI///1f//Gv/+vf0mGLf1cNAAqfbP9z/137T6Ugo5z1n3IWR9KCoMM5AIR9PkivzncqActyOQmAHAXIUQCUI+2zDWeaZEAAoAVx//PP/Rz8/yoFkIMvSgAc+/rte7f/4zlYpAGgsMm2zW4KyFn9kLMwTgHAIR/8VgVY1NYLgwByFCBHAVB0DkzfI/ttAECNvGgGZOcfSgAcO3qSXmgBoKTJtiYOSshZvYxlnAKAD2QD8DsHgDEd/M4BwEhpv23/ky7Z36oGAFDLnDvlG81mQI40nAEnDQdiHYoFIGdbk20KzVj+zrbDoiAAVzOtEsCi2UwuA5CjADkKgAoMFz3adwMAip5vBxcYA5nTcAacNWwcWJwBINfJdq8UFMqBqDZYFATgqmHtJaoEyOEAyFEgRwHA7Znw6EJt2RAAKGqunXKMC16A3H1RAmCMr9++7/Z/dCoBwIriMNk20aaGbJVy1U4l6hyrNJoBIBdAftLLs6oAUF2O6vd/PKsEzMpaFwAl5cNuyIedagAA5tkAj/PCGTDK0Y1AALAGt7pQW7ZKf5fdDFwfr5oBcG8ukHNh5jmlEgBUmaN6VQA5CgCO8qEXzwCAXKVs4kwJUBw3egI389oZAAvaOjiCXEUB3EAFwKOZIOUBr5zBTLxuBlB1juqDV85gLta8ACg9K3bBi2cAwPpcsg4UywtnwM28dgbAAuIw2e6VggZyVVSJormBCoApMkGUCWA2XuUAqDtH9aoAchQAnMmKXjwDAFadV6cL8TSbASVzqydwNzcBATCDOEy2TbRpLVd56azA8UqjGQAT54GUBbxyBhPzuhlAEzmqD145g6lZ+wJAdgQAMKcGGvcvSgDc63/++7/+c//zH//6v/4tHdroVASAB6VGs3+m74tS0Jp9nvp/+z/+XSWKkV41c8MzAJNKOdgaC0yf28wxAZrIUXGfo1KG+t+qAdP49fPH/1EFAGrNjvufrXU4AGAGcf/zT+dJgJq42ROYhNfOAHhAajTrlQF5yqsmBXALFQBLZILfqgCyGwA3Z6guWFeBqVizB6ClHJm+eU/BeScA4H5xmEtHpQBqo+EMmJSn5wG4gU1r+JyluuBwVK42FgcBWCgPpIxsbQXkNwBuz1FpTaVTCXjMPkM5RwJAi1ky5UgXbQMAt3L+DaiahUJgchZhALgiBre6wLUspeksozHLyxgArJAHHJYGGQ6A2zNUyk/WVOAxmvYBkCnf1uVcCAUAXKLRDGiChjNgNjb2APggBo1mMDZH9cFGVg4csAFgrSzQBWsqcDevcgA0naP6YE0F7qVpHwBkSwDgMo1mQFNsugKzcys3QPNi0GgGMlRh45bDNQBkkAX64EAL3MOlAQBylDUVuIOmfQA4my9TtnyWMQGgaRrNgCZZMAQWYfEFoEkxaDSDRzOUA1LLc0AZAFkACp6HujgAAK/Fwl2siQHAuKzZB5dEAUBLNJoBTdNwBizKwgtAE2LQaAZT5icHzRcauxxOBiDTLPBbFUCeA+DmDNUFTWcwlsNzAHBf3nTxNgCYKwNUTcMZsAoHpwGqFINGM5CdyuQGZwByzgEpAzgsDTIdALfnKOspcJ2mfQB4PHf2weXbAFALjWYARzScAatx2w9ANWLQaAZLZCeHpGYYvxyoAaCQHJAygKYzOE+zGQDncpT1FDjP2hgATJs9U+50DgoAyqTRDOAEDWfA6tz0A1CsGDSawdK5ySGp6TiUDIAcAHIdAHIUyFEAwBwZtN//8SSHAkD2NJoBXKDhDMiGxjOAYsSg0QzWzEwOST04hrm5GQA5AGQ7AJrKUCk/eS0W3tNsBgDLZdH04zwUAORFoxnACBrOgKx4Xh4gazFoNINcMpPD5vdxkAYAOQAqmqNqNgPghgyV8pOmM3hjjQwA1suk6UfzGQCsR6MZwA00nAFZ0ngGkNdEO7wd5ItKAVnlJYfNx3MYGQA5ACqbp9oQBuCODJXyk70nWqfZDADyyKb9/o8n2RQAFpHmwS5ZB7iDhjMga26cBFiVA3yQf1Zy2Pw6h2gAqDUHpKzuNmTkOwC4PUdZT6FFKT85XAcAeebTPmg+AwBzYYAMaTgDiuAQFcCiNJpBWTnJIanTvGoGQAs5IGUAF/XQTL4LNoYBmC5H9cG+Ew3lKOtkAFBUTtV8BgCPcfYNYCIazoCi2AAEmE0MDu5ByRlJ09l7Xr0AQBaAyuasDkkDMEOGSvlJ8z61s04GAOXm1T5oPgOAW2g0A5iYhjOgSBrPACYTg0YzqCUfOWjuIDIAbWeBlAMcmMacFQBuz1F9sOdEhTnKOhkAVJdZNZ8BwIn5b7CPADAbDWdA0WwCAtzNjS4gG9XGbc0AIA9g3goA92aobshQnWpQuBgctAOA2rNrHzSfAcA2vF22Yv4LMCMNZ0AVHKYCGCVNsG00Q/25qAttvW7itmYAOJ0J+mCthDJpNANgzQzVBY1nlCkG6/8A0GJ+7YPmMwDamvu+2EMAWI6GM6AqDlMBnORGF2gvE3WhjcNRXjUDgOu5oA/WSshfynQ2iQHIKUN14W1dRY6ihByl0QwA0HwGQM2cfQNYiYYzoEoWUQAc1gNeM9Gu0jzk1QsAuD0XdMGhaTLMdcEmMQD556g+2HMiLyk7Wf8HAC5l2C5YCwTA3BeAB2k4A6rW0OseAAcO6wGn8tCukv86aWxzYzMATJMP0o8DJ6yR517MWwEoOEf1w7+Uo1glRzloBwDckWG78LYW6BIFAErg7BtARjScAU3QeAZULk2wbTQD1/JQya+dpXFOoxkAzJMRuqOM4OA0c0ibw8GcFYCKc5SDu8yZoxyyAwCmzrG9DAtAZtK819k3gAxpOAOaMyycOEAF1MBmM3BrDupCWU34aXzTaAYAy2eG/ujfWkPhluz2cvjXMhwAcpQchRwFAGSfX7vwtm8ouwKwhq0mM4C8aTgDmuXGHqBQMWi+AB7PQSn/5Nx4ZqwDgHwzxMf84DBKW/PRl+P/gY1gAJCjuC9HBY1lAECeubUPzlIBMC8XrAMURMMZ0LwCX/oA2pMm2J4NB1rIQW6vAgAAAAAAgJV5/QyACcXg0mGAImk4Azgy3NRjoQTIhcYLYKkM1IX1NozcXgUAAAAAAAAZG85UJc5VATBGDC5YByiehjOAE7x6BqxI4wWQQw46ZCFjHQAAAAAAAPC3o/3Ep+BsFQB/xKDJDKAqGs4ArvDqGbAAjRdA7lkouXfDaHv4FxYVAQAAAAAAoC4a0ACaFoMmM4BqaTgDGGmh1z6AdmgyA2rKR68sIAIAAAAAAEDbji60dMYKoE4xaDIDaIKGM4A7DAsjbuUBbqXJDAAAAAAAAABohgY0gCrEoMkMoDkazgAepPkMuEKTGQAAAAAAAABA0IAGUJAYNJkBNE3DGcCENJ8BJtoAAAAAAAAAAONoQAPIisvVAfibhjOAmWg+g6akCbYmMwAAAAAAAACABxw1oDl3BTC/uP95CZrMADhBwxnAAjSfQZXc5gIAAAAAAAAAMKOv37534e3MlbNXANNI596Cy9UBuEbDGcDCNJ+BiTYAAAAAAAAAALc7akBLnlUE4KoYvGIGwB00nAGs6GgBxOIHmGgDAAAAAAAAAHCj4QLwxCXgAG9crg7AwzScAWTE62ewqhg0mAEAAAAAAAAAFM0raECDNJgBMDkNZwCZ8voZzC4GDWYAAAAAAAAAANXzChpQmRicfQNgZhrOAApxtOihAQ1MsgEAAAAAAAAAeIAmNKAgMTj7BsDCNJwBFEoDGly1PUy2TbIBAAAAAAAAALjk67fvXfjTeOZMFrCm17Nvv37+6JUCgLVoOAOohBt3aFwMbze4mGQDAAAAAAAAADAZ57KAmcXg7BsAGdJwBlApN+5ggg0AAAAAAAAAANPThAY8YDv8GX/9/BGVA4BcaTgDaIiFDgqUJtSaywAAAAAAAAAAyNqHC8KdzwKSGJx/A6BQGs4AGnfUhJZ4CY01ubkFAAAAAAAAAICqOJ8FzYhBcxkAFdFwBsAnbtthZofGMhNrAAAAAAAAAACapBENiuYMHADV03AGwGga0bhnQh28WAYAAAAAAAAAAKM4owVZiWF4tSw4BwdAYzScATCJDzfuWOhog6YyAAAAAAAAAABYiDNaMCuvlgHAEQ1nAMzuw607B56Bz1sMf25mef33GsoAAAAAAAAAACBPH5rREuez4LMYvFgGAKNoOAMgC2ea0hILH9PanppEmzgDAAAAAAAAAECdTpzN8joaNYvh6LJ1r5UBwH00nAFQpBM38hxrYUFke2nCrIEMAAAAAAAAAAAYywtpFObd+TlNZQAwPQ1nADTtwstqS9MkBgAAAAAAAAAAZOvMJeEa05haDEcvlCUaygBgeRrOAAAAAAAAAAAAAIBJnGlMewp5XAzOurYf/weayQAgTxrOAAAAAAAAAAAAAIBVnGlQO/CCWt62p/6HmsgAoHwazgAAAAAAAAAAAACA4lxpVjvwutppcf/zcu3/zq+fP6JSAUB7NJwBAAAAAAAAAAAAABz5+u17FwpqVPOqGAAAAAAAAAAAAAAAAAAAAAAAAAAAAAAAAAAAAAAAAAAAAAAAAAAAAAAAAAAAAAAAAAAAAAAAAAAAAAAAAAAAAAAAAAAAAAAAAAAAAAAAAAAAAAAAAAAAAAAAAAAAAAAAAAAAAAAAAAAAAAAAAAAAAAAAAAAAAAAAAAAAAAAAAAAAAAAAAAAAAAAAAAAAAAAAAAAAAAAAAAAAAAAAAAAAAAAAAAAAAAAAAAAAAAAAAAAAAAAAAAAAAAAAAAAAAAAAAAAAAAAAAAAAAAAAAAAAAAAAAAAAAAAAAAAAwP9nDw4JAAAAAAT9f+0LEwAAAAAAAAAAAAAAAAAAAAAAAAAAAAAAAAAAAAAAAAAAAAAAAAAAAAAAAAAAAAAAAAAAAAAAAAAAAAAAAAAAAAAAAAAAAAAAAAAAAAAAAAAAAAAAAAAAAAAAAAAAAAAAAAAAAAAAAAAAAAAAAAAAAAAAAAAAAAAAAAAAAAAAAAAAAAAAAAAAAAAAAAAAAAAAAAAAAAAAAAAAAAAAAAAAAAAAAAAAAAAAAAAAAAAAAAAAAAAAAAAAAAAAAAAAAAAAAAAAAAAAAAAAAAAAAAAAAAAAAAAAAAAAAAAAAAAAAAAAAAAAAAAAAAAAAAAAAAAAAAAAAAAAAAAAAAAAAAAAAAAAAAAAAAAAAAAAAAAAAAAAAAAAAAAAAAAAAAAAAAAAAAAAAAAAAAAAAAAAAAAAAAAAAAAAAAAAAAAAAAAAAAAAAAAAAAAAAAAAAAAAAAAAAAAAAAAAAAAAAAAAAAAAAAAAAAAAAAAAAAAAAAAAAAAAAAAAAAAAAAAAAAAAAAAAAAAAAAAAAAAAAAAAAAAAAAAAAAAAAAAAAAAAAAAAAAAAAAAAAAAAAAAAAAAAAAAAAAAAAAAAAAAAAAAAAAAAAAAAAAAAAAAAAAAAAAAAAAAAAAAAAAAAAAAAAAAAAAAAAAAAAAAAAAAAAAAAAAAAAAAAAAAAAAAAAAAAAAAAAAAAAAAAAAAAAAAAAAAAAAAAAAAAAAAAAAAAAAAAAAAAAAAAAAAAAAAAAAAAAAAAAAAAAAAAAAAAAAAAAAAAAAAAAAAAAAAAAAAAAAAAAAAAAAAAAAAAAAAAAAAAAAAAAAAAAAAAAAAAAAAAAAAAAAAAAAAAAAAAAAAAAAAAAAAAAAAAAAAAAAAAAAAAAAAAAAAAAAAAAAAAAAAAAAAAAAAAAAAAAAAAAAAAAAAAAAAAAAAAAAAAAAAAAAAAAAAAAAAAAAAAAAAAAAAAAAAAAAAAAAAAAAAAAAAAAAAAAAAAAAAAAAAAAAAAAAAAAAAAAAAAAAAAAAAAAAAAAAAAAAAAAAAAAAAAAAAAAAAAAAAAAAAAAAAAAAAAAAAAAAAAAAAAAAAAAAAAAAAAAAAAAAAAAAAAAAAAAAAAAAAAAAAAAAAAAAAAAAAAAAAAAAAAAAAAAAAAAAAAAAAAAAAAAAAAAAAAAAAAAAAAAAAAAAAAAAAAAAAAAAAAAAAAAAAAAAAAAAAAAAAAAAAAAAAAAAAAAAAAAAAAAAAAAAAAAAAAAAAAAAAAAAAAAAAAAAAAAAAAAAAAAAAAAAAAAAAAAAAAAAAAAAAAAAAAAAAAAAAAAAAAAAAAAAAAAAAAAAAAAAAAAAAAAAAAAAAAAAAAAAAAAAAAAAAAAAAAAAAAAAAAAAAAAAAAAAAAAAAAAAAAAAAAAAAAAAAAAAAAAAAAAAAAAAAAAAAAAAAAAAAAAAAAAAAAAAAAAAAAAAAAAAAAAAAAAAAAAAAAAAAAAAAAAAAAAAAAAAAAAAAAAAAAAAAAAAAAAAAAAAAAAAAAAAAAAAAAAAAAAAAAAAAAAAAAAAAAAAAAAAAAAAAAAAAAAAAAAAAAAAAAAAAAAAAAAAAAAAAAAAAAAAAAAAAAAAAAAAAAAAAAAAAAAAAAAAAAAAAAAAAAAAAAAAAAAAAAAAAAAAAAAAAAAAAAAAAAwCEB2LvX5MRxKACjguq/XlPMarwMYBmsBmVNLCBjEXcPIbwftiyfU+Oi8+ikowRbqfI3138AAAAAAAAAAAAAAAAAAAAAAAAAAAAAAAAAAAAAAAAAAAAAAAAAAAAAAAAAAAAAAAAAAAAAAAAAAAAAAAAAAAAAAAAAAAAAAAAAAAAAAAAAAAAAAAAAAAAAAAAAAAAAAAAAAAAAAAAAAAAAAAAAAAAAAAAAAAAAAAAAAAAAAAAAAAAAAAAAAAAAAAAAAAAAAAAAAAAAAAAAAAAAAAAAAAAAAAAAAAAAAAAAAAAAAAAAAAAAAAAAAAAAAAAAAAAAAAAAAAAAAAAAAAAAAAAAAAAAAAAAAAAAAAAAAAAAAAAAAAAAAAAAAAAAAAAAAAAAAAAAAAAAAAAAAAAAAAAAAAAAAAAAAAAAAAAAAAAAAAAAAAAAAAAAAAAAAAAAAAAAAAAAAAAAAAAAAAAAAAAAAAAAAAAAAAAAAAAAAAAAAAAAAAAAAAAAAAAAAAAAAAAAAAAAAAAAAAAAAAAAAAAAAAAAAAAAAAAAAAAAAAAAAAAAAAAAAAAAAAAAAAAAAAAAAAAAAAAAAAAAAAAAAAAAAAAAAAAAAAAAAAAAAAAAAAAAAAAAAAAAAAAAAAAAAAAAAAAAAAAAAAAAAAAAAAAAAAAAAAAAAAAAAAAAAAAAAAAAAAAAAAAAAAAAAAAAAAAAAAAAAAAAAAAAAAAAAAAAAAAAAAAAAAAAAAAAAAAAAAAAAAAAAAAAAAAAAAAAAAAAAAAAAAAAAAAAAAAAAAAAAAAAAAAAAAAAAAAAAAAAAAAAAAAAAAAAAAAAAAAAAAAAAAAAAAAAAAAAAAAAAAAAAAAAAAAAAAAAAAAAAAAAAAAAAAAAAAAAAAAAAAAAAAAAAAAAAAAAAAAAAAAAAAAAAAAAAAAAAAAAAAAAAAAAAAAAAAAAAAAAAAAAAAAAAAAAAAAAAAAAAAAAAAAAAAAAAAAAAAAAAAAAAAAAAAAAAAAAAAAAAAAAAAAAAAAAAAAAAAAAAAAAAAAAAAAAAAAAAAAAAAAAAAAAAAAAAAAAAAAAAAAAAAAAAAAAAAAAAAAAAAAAAAAAAAAAAAAAAAAAAAAAAAAAAAAAAAAAAAAAAAAAAAAAAAAAAAAAAAAAAAAAAAAAAAAAAAAAAAAAAAAAAAAAAAAAAAAAAAAAAAAAAAAAAAAAAAAAAAAAAAAAAAAAAAAAAAAAAAAAAAAAAAAAAAAAAAAAAAAAAAAAAAAAAAAAAAAAAAAAAAAAAAAAAAAAAAAAAAAAAAAAAAAAAAAAAAAAAAAAAAAAAAAAAAAAAAAAAAAAAAAAAAAAAAAAAAAAAAAAAAAAAAAAAAAAAAAAAAAAAAAAAAAAAAAAAAAAAAAAAAAAAAAAAAAAAAAAAAAAAAAAAAAAAAAAAAAAAAAAAAAAAAAAAAAAAAAAAAAAAAAAAAAAAAAAAAAAAAAAAAAAAAAAAAAAAAAAAAAAAAAAAAAAAAAAAAAAAAAAAAAAAAAAAAAAAAAAAAAAAAAAAAAAAAAAAAAAAAAAAAAAAAAAAAAAAAAAAAAAAAAAAAAAAAAAAAAAAAAAAAAAAAAAAAAAAAAAAAAAAAAAAAAAAAAAAAAAAAAAAAAAAAAAAAAAAAAAAAAAAAAAAAAAAAAAAAAAAAAAAAAAAAAAAAAAAAAAAAAAAAAAAAAAAAAAAAAAAAAAAAAAAAAAAAAAAAAAAAAAAAAAAAAAAAAAAAAAAAAAAAAAAAAAAAAAAAAAAAAAAAAAAAAAAAAAAAAAAAAAAAAAAAAAAAAAAAAAAAAAAAAAAAAAAAAAAAAAAAAAAAAAAAAAAAAAAAAAAAAAAAAAAAAAAAAAAAAAAADTM7MEAAAAAAAAAAAAAAAAZdltQt0+1CP/MmLVhOi7Cf0SnAEAAAAAAAAAAAAAAPTsziBsacXuEtvj85b3E7TBb4IzAAAAAAAAAAAAAACAB+w2YXXhzR9h/BPGpi6GC+Fa1Vz8/sNoCc4AAAAAAAAAAAAAAIDJuzBxTDjGvdanXilQYywEZwAAAAAAAAAAAAAAQLHOTCFbWhky8StOE6YxNMEZAAAAAAAAAAAAAAAwOmcmkgnJKFFsj8/DV4jSeCfBGQAAAAAAAAAAAAAAkJ0Tk8nEZHDej0lpgjSeITgDAAAAAAAAAAAAAAB6JyiDXh0GabFq9lPT4CTBGQAAAAAAAAAAAAAA8BZHUdlHe9RWBbIjRuMHwRkAAAAAAAAAAAAAAPAwURkUK7bH598/C9GmQ3AGAAAAAAAAAAAAAABctNvsI7K6e1FUBtMWgxCtaIIzAAAAAAAAAAAAAABg72ha2dKKAHeIoQvRqubHuYSREZwBAAAAAAAAAAAAAMDEHE0sE5YB77TuHk1DGwnBGQAAAAAAAAAAAAAAFOooLPs4+DPAkERoGROcAQAAAAAAAAAAAABAAXabsDp40dQyYGz2EVrV/DiXMQDBGQAAAAAAAAAAAAAAjMxBXGZqGVCq2B6fwRS03gnOAAAAAAAAAAAAAAAgY+IygH9MQeuB4AwAAAAAAAAAAAAAADIhLgO4iwDtDQRnAAAAAAAAAAAAAAAwgN1mH5SlQ1wG8BoCtBcQnAEAAAAAAAAAAAAAQA8OppctrQZALwRoDxCcAQAAAAAAAAAAAADAi5leBpCd2B6f6bFq9n/mDMEZAAAAAAAAAAAAAAA8yfQygNEx/ewMwRkAAAAAAAAAAAAAANxJYAZQlNgen+Kzb4IzAAAAAAAAAAAAAAC4QmAGMClp+lmsmn2INjmCMwAAAAAAAAAAAAAAOCIwA6AzufhMcAYAAAAAAAAAAAAAwOQJzAC4wSTiM8EZAAAAAAAAAAAAAACTIzAD4Enrqvl3LSmK4AwAAAAAAAAAAAAAgOLtNqFuH9IhMAPglWJ7fJYUnwnOAAAAAAAAAAAAAAAozkFg9tE9AsC7rdsjVs0+QhstwRkAAAAAAAAAAAAAAEXYbf5NlzHFDIChrcc69UxwBgAAAAAAAAAAAADAKJliBsAIjG7qmeAMAAAAAAAAAAAAAIDROIjMTDEDYExi+J56FnP/hwrOAAAAAAAAAAAAAADI2m4TVsEUMwDKkcKzVa7/OMEZAAAAAAAAAAAAAABZMcUMgInIMjwTnAEAAAAAAAAAAAAAMDiRGQATllV4JjgDAAAAAAAAAAAAAGAQu82/m+tFZgCQSXgmOAMAAAAAAAAAAAAAoDddZPYRvqeZAQC/LaomxKE+ueAMAAAAAAAAAAAAAIC3EpkBwN1i+J54Fvv+xIIzAAAAAAAAAAAAAABeTmQGAC8RqyYs+vyEgjMAAAAAAAAAAAAAAF5CZAYAb7Poa9qZ4AwAAAAAAAAAAAAAgIeJzACgN71MOxOcAQAAAAAAAAAAAABwF5EZAAzqrdPOBGcAAAAAAAAAAAAAAFy12+zjsnQsrQYADG5dNfsA/OUEZwAAAAAAAAAAAAAAnCQyA4CsxaoJi1d/UMEZAAAAAAAAAAAAAAA/7Db7iSkiMwDI38ujM8EZAAAAAAAAAAAAAAB/I7OP8D3RDAAYj5dGZ4IzAAAAAAAAAAAAAICJ2m32cVk6TDMDgHF7WXQmOAMAAAAAAAAAAAAAmJhumpnIDADK8pLoTHAGAAAAAAAAAAAAADAB3TSzFJnVVgMAivV0dCY4AwAAAAAAAAAAAAAoVBeZpcM0MwCYjnXV7KeZPkRwBgAAAAAAAAAAAABQmN1mf5P5RzDNDACmalE1IT7yF/9YOwAAAAAAAAAAAACA8TPNDAA4kPYD8ZG/aMIZAAAAAAAAAAAAAMCImWYGAJzx0JQzE84AAAAAAAAAAAAAAEaoC81MMwMAztmGBwaWmXAGAAAAAAAAAAAAADASu81+ilmKzGqrAQDcYF01+0j9ZoIzAAAAAAAAAAAAAIDMddPMPoLQDAC4U9Xc15AJzgAAAAAAAAAAAAAAMtRNM0vH0moAAE9YVE2It77zH+sFAAAAAAAAAAAAAJCPLjRLkVltNQCAF0j7injrO5twBgAAAAAAAAAAAACQgd0mrNqHjyA0AwBe7+YpZyacAQAAAAAAAAAAAAAMqAvNllYCAHijOtw45cyEMwAAAAAAAAAAAACAnu02+5u+0yE0AwB6UTW3tWSCMwAAAAAAAAAAAACAnnShWYrMaqsBAPRsUTXXp5z9sU4AAAAAAAAAAAAAAO8lNAMAMpD2IfHaO5lwBgAAAAAAAAAAAADwJrtNWIXv0AwAYHBVc70nE5wBAAAAAAAAAAAAALyY0AwAyNSiai5POftjjQAAAAAAAAAAAAAAXkNoBgBkrm6PeOkdBGcAAAAAAAAAAAAAAE8SmgEAI/Fx7R0EZwAAAAAAAAAAAAAADxKaAQAjU197h5k1AgAAAAAAAAAAAAC4j9AMABixRdWEeO6NvU44azdVdfi/gvsINxRxnfQFfKY/tF/MyvcUAAAAAAAAAAAAABiC0AwAKEAdwvng7O0Tzg4is1dvqtIX9SlAAwAAAAAAAAAAAADeTWgGABQkVk1YnHvj24KznjdUMYjPAAAAAAAAAAAAAIAXE5oBACWqmvNd2cuDsww2VLE91u0XHX3rAQAAAAAAAAAAAIBHCM0AgJL1EpxluqFam3oGAAAAAAAAAAAAANxKaAYATMTZ7mr+ok3VNtNN1bL9t311mz4AAAAAAAAAAAAAgJPSPcfp3uMgNgMAJu6pCWfthqpuH7Yj+noXVROibzsAAAAAAAAAAAAAkJhoBgBMVKyasDj1hoeDsxHGZv8WI3yPfIt+LgAAAAAAAAAAAABgmkZ8PzQAwEtUzem27KHgrJDN1dkKDwAAAAAAAAAAAAAoU3cvdJpoVlsNAGDKXhacFVjyp2lnKz8iAAAAAAAAAAAAAFAuoRkAwC+Lqgnx+JXzBzZZpY2NXbZf11f3tQEAAAAAAAAAAAAAhdlt9vdAp6O2GgAA/5zcG83v/CDbghdomzaSwjMAAAAAAAAAAAAAKMNuE1ZpOEUQmgEA3Ozm4Kyr+kuXNpIpOlv50QAAAAAAAAAAAACAcToIzZZWAwDgPrMbN1x1CJMIzo6tq0Z8BgAAAAAAAAAAAABj0N33nCKz2moAAFxXNb/7slsnnE217F+myW7dxhMAAAAAAAAAAAAAyFS67zd8D9morQYAwOOuBmdpnOzEN13pa98KzwAAAAAAAAAAAAAgP+l+5/b4CkIzAICXmN2wAfuyTD+sq2Yf4QEAAAAAAAAAAAAAA+mGSWytBADAUxZVE+LhK+Y3bML4aZkivG7yGwAAAAAAAAAAAADQo3SPc3uk0ExsBgDwvPr4FfMrf2Fpzc6vTdqoivIAAAAAAAAAAAAAoB/d0IgUmtVWAwDgPf5cebuN2PX1Sf+HhNg+ro/HxwEAAAAAAAAAAAAAz+uGRJhoBgDQg/mVTRm32W9gu/9jAgAAAAAAAAAAAADwAume5vZIoZnYDACgJ/MLb6stz92W7Yb2S3gGAAAAAAAAAAAAAM/p7slNoVltNQAA3ubj+BWzCxs0m7PnxPZYV83+EQAAAAAAAAAAAAC4QZpqFkw0AwDoTdX8bMxMOHuf/UY3hXvdphcAAAAAAAAAAAAAuKAbmiE2AwAY0NwSvF0dvsOzlaUAAAAAAAAAAAAAgN/Svbbt8RUMzQAAGNzswqbty/K8xbpqxGcAAAAAAAAAAAAAsNvsA7NlEJoBAAyman42ZvMzG7eVpXqbZRr1222OAQAAAAAAAAAAAGCSunuWt0FsBgCQlbklGETaFG+FZwAAAAAAAAAAAABMTbp/Nt1HG74nmwEAkBnB2bDq0IVnlgIAAAAAAAAAAACA0plqBgCQ7R7tnz+WJAvp/9Lw1T6uq+bnNwgAAAAAAAAAAAAAxi5NNQvBkAYAgDEw4SwvyxSedRtqAAAAAAAAAAAAABi93WYfmonNAABG4mRwZsrW4LZpYy08AwAAAAAAAAAAAGCs0r2waRhD+8faagAAjIcJZ/lKG2vhGQAAAAAAAAAAAACjY6oZAMB4Cc7yV4fv8GxlKQAAAAAAAAAAAADIWTfVLIVmtdUAABgnwdl4LNNIYeEZAAAAAAAAAAAAADnq7nMVmwEAjNyl4GxtebL0NzyzEQcAAAAAAAAAAABgcAdTzZZWAwBg/Ew4G69t2pgLzwAAAAAAAAAAAAAYiqlmAADlORucVc1+80fe0sZceAYAAAAAAAAAAABA70w1AwAo07UJZ9ESjUIdvsOzlaUAAAAAAAAAAAAA4J3SoIT2+AqmmgEAFOlacPZpiUZlmTbvwjMAAAAAAAAAAAAA3qG7T3VrJQAAyjW7YVP4ZZlGa1E1ptQBAAAAAAAAAAAA8LzdZh+a1VYCAKA4sWrC4u8L81v+gjUbrW3a2KexxZYCAAAAAAAAAAAAgEeJzQAAivZjn3fLhLP0F4y9Hb/YHmsTzwAAAAAAAAAAAAC4lXuJAQCmoWr+78zmN7xzDKaclWC/2W83/StLAQAAAAAAAAAAAMA1YjMAgGma3/h+a0tVjGW7+f8SngEAAAAAAAAAAABwjtgMAGC6bgrOTDkrkvAMAAAAAAAAAAAAgF/EZgAA0za/431NOStTCs+23S8GAAAAAAAAAAAAAEyY2AwAgNmdG8i0eawtW7Fie6y7iXYAAAAAAAAAAAAATIjYDABguqrm/85sfudfXFi+ou1/SejCQgAAAAAAAAAAAACmxT2kAADcF5x1RGflq3eb8NUeK0sBAAAAAAAAAAAAUD4DCwAA+Ovu4KxqQmwfoqWbhKXwDAAAAAAAAAAAAKBsXWxWWwkAAJKZjSV3WHTBIQAAAAAAAAAAAAAF2G329wObbgYAMHFV839nNn/i46wt5eRsU2jY/WIBAAAAAAAAAAAAwPiJzQAA+OHh4KybdLWwhJNTB+EZAAAAAAAAAAAAwOil+0GtAgAArXj4wjMTzkRn01YH4RkAAAAAAAAAAADAKHX3f9ZWAgCA1ufhC/NnP5robPLSLxopOltZCgAAAAAAAAAAAIDRMN0MAICT5q/4IKIzWsvdJnwJzwAAAAAAAAAAAADy5n5PAAAumb/qA4nO6AjPAAAAAAAAAAAAAPK2tAQAAJwzf+UHE51x+ItIF57VlgIAAAAAAAAAAAAgD4YKAABwzfzVH1B0xpFt+4vJVngGAAAAAAAAAAAAkAXTzQAAuGj+jg8qOuNIHYRnAAAAAAAAAAAAAINyHycAALeYv+sDi844If2SIjwDAAAAAAAAAAAAGEZtCQAAuGb+zg+eorP2mLV/jJaao19WUnS2shQAAAAAAAAAAAAAvVlaAgAArpn38UmqZj/pLFpujn9p2W3Cl/AMAAAAAAAAAAAA4L12G9PNAAC4zbyvTyQ64wLhGQAAAAAAAAAAAMB71ZYAAIBbzPv8ZKIzrhCeAQAAAAAAAAAAAAAAwIDmfX/CLjpbW3ouSOHZ1uhmAAAAAAAAAAAAgJdZWgIAAG4xG+oTdzHR1reAK2J7rKvGZDwAAAAAAAAAAACAR+024csqAHeK7fH5qg9WNWGV8Tny2X/bR3vUfmSAEVsfnqdnQ/5LRGfcuVkRngEAAAAAAAAAAAA8QHAGRYrh9iAsuhc7m/Px6sKbhWvAINprxI/GbDb0P0h0xgObIuEZAAAAAAAAAAAAwB0EZ5CVGK6EYjlPA2Ow83gdTsdoS6sDPCu74OzgxLcMSlzu2GS1P8wLywAAAAAAAAAAAABwneAMXiqGC8GYWIwMzvl1+N1nCNOAcOHalV9wdnBS2wbRGfdZ25ABAAAAAAAAAAAAXCY4g5NiOB+OpQEZ0RJR8HVhdfQqQRpMWNbBWXfSEp3xCOEZAAAAAAAAAAAAwBmCMyYghjPxmPuM4e5rRh1+dh1iNChc9sFZd3ISnfEo4RkAAAAAAAAAAADAEcEZIxTD6YDM5DEY9nqyOnhRiAaFGEVwdnAScvLhUcIzAAAAAAAAAAAAgI57c8nE+tQr3fcLxVxnko9gABGMzmiCs+6Ek04yW982ntmU2oACAAAAAAAAAAAAUyc4441i+D2JzBQyQIQGIzKq4Kw7waSTiuiMZzexa5tWAAAAAAAAAAAAYMp2m/BlFbjDr2lkBkEAL7gW/T2PiKAho2v+8TV+NoZ/teiMF4lBeAYAAAAAAAAAAABMlClnBNPIgPyuTXX4nn5mChoMZ5zB2cFJZOkEwos2ysIzAAAAAAAAAAAAYHJMOSuaiWRACdepOoR//QjQ0x5itMHZwcljG0RnvEYMwjMAAAAAAAAAAABgQkw5G6UYjqaSCcmAiV23TD+D9xp/cNadMERnvHoTLjwDAAAAAAAAAAAAJsG9uFk5nkoW3dMKcPb6VQfTz+At+5EigjMbXd4kBuEZAAAAAAAAAAAAULjuhv2tlXg7MRnAe69l6RCfwQv2LMUEZza7vFHazC8sAwAAAAAAAAAAAFAq9+E+TUwGkNc1LR3iM3hwX1NUcGazS99PGAAAAAAAAAAAAIBSuA/3rNgen4cvi8kARnNtW7UPH+E7QANu0O5zfvVls0JOCDa7vJPwDAAAAAAAAAAAACjWbrO/D7eeyJcbw8+YLLhPFKDY61s6v5t6BlcUG5x1J4K6OxHUvtW8ifAMAAAAAAAAAAAAKFJBAyDWRy+bTgbgGrcKpp7BWUUHZwcngq2TAO/+RUR4BgAAAAAAAAAAAJQo82kwMZhOBsDj17g6GHQEv0wiOOtOAqIz+iA8AwAAAAAAAAAAAIrU3ZSfjj7jsxh+BmWmkwHwrmuc8Aw6kwnOuhOA6Iy+CM8AAAAAAAAAAACAYh3EZ8kzAdr68AX3XwKQwfVNeMbUpcB/cfzK2QSe/Fvfe3oiPAMAAAAAAAAAAAAmZ7f5ef+k+ykBGNl1rA7CM6brZAszm8gTX3TG4E82AAAAAAAAAAAAAAAgT8IzJupkAzMv/atuv+jYPix8/+nRsr3QfB3/3zoAAAAAAAAAAAAAAIA8pf6kPVJ/srYaTN18Kk/68B2dRd9yevQ3PKstBQAAAAAAAAAAAAAA5K+b9qRBYdJmU/uCd5uwDcYb0r90oVl38SMAAAAAAAAAAAAAAJC53WYfny2tBAVbnGpdZhN9wovOGEp6EgrPAAAAAAAAAAAAAABgBHabfX+SorPaalCaqjndls0m/IRfBZUpw4lBeAYAAAAAAAAAAAAAAKNg+BElEpydfrKnJ/rWjwcDikF4BgAAAAAAAAAAAAAA2dOhUBrBmSc7eYtBeAYAAAAAAAAAAAAAAFnToVCSc8HZ3MLsA5+FHxEGtr/gpBGb3cUHAAAAAAAAAAAAAADIjA6FgsRzb5hbm+8ne1fkRavBwOogPAMAAAAAAAAAAAAAgGyJzijE57k3CM5+PuHTkz1aCTJQB+EZAAAAAAAAAAAAAABkSXRGyQRnv5/wojNyUgfhGQAAAAAAAAAAAAAAZEd0RqkEZ6ef8AtPeDJTB+EZAAAAAAAAAAAAAABkRXRGiWaW4Lwu7NlaCTKULkjr7sIEAAAAAAAAAAAAAAAMaLcJq/ZhaSUYi6o535UJzq4/4esgOiNfMQjPAAAAAAAAAAAAAABgcLvNvj+prQRjIDjzpKd8MQjPAAAAAAAAAAAAAABgULtN+LIKjMGl4GxueW5exEUIYh6yVbfHNoWR3VQ+AAAAAAAAAAAAAACgfwtLwNgJzu7QRWdrK0HG6iA8AwAAAAAAAAAAAACAQVTNfthRtBJk7mIfJTi7/4m/CmpT/mPvXpPbxrEwgMKp/qs1mVyNliFxGV4NoTV5ARpCQmfciR968AGQ51SxXVOVTifXNnDhwcdbviYIngEAAAAAAAAAAAAAwOzywCOolsDZY9/4MQidUYcmCJ4BAAAAAAAAAAAAAMDcOiWgVgJnD/oQOouqQQWaIHgGAAAAAAAAAAAAAACz2O3DURWo1YsSPC+FeEIQ4qEqcXi6HJwEAAAAAAAAAAAAAABG9v52CZ0dVILS7PbfZ8oEzsZbBITOqFUnOQ0AAAAAAAAAAAAAAON7fwtnVaA0PwXOfinRaIVuhw+dSlChQ9rAcnIaAAAAAAAAAAAAAAAYj6wJ1THhbGTvb5cpZ71KUPNmZuIZAAAAAAAAAAAAAACMw5QzChPz4K0vmXA2sqHgcfjQqgQVM/EMAAAAAAAAAAAAAADGE5WAgpx++gUCZxNIobPhebEgUDnBMwAAAAAAAAAAAAAAeF6nBNRE4GxCebxcVAkqJ3gGAAAAAAAAAAAAAAAPSoONVIGaCJxNvyik0JkkKmsgeAYAAAAAAAAAAAAAAI+RLaEIu/3PuRCBs/k+Ea1KsBKCZwAAAAAAAAAAAAAAcJ+oBNTiRQnm8/4WmuFDrxKsTHdLuhUAAAAAAAAAAAAAALYsDX9RBZa22/+cJzPhbN5PSAzXSWdRNViR3xPPcqgSAAAAAAAAAAAAAAD4W6cELCze8osEzmaWQmfDI3TGGh2Gp39/uzyNcgAAAAAAAAAAAAAAABTldMsvEjhbiNAZK9YEwTMAAAAAAAAAAAAAAPiP3T4cVYEaCJwtu1Ck0FmrEqxUEwTPAAAAAAAAAAAAAAAAqvKiBMvLYZxeJVi5ODzdbm+yHwAAAAAAAAAAAAAA2/T+dplydlAJlrDb35YlM+GsjE9WDNdJZ1E1WLEmmHgGAAAAAAAAAAAAAABQNBPOCpPCOCEI47AJcXhOu/0lnQ0AAAAAAAAAAAAAAJvw/hbOqsASTDir9xNn0hlb0QzPIW2UeSQoAAAAAAAAAAAAAAAA04i3/kKBswLl0FmrEmyI4BkAAAAAAAAAAAAAAFsRlYAFnG79hQJnhdrtL4uH0BlbI3gGAAAAAAAAAAAAAMDanZSAkgmcFSyFzobnJUiusj2CZwAAAAAAAAAAAAAAAOOJt/7CF7Wqw/tb6IcPjUqwUV1a2PLkPwAAAAAAAAAAAAAAqFoa0qIKzCkPxbqJCWf1fFLbcA3dwBYdhqdPwcvhaZQDAAAAAAAAAAAAAABgGgJnFdntw3H40KoEG9YEwTMAAAAAAAAAAAAAAIB7xHt+scBZZXb7yydY6Iyta4LgGQAAAAAAAAAAAAAA9YpKwIxO9/xigbMKpdDZ8LxYXOA/wbOjcgAAAAAAAAAAAAAAUImTElAqgbOK7faXSWdRJeASPDu8v4Wz4BkAAAAAAAAAAAAAAMB/xHt+scBZ5XLorFUJ+E3wDAAAAAAAAAAAAAAAINvtBc62+kkXOoP/EjwDAAAAAAAAAAAAAAC404sSrMf7W2iGD4fhaVQD/tINT7w3lQsAAAAAAAAAAAAAAFNIQ1ZUgRmkLMVdg65MOFuRFKTJXwBRNeAvKYzZDxtyn8OZAAAAAAAAAAAAAAAAa3e6918QOFuhHDrrVAI+1QTBMwAAAAAAAAAAAAAAgE+9KMF65TBNrxLwrTg8p90+HJUCAAAAAAAAAAAAAIC5vL+Fsyowtd3+/vyYCWfr/oKIw4dWJeBbzfAc0kY9PEflAAAAAAAAAAAAAAAAtkzgbOVS6CwnEaNqwI8EzwAAAAAAAAAAAAAAgE0TONuI3f4y6SyqBNxE8AwAAAAAAAAAAAAAAKhd98i/JHC2ITl01qoE3Ozf4Fk/PI1yAAAAAAAAAAAAAAAwok4JKJHA2cbs9pcpZ0JncJ9meHrBMwAAAAAAAAAAAAAAoCLxkX9J4GyDUuhseF4e/aKBDWvC/4NnR+UAAAAAAAAAAAAAAABKlQdX3U3gbNtfNGnSWVQJuFszPIf3t3AWPAMAAAAAAAAAAAAAANZE4GzjcuisUwl4mOAZAAAAAAAAAAAAAABQmvjovyhwRgqdHYcPrUrAU34Hz4anUQ4AAAAAAAAAAAAAAGBBp0f/RYEzLnb7S2oxhc6iasBTDsPTv79dnkY5AAAAAAAAAAAAAACAmrwoAX9KQZnhQ6MSMIo4PF0OdQIAAAAAAAAAAAAAwMX7WziG69ATGN1u/3huzIQzPvuCSpPOOpWAUTThOvHsnJsBAAAAAAAAAAAAAACAYgmc8and/hKMaVUCRnUQPAMAAAAAAAAAAAAAACYWn/mXBc740m5/+eJqn/0iA/7yO3g2PI1yAAAAAAAAAAAAAAAAIzo98y8LnPGtFDobHqEzmMZhePr3t8vTKAcAAAAAAAAAAAAAALA0gTNukkNnnUrAJJrw/+DZUTkAAAAAAAAAAAAAAIBH7fbPZRMEzrj3i61VCZhMMzyH97dwFjwDAAAAAAAAAAAAAACWIHDGXXb7EMM1dBZVAyYleAYAAAAAAAAAAAAAANwrPvsbCJxxtxQ6Gx6hM5jHv8Gzfnga5QAAAAAAAAAAAAAAAL5xevY3EDjjYTl01qkEzKIZnl7wDAAAAAAAAAAAAAAAmNKLEvCsHH7pVQJm1+324agMAAAAAAAAAAAAAAD1SQNJQjCQhHHt9s/nxQTOsNBB/QTPAAAAAAAAAAAAAAAq8/4WzqrA2MYInP1SRkb8gmyHD1ElYHaH1Gik0GeeOAgAAAAAAAAAAAAAAGxPHOM3EThjVDl01qoELKIZnl7wDAAAAAAAAAAAAAAANuk0xm8icMbodvtLGlLoDJbThGvwLE09OyoHAAAAAAAAAAAAAABsQhzjN3lRR6aUJi2FYNISFKBLG0cOhAIAAAAAAAAAAAAAsLA0ZEQVGNNuP05WzIQzpv5CTZPOokrA4g7hOvUsPY1yAAAAAAAAAAAAAAAAnxE4Y3I5dNaqBBShCf8Pnh2VAwAAAAAAAAAAAAAAVqEb6zcSOGMWu/1lyplpZ1COZngOaQSr4BkAAAAAAAAAAAAAAPCvFyVgbmmyUriGXYCypDRzzAFRAAAAAAAAAAAAAAAmkgeHHFSCEbVj5QFMOGN2wxdvmnTWqQQUJzUrfQqFDk+jHAAAAAAAAAAAAAAAUIcxh88InLHUF/Fx+NCqBBSpCdfg2Tmn5gEAAAAAAAAAAAAAgHLFMX8zgTMWk5KTw/My9hc1MKqD4BkAAAAAAAAAAAAAABTtNOZvJnDG4nb7y6SzqBJQtH+DZ2nyWaMcAAAAAAAAAAAAAACwTgJnFCGHzlqVgOI1w9Pn4NlROQAAAAAAAAAAAAAAYFm7/bj3+1+UlJLkyUm9SkBVurE3JwAAAAAAAAAAAACANXt/C2dVYCy7/bgZMRPOKO0LPOYv8qgaUI1Danby1LNGOQAAAAAAAAAAAAAAYDbd2L+hwBlF2u1DO8UXPDCpZnj6HDw7KgcAAAAAAAAAAAAAANRH4Ixi7faXwEqrElCdJvx/6tlROQAAAAAAAAAAAAAAYDJx7N/wRU2pQZqYFK4hFqDeDazb7cffyAAAAAAAAAAAAAAAapMGfKgCY9jtx8+HmXBGLV/8adJZVAmoVjM8fQqPmnoGAAAAAAAAAAAAAGyZO9WMKE7xmwqcUY0cOmtVAqrWDM8hpfE1SQAAAAAAAAAAAAAA8JTTFL+pwBlV2e0vyUvTzmAd/g2epalnjXIAAAAAAAAAAAAAAMBd4hS/6Yu6UqsUUglBSAVWttGddnuTzwAAAAAAAAAAAACA9Xp/u9yZPqgEz9rtp8mGmXBGzd8UadJZpxKwGk34/9Szo3IAAAAAAAAAAAAAACslbMYY4lS/sQlnVO/97RJS6VUCVrsBdrv9dBshAAAAAAAAAAAAAI/7ZNDAo0GaODynf//Hbm+AAav+vjmrAiPoplorBc5Y04KbQmeNSoDNEAAAAAAAAAAAAIDxfQiXvYb57m7HcA2iRUMMWNH3ksAZY2inWhcFzlhjA2O0JKxb58AAAAAAAAAAAAAAML0PAbOS7mjH4TkZZEDl31sCZzxtWAcny4UJnLHGhbcZPvQqAauXDgud4BkAAAAAAAAAAADAeHLIbM4JZs+IQfiMOr/HDNrhaQJn8Ngi3FfS5ADP6xwUAAAAAAAAAAAAAB5TWcjsKzEYZkA9328CZzxr0jv0AmesfSEWOoNtcVAAAAAAAAAAAAAAuMH72+WedXrWFnyJwdQzyv7eOwaBM54ncAYjNEK9SsCmOCgAAAAAAAAAAAAAfCLfr05hl2YDf93WIAMK/B48BoEznjSsbZNmwgTO0BQBa9cNT3RYAAAAAAAAAAAAALZswyGXGK6TgKKvAgr5XjyrAs8SOINxF+Y06axRCdgkhwUAAAAAAAAAAABgU/LgjvSYpnQdYNAqAwV8Xwqc8ax0L/445X/glxqzJblB0CTANqXDUp8atPyGDgAAAAAAAAAAAIBVSncl87CO9AibXTX5HmmjFADfM+GMrTZQTW6cNAuwbTGYegYAAAAAAAAAAACsRH4pv4DZz0w7w/co1RrWr8nzYAJnbH2xTon9RiXAoWF4TlOPFQUAAAAAAAAAAAAYm2EcT2kNLmDm79djEDjjSXMEzn4pMxv/JkupdMl04HLQymOSj0YlAwAAAAAAAAAAAKXLdx7TAA5DOB7XuzcKVKab4z9iwhkEqX7gUzGYegYAAAAAAAAAAAAUJN97To8JSeOKeZgJTP09LCDKs2aZzChwBhZv4Ged4BkAAAAAAAAAAACwFAM2ZiF0xhzfy2dV4BnDOjVLFkzgDD5vxnqVAD47SIRr+CwqBQAAAAAAAAAAADC197fLC/NNM5uP0BlTf08LnFHFGvVLreG/cpAkfQNG1QD+0AxPnxq9fIADAAAAAAAAAAAAGFUaoDE8fQ6mCJvN61J7ZWCq721V4Emnuf5DJpzB9wt6ahYs6sB3YjD1DAAAAAAAAAAAAHiSaWZFMekM3+OUqJ3r3rrAGfy8qDfDByl14BYpeHZUBgAAAAAAAAAAAOAW+a5yeoRQyiN0xtjf70ff6zxjWJNmy4EJnMHtjdwhmHYG3KbLh4yoFAAAAAAAAAAAAMCfcvDkNbifXLrWfVBG/L7vfc/zhFlDsAJnYIEHJtzUh+dk6hkAAAAAAAAAAABgmlm1hM4Yaw04qwJP6Oa8ly5wBo81er1KAPdu8MHUMwAAAAAAAAAAANicfP84hcwa1ajTbi97wShrgcAZz5g1/GrRA00fMK+0yZt6BgAAAAAAAAAAACv3/na5K2ia2TqkoQOtMvDEetAEg294wtzBV4EzeG7RTwt+oxLAg0w9AwAAAAAAAAAAgBUx2GLVWnc+eWJtOAYBVB43e+j1l5rD4/I3rKQ68KjUNPYpvJqbSAAAAAAAAAAAAKBC6R7g8JxDMNBixUynApZymvs/aMIZjNMgpqbQmwiAMZh6BgAAAAAAAAAAABVwh3iTZp8yxGrWC2FUHjasO7PnvwTOwCYAFHogGZ7T0BwclQIAAAAAAAAAAADKkaaZhWvQjG1qDRbggXXjrAo8SuAM1rERNMG4VGBcpp4BAAAAAAAAAADAgvId4fQImmHKGY+sIQJnPKpbYojJL3WHceVASGogomoAI0mH0z5NUcxvRQEAAAAAAAAAAABmkO7tpft74TqQQtiMpMkBRLh5HVEFamPCGUy/MWgsgSmYegYAAAAAAAAAAAATMM2MG5hyxj1rytF6wqOGtWaR7JfAGczTcPYqAUx1YBme0xJjUgEAAAAAAAAAAGBNcijkNQTTq7hJa3AAN64tvXWFBy0Wbv1H7WFauYl4sUkAE0nrShrNnN56YOoZAAAAAAAAAAAA3ME0M56Qvm6iMnDj1wo84rTUf9iEM5i3IT1qRoEZpMOLqWcAAAAAAAAAAADwBdPMGMNuL5PBTevNWRV40GKTFC1uMP9mkZrSXiWAmaQGozP1DAAAAAAAAAAAgK0zzYwJdAYE8MO6c7Tm8KglQ63/KD/M/g0fhw8vw8bRB29EAKZ3ORwPa45DDQAAAAAAAAAAAJtkmhkTelUCYCLdkv9xgTNYyG4fWtPOgJkdhnUnvSEhBlPPAAAAAAAAAAAAWDHTzJhJowT8QCiRKr0oARTRzB40G8BCTD0DAAAAAAAAAABgNUwzYwHuYvLdmnRWBR4xrCuLZr5MOIPlF4E4fIjDRtJrbIEFfJx6dnLgAQAAAAAAAAAAoDYGQACwMnHpP4AJZ1Bes9urBLCwLjUpORALAAAAAAAAAAAARcrTzA4qwdKWnkSENYrVWXxy4i+fAyiq0YjDhzYEIQ9gUamx7dPkxdzoAgAAAAAAAAAAQBHSgId8v+0cBDkAWKe49B9AihbKbYaPmmCgIKaeAQAAAAAAAAAAsBh3aylc644ln6xb/fChUQnuVcLURBPOoNwFIjXFrUoAhfh36tnZ1DMAAAAAAAAAAADmYJoZFWmUAF8XjKQr4Q/xj88DlCun3F8km4HCHIZ1KR3c0xrVeSMHAAAAAAAAAAAAY0khs3C9NytgBgALeVECqKp57lUCKFRK0kfhMwAAAAAAAAAAAB7x/haOw4fXYEgDdUov8D8qA3+saYKz3G1YS4rIev3yqYBqFo04fGhDEOYAipQa4j6PLndgAgAAAAAAAAAA4EdpIEO6czY853C9h9aoCpV6VQJgBLGUP4gJZ1Bnc91rqIFKGp7O1DMAAAAAAAAAAAA+MvmHNSplKhHFrHPu/POIYqYlWtCg3g0obT69SgCaHwAAAAAAAAAAAEqX776aYsZqCZzxx5p3VgVqXkcsaFD/RiT5DNQkDs9J+AwAAAAAAAAAAGAbTDNjKwTO+LDuNcFwGSpfR/7x6YDqF5RWIw5UJDXQzbBupTWrG544rGNRWQAAAAAAAAAAANYj3219DYYqANtk7eMRXUl/mF8+H1C/PCmoDUFoA6hKCp31aWRw/uECAAAAAAAAAAAAlUoTfdJdsHQnLFzvhzWqAgA3iyX9YYxshPU1670GHai8UTrlIC0AAAAAAAAAAACFyy8cP6gEW7fby2fwe108qwK1ryEWNFjnBtUMH3qVACqXxsLGoXmKSgEAAAAAAAAAAFCOfFfVFDP4QOCMD2ukwBn36kob2PGPzwmsslmJw4cX086AyqUfRhyGtazIJgoAAAAAAAAAAGBLcsgsPaaZwd86JSCvlUdVYA1+KQGs124fWs0LsBIpeHZOQVqNOAAAAAAAAAAAwHzSna08BCE9wmYAMLISB3OYcAYbWHiGJj8GY4uBdUjrWDOsa2lNS4HamKc6AgAAAAAAAAAAMJI8zczdU4D7vSoBd4ol/qEEzmADchgj5rdLaPyBtUg/zEiTz5KuxGQ/AAAAAAAAAABALXLILD2mmAE8rlEC7nQq8Q/14vMCmzwM9CoBrFRMTZfwGQAAAAAAAAAAwG3e3y73rdJEnkY14DG7vWwG7uqzrvXDhDPY3mIUhw8vpp0BK5XWtWZY49IbdrrhiXndAwAAAAAAAAAAIMuhiHTPqlENgNFYU7lXLPUP9svnBrZptw9tuIYxANYq/TCkf38L5/wGHgAAAAAAAAAAgM1KIbN0lyrdqQrB4AIYUVQCslcl4E6nUv9gxjaCw0M6LHhDBbClQ91ptxdAAwAAAAAAAAAAtiG/sDuFIBrVgEl07iWS19uzKnCPYe0oNtclcAZ8PEwcVALYkJgPeVEpAAAAAAAAAACANTGQAGbVuotIXnd7leAeAmeATQ6gbN3wRAc+AAAAAAAAAACgVvkeaHoMIIAZlRwYYdY1+Gj95U5FT0f8x+cH+NDsxOHDy7DZ9cEbLYBtSQ3+YVj/0jp4MtoaAAAAAAAAAACoRQ45vAZ3P2EJnRKQvSoBd4ol/+EkaYGvDh/p0GHaGbD1Jk74DAAAAAAAAAAAKI6QGRSjzUM/sC6fVYF7lD4dUeAM+G7TS4eQg8MIwOUNJNGhEAAAAAAAAAAAWEq+15meg2pAGUoPjDDrGi1wxj260odiWNyAWza/o8MJwP8bvCB8BgAAAAAAAAAAzMQ9TihW8YERrNMUq/jpiAJnwK2bYBNMOwNwWAQAAAAAAAAAACaXwwuvwb1NKJbpZvyxZgucsar1wwIH3LsZ9g4vAH+Jw3MSPgMAAAAAAAAAAB5lOABUJe72oVUG8vp9VgXuUMXAC4Ez4NEDTa8SAJ8fInMjGJUCAAAAAAAAAAD4Tr6TmR6TcaAurXuCfFjLBc5Y3fohcAY8szGadgbwvS5c32LiUAkAAAAAAAAAAPz2/naZbCJkBnUy3QzrOQ8b1o8qslz/+FQBTyx0rWlnAN9KB4jDsFYmwmcAAAAAAAAAALBhOZTwGrzsH2rXKQGw9vXDhDNgrEOQaWcAt4nDc9rtLz88AgAAAAAAAAAAViy/2D+9uLpRDVgF0834c50/qwJ3aGsZXiFwBoy5WR6DcaAAdx08g/AZAAAAAAAAAACsSg6ZpcedSlifasIizLbmC5xxs2H9qCbHJXAGTHFI8iYOgPulA2jnIAoAAAAAAAAAAPURMoNN6Lxgnj/W/qN1n7WuIQJngM0ToMCGMlzHbkelAAAAAAAAAACAcuX7kq/Bi/ph9WqaTMSse4A789yqqgmJFjxgyg20CaadATxL+AwAAAAAAAAAAAoiZAab1LrHxyf7wVkVuFVtoVWBM2COjbR3qAIYhXHcAAAAAAAAAACwgPwS/vSYZAPbk14a3yoDn+wLvUpwo+ruAAucATZUgAoPr8NzEj4DAAAAAAAAAIDpCJkBSW1TiZhtjzjaH7hDdVMSLXzA3BuraWcA40rNp/AZAAAAAAAAAACMQMgM+EN1IRFm2y/ci+dmNQZXBc6ApQ5jpp0BjC8daoXPAAAAAAAAAADgTnlSzWsQHgD+r3Mfj2/2jbMqsOa1ROAMWHKTleoGmLA5HZ7ozSoAAAAAAAAAAPA5ITPgG+n+XasMfLF/pH3DABZuVeWkRIEzwGYLsH7CZwAAAAAAAAAAEITMgJsIm3HLXnJQCW4xrCdVZrcEzoASNtwmb7gObwDTEz4DAAAAAAAAAGBT8j3F9AgHAD+qNRzCrPtKH9x95zbdsKYca/yDWwiBkjbeo8McwLxNbBA+AwAAAAAAAABghYTMgAe17tRxwx5zVgXWvqYInAElHvBMOwOYX7VvUAAAAAAAAAAAgETIDHiSsBm37jW9SnCLmicmCpwBpW7ERwc+gEWkw/JJ+AwAAAAAAAAAgBoImQEjETbj1n3naM/hRlUPgxA4A0o/BJp2BrCcdHgWPgMAAAAAAAAAoDj5wv9rcMcQeJ6wGffsP2dV4BY1TzdLBM6AWg6FUuAAy0qHaeEzAAAAAAAAAAAWI2QGTEDYjHv3IoEzbhGHtaWt+S8gcAbUsjGnw6FpZwCFNMFB+AwAAAAAAAAAgBkImQETEjbjkT3JIBVu0dV+z1bgDLBJA/CMdNgWPgMAAAAAAAAAYDRCZsAMhM14dH9yl50fDetL9XktgTOgxo06HSB7lQAoTjp8C58BAAAAAAAAAHA3ITNgJjFcJw9FpeCBveqsCtyyzgxrTFv7X0LgDKh5w+4dLAGKPpQLnwEAAAAAAAAA8CUhM2BmqwiBsNielfYqQ1O4RbeG+7MCZ4CNG4DJD+lB+AwAAAAAAAAAgPD73l96DqoBzEjYjGf3r6O9i1sMa80qsloCZ8BaNnDTzgAqObQH4TMAAAAAAAAAgE0RMgMW1u72l7tr8Mxe5r46t1hNuFXgDFjbgdS0M4CKmuogfAYAAAAAAAAAsEpCZkAhhM0Ya187qwJbWnMEzoA1bubS4wD1Sc218BkAAAAAAAAAQMWEzICCrGbKEMXsbwaj8KNh3VlNTkvgDLCpA1DcQT8InwEAAAAAAAAAVEHIDChQ5/4ZI+91R/scW1t7BM6AtW/upp0B1C0G4TMAAAAAAAAAgKIImQGFiuEa+IhKwcj73lkVuEG7pvVH4AzYysHWtDOAdfwwQPgMAAAAAAAAAGABQmZA4eJuH1plYKI9UOCMza1BAmfAljZ6084AVtSYB+EzAAAAAAAAAIBJCZkBlWhNNWPCvfBoH+QG3drutAqcAVs8/Jp2BrAuMQifAQAAAAAAAACMQsgMqEgM15BHVAom3BcNPeFHwzq0unyWwBlg4wdgTWIQPgMAAAAAAAAAuIuQGVChzj0xZtojz6rAD+KwHrVr+0sJnAFbPyCbdgaw4gY+CJ8BAAAAAAAAAHxKyAyoWGuqGTPule6bs8k1SeAM0AiYdgawBamRFz4DAAAAAAAAADZNyAyo3CqnCFH0vnm0Z/KTYV1aZTZL4AwgSJ8DbEwMwmcAAAAAAAAAwEYImQEr0bnzxQJ76FkV2OraJHAG8N+mwLQzgA02++H65puoFAAAAAAAAADAGuSJLK/BfTigfjFcAx1RKVhgPxU44yftWtcngTOAvxuDdMA+OGgDbJLwGQAAAAAAAABQJSEzYIXSXa5WGVhwXzUdlG8Na9Rqc1kCZwCaBAA+J3wGAAAAAAAAABRNyAxYsdbdLRbeY3v7Kz9I0xePa/3LCZwBfN8opCbBtDMAhM8AAAAAAAAAgCIImQErZ6oZpey3Z1XgO2uebpYInAHcfkA37QyAJA7Pac1vpQAAAAAAAAAAyiJkBmxE514Whey7ab/tVYJvrD4cK3AGcF/jYNoZAP85MAThMwAAAAAAAABgZPm+WnqEzICtaHf7y30sKGEfPgbDStj4miVwBqCBAGAc6eAgfAYAAAAAAAAAPORDyMz9NGBLVj8liCr35LMq8J1h3Vp9HkvgDODxg71pZwB8JQ7PKVx/GBKVAwAAAAAAAAD4jJAZsHGmmlHq/ixwxne6LQwnEDgDeK6ZODroA3DL4SIInwEAAAAAAAAAQcgMIJhqRtn79NEezXe2MN0sETgDGOfwb9oZALcSPgMAAAAAAACAjcmX11+De2YAm5gMRNV7dm+/5hubCcwKnAGM11ykxqJXCQDuOXgMz8kPUAAAAAAAAABgfYTMAP4jhmvYLCoFhe/fZ1XgG5sJzQqcAYzfZEi1A/CIGITPAAAAAAAAAKBqQmYAn9rMRCBWsY8fVIKvDGvZZnJY//h0A4y+ibSmnQHwgLR3NMMekg6rcXhO4fqDlqg0AAAAAAAAAFCmfFcsPS6nA3yudQcKWIluS39ZE84AJmTaGQAjHlKEzwAAAAAAAACgAEJmADcx1Ywa9/izKvCNTQVoBc4Apm88mmDaGQDjubwhYzi0HJUCAAAAAAAAAObx/vb7/6cXMgP4malm1LjXN8Gdb762uRDtPz7nANPKDfNL/oGDHzYA8KxDPtymj2mPOQmfAQAAAAAAAMD48p2v13CdZgbAz+LwdMJmVMp+z3dOW/sLm3AGMKOcfD9oSACYQMwHmugHNgAAAAAAAABwv3y/Kz1CZgD367w4m8r7gLMq8JVhfdtc/krgDGCZhiQ11KadATClLgifAQAAAAAAAMC3PoTM3OcCeEwMppqxjp5A4IyvbDJQK3AGsFxT0gTTzgCYRxyekzcIAQAAAAAAAMDvF4YnQmYAz0kvxG6VgZX0BvoCvtJuMVQrcAagQQFgW9KhR/gMAAAAAAAAgE3J97RegxeEA4ylNdWMFfUJvR6BL2w2WCtwBqBRAWDbunwgikoBAAAAAAAAwFq8v13uYqVHyAxgXKaasca+4awKfKHb6gv+Bc4AympWmuFDrxIALHUwSv8w/QwAAAAAAACAGn0ImR1UA2ASppqxxv7hqHfgK8Oat9nclcAZQJmNi2lnACwtDs9J+AwAAAAAAACAkuVL4omL4gDTMdWMNfcS7m3zlW7LdygFzgDKbV5S43LQwABQysEpXH9wFJUCAAAAAAAAgCXlkNlrcLcKYA6dl1az8r7irAp8ZsvTzRKBM4Dym5jUpHv7DgAlicH0MwAAAAAAAABmkl/enR73qADmE8M1bBaVgpX3GL1K8NkauPXJjgJnAPU0M6adAVDkoWp4TsH0MwAAAAAAAABGlF/UnQiZAczPVDO21G/oNfhMu/U7kQJnAJoaABhTF4TPAAAAAAAAAHhAvh/1GryYG2ApMZhqxrZ6j7Mq8JlhHdx83krgDKDO5iaNbm1UAoDCxeE5edsRAAAAAAAAAJ95f7vcgUqPl3ADLM9UM7bYh/QqgfXwcwJnAJocAJjtEBZMPwMAAAAAAADYNFPMAIoTg6lmbLcnEXrnL6abXSkCgGYHAJbQ5YPZUSkAAAAAAAAA1uvDFDMhM4DymOLDlnuUsypgXfyawBnAOhqeJlxDZ41qAFChODynYPoZAAAAAAAAwCrkl2gnXqQNUKYYTDVDvyJwxmdaa+OVwBnAuhqfY/BDGgDqZ/oZAAAAAAAAQGXy3SVTzADKl14K3SoD+hZ3rrE+fkfgDGB9DVATTDsDYEUHuGD6GQAAAAAAAEBx8j2l9LisDVAPk3vg2sf0wV1r/tZ5Uf7/CZwBrLcRSk1QrxIArO1Al/7hUAcAAAAAAAAwP1PMAKplag/8t6c5qwJ/GtZJGasPFANg/Q2RBD4AaxWD6WcAAAAAAAAAkzHFDGAVTDWD//Y3R70NnzDd7A8CZwDbaIya3Bg1qgHAmg986R8OfQAAAAAAAACPM8UMYDVMNYPPex3DPPiL6WZ/UxCAbTVIxyCRD8A2xGD6GQAAAAAAAMCPTDEDWCVTzeDr3uesCvxBQPcTAmcA22uSmmDaGQDbY/oZAAAAAAAAQJZfXJ0ImQGsi9AE/NwD6X/4k5DuJwTOALbbMDXDh14lANigdDA0/QwAAAAAAADYDFPMADZBYAJ+7on6YGgH/yWo+wWBMwCN0zH4QRIA22b6GQAAAAAAALA6+V7Qa3CpGmDthCXg9v7orAr8QVj3CwJnAPz7BqMUOmtUAwAuATTTzwAAAAAAAICqmGIGsEmCEnB7r3TUJ/GnYQ2Vq/rCP0oAQD5sRI0UAFykvfAw7ItJ2iNPpp8BAAAAAAAAJTLFDGCzOvdZAJ5fS5Xga5J4APzl/S30wQ+hAODLA6Yf2AEAAAAAAABLMMUMYPNiuIbNolLA3X3UWRX4yHSz7ykOAF81VU24/mCqUQ0A+FQcnlP66Id4AAAAAAAAwBQ+BMxMMQPAVDN4rqfqVQJr6u0EzgD4qcFKG6k3IgHADQfQ9A+HUAAAAAAAAOAZ+b5O4s4OAEkMpprBGP2V3oqPWuvq9wTOALilyWqCaWcAcK8UQDP9DAAAAAAAAPiWKWYAfMMEHhin3zqrAh+ke32tMnxP4AyAe5qtJhgnCwAPHVCH5xQE0AAAAAAAAIDwe8qGgBkAX4nBVDMYq+9K/Zb7z3xkutkNBM4AeKTxOgZjZQHgGWn6WfAGKgAAAAAAANiGfN8mcecGgJ+Yagbj92F6MP5lutmNBM4AeLT5anLz1agGADxNAA0AAAAAAABWJN+tSY8pZgDcKgZTzWCKvuysCnwg1HsjgTMAnm3CmmDMLACMKQ7PKVzfpBKVAwAAAAAAAOqQp2cImAHwCAEImKY/S32Ze878Nqy1clQ3UigAxmrIUjPWqAQAjC4Oz8kPFQEAAAAAAKAsOWCWHFQDgAelFxK3ygCT9mt6Nf4l3HsHgTMAxmzKmtyUNaoBANMdetM/HHwBAAAAAABgXvluTHpMMQNgDO1uf3kRMTBd/3ZWBf5lutl9FAuAKZqzY/A2AACYiwAaAAAAAAAATEDADICJmGoG8/VyvUqQmW52J4EzAKZs1FKT1qgEAMwmDs8pXH8wGZUDAAAAAAAA7pNftJx42TIAUzDVDObt6/R0XJhudj8FA2DqZq3JzVqjGgAwuxgE0AAAAAAAAOBLAmYAzMRkHZi/zzurAtbgxwmcATBX05Y2aT+YA4BlxeE5OTwDAAAAAACwVfnlyel5DV6gDMD0YrgGHaJSwOw9X68SZKZLPkDgDIC5G7jUvDUqAQBF6NI/BNAAAAAAAABYKwEzABZkog4s1wOm7z2DMkjisBa3ynA/gTMAlmjimtzENaoBAEURQAMAAAAAAKB6+YKxgBkAS4nBVDNYuh88qwKZ6WYPEjgDYMlm7hi8PQAASiaABgAAAAAAQPHyHZTEPRQAlibYAMv3hs3woVcJgulmTxE4A6CExi41dY1KAEDZh+/hOeVDeFQOAAAAAAAAliJgBkCBhBqgrF5Rn0giBPwEgTMASmnumtzcNaoBAFVIB3EBNAAAAAAAACaX75Wkx8VhAEok0ABl9Y5nVSAIAj9N4AyA0pq8Y/DDQQCo8oAeBNAAAAAAAAAYwYeA2Wvw8mIAytXt9r+nbgLl9JG9ShCEgZ8mcAZAqQ1favYalQCAaqXDugAaAAAAAAAAPxIwA6AyMVzDZlEpoLi+8hgMvmAwrNHyUk9SQABKbvqa3PQ1qgEA1YtBAA0AAAAAAIAgYAZA1Uw1g7L7zLMqYK0eh8AZADU0f2nD97YBAFiXGATQAAAAAAAANkHADIAVSPcbWmWA4nvOXiUw3WwcighATY1gagIblQCAVYpBAA0AAAAAAGAVBMwAWJnWXQaoogc9BgMuMN1sNAJnANTWDDa5GWxUAwBWLQYBNAAAAAAAgCoImAGwUkILUFdPelYFTDcbj0ICUGtT2ARjbwFgS2IQQAMAAAAAACiCgBkAKxfDNWwWlYL/sXevV20kQRhAKwFiYhSNw0AKw9GoickBaKeZwRZaGwTMox/3niNL7M/iLFOl6W+KqvpT54oRFF6QwBkAtTeIuSmw/hYA+pNCAA0AAAAAAGATAmYAdERYAersV/P/t84Td852s2UpJgAtNInD3CQOqgEA3UohgAYAAAAAALAIATMAOpTPGxyUAartXy+q0D2B4YUJnAHQUrM4hHW4AMAkxRRAC18kAAAAAAAAvE/ADICOpZhCCkkpoOpe1vnhztlutjwFBaDFxvEY1uICAP93yv8IoAEAAAAAAL0TMAOAF7bhQBu9bf7/2Llhf8/9PV+YwBkALTeQ+WkFg0oAAP8ggAYAAAAAAHRBwAwA3khhqxm01OteVKFvtputQ1EBaL2JHGJ6asGgGgDAB07ze/KlMgAAAAAAULN5y0MmYAYAbx2cCYCm+t7c655Vomu2m61E4AyAXhrK3EhYlwsAfEYaX88hgAYAAAAAABTuKmDmbAQA/J1AArTbB+uBO2a72XoUFgCNJQDAfVIIoAEAAAAAAAUQMAOAu6WYwmZJKaDJvviiCl0TJl6RwBkAPTaXQ0xfuA6qAQB80yn/44sLAAAAAABgLfM5h2H+UcAMAO4niADt98lnleiX7WbrUlwANJoAAMsRQAMAAAAAAL7lKmD2GB6mCwBfkR5+xEEZoPm++RgeyNAzoeKVCZwBoOHUcAIA60nj6zmmL7OTcgAAAAAAALfmcwuZgBkAfE+KKYCQlAK66KMvqtAv283Wp8AA8KfxzNvOBpUAAFaUYgqg2YIGAAAAAACdugqYeTguACzHphvor6fWT/ubz4oEzgDgbQM6zA3ooBoAwEZO+R9fggAAAAAAQHvmcwjD/KMDsQCwvPTwIw7KAN312ZZMdMx2s20oMgD8vRHNTehZJQCAHaSYtqDlL8WTcgAAAAAAQD2uAmaP4QAsAKwpxbThJikFdNl3X1ShW7abbUTgDADeb0hzQ+IJYwDA3mxBAwAAAACAAs3nCjJnCwBgO8IGoAfXf3fKdrPtKDQA3NecWr0LAJTkNL/bggYAAAAAABu52l6WOeAKANvL98gPygDd9+XO9PZL4HhDAmcAcH+DmpvTJ00qAFCgNL6e8wdfqgAAAAAAwDKutpc9hrMCALCnFFPIICkFMPbpF1Xok+1m21JsAPh8ozqMb2eVAAAKZwsaAAAAAAB8wlXAzPYyACiHbTbAbc+uX3c9YAMCZwCgaQUA+pDCFjQAAAAAAHgxP2w2v2wvA4Ay5YerHpQBuOnjz/r3Ptlutj0FBwDNKwDQL1vQAAAAAADogu1lAFCNFNMWm6QUwF/6+osqdMl2sx0InAHAMg3sENOX0oNqAAAVS2ELGgAAAAAAlbO9DACqJVAAvNfn578PHiDRIdvN9qHoALBsMzuMb2eVAAAakmIKodmCBgAAAABAkWwvA4Dq5fvRB2UAPuj78/ncQSW6I4y8E4EzAFinqc2NjS+yAYBWnfI/vswBAAAAAGBrtpcBQFNSTEGCpBTAHXOAhRAdst1sPwoPAOs2uJ6mAAD0IMW0BU0IDQAAAACAxVyFyzIPfQWAthwEzYBPzAZHM0GXbDfbkcAZAKzf5A5zkzuoBgDQkdP8ntwkAAAAAADgHvMh0sz2MgBol/AA8JVZ4aIK3clnjg7KsB+BMwDYrtkdQvAMAOjbSwjNzQMAAAAAAGwvA4DupJjCZkkpgC/MDmeV6I5NmDsTOAOA7RvfY/iyHAAgS+PrOX8QQgMAAAAAaNvV9jL3ywGgLykEzYDvzxLmiM6uHbab7U/gDAA0wAAAJUkhhAYAAAAAULWrcNlj/NliBgD05+S+L7DAfHFRhe7YblYAgTMA2LcJHmIKnQ2qAQDwT6f5PfkyCQAAAACgLPN97/wSLgMAXtlMAyw5b5xVwjWE7QmcAUA5DbHgGQDA/YTQAAAAAAA2dhUuy55UBAC4kWLaapaUAlhoBjmaPbpju1khBM4AoKzGeAhPYgAA+CohNAAAAACAhQiXAQCfJCAArDGXXFShK7abFUTgDADKbJCP4Qt7AIAlvITQHn689FcAAAAAAPzDfJ86e4w/QTMAgI+c3I8FVpxRnKXtyHg9kXEqiF8GAGiWAQB6ksbXc/7gpgcAAAAA0CvhMgBgAbbQAGvPLWfzSlcEmAsjcAYA5TfMuVl+0jQDAKwmhRAaAAAAANAo4TIAYGEpplBAUgpg5Vnmogr9sN2sPH4hAFBP4zyE4BkAwFZSCKEBAAAAAJURLgMAVmb7DLDlbPOkEq4v7EfgDADqa6KH8e2sEgAAuzjN78kT+wAAAACAPQmXAQAbEgQAtp53zuacfthuVia/FACot5nOA7ynNwAA7E8IDQAAAABYlXAZALCTFFPYLCkFsPEMdFGFbhxcZ8okcAYA9TfVxxA8AwAojRAaAAAAAPAlwmUAQAFSCJoB+85EzsV2cr0ZrzUHZSiTwBkAtNNgWx8MAFA2ITQAAAAA4A3hMgCgQDbNAHvPSbabueZQAIEzAGiryR5ieqrDoBoAAFVI4+s5f3j48ftgCQAAAADQmPle7jD/KFwGAJTo5J4lUMjsdFaJLthuVjiBMwBot+EWPAMAqFOKOYQWtqEBAAAAQHVuwmVPKgIAFM6Bf6CkeepojuqG7WaFEzgDAI03AAB1OM3vQmgAAAAAUAjhMgCgYimmrWZJKYCCZqyLKnTBVs0KCJwBQB8NeG7K3NwAAGhPinkbmi/iAAAAAGBd833X7DH+hMwAAGpkqwxQ4syV56yzSrRvvAbJMlXALwkA+mrGjyF4BgDQuhRzCC1sQwMAAACAT7vZWiZcBgC0xEYZoORZ7Gz+ci2iHAJnANBfQ56b8SdNOQBAd06vH3xxBwAAAACTm3CZh3cCAK1yuB+oYT67qELz8oOTD8pQB4EzAOi3MR9C8AwAoHcpbEMDAAAAoBO/fv4+ZG1rGQDQixRT2CwpBVDBvOYhIO07uCbVQ+AMADTpQwieAQDwlm1oAAAAAFTL1jIAAEEzoLo57hzOsTZ/bbLdrC4CZwDAa7OeG/WzSgAA8A8pbEMDAAAAoDC2lgEA/I/tMUCNs91FFVyfKIvAGQBw27Qfw1P+AAC4X4o5iGYbGgAAAABrsbUMAOBDJ/frgErnvaM5zzWK8gicAQAaeAAA1nB6/eBLQwAAAADudRMss7UMAOBjDvEDtc+Btps1brxOyS5VyC8NAPiokT+G4BkAAMt5DaKlhx8v29EAAAAA6NR8L/KVe5IAAJ+TYgqbJaUAKp4Lh/HtrBJNE4yulMAZAHBvQ59v8AyqAQDACtL4en797KYYAAAAQFtutpYJlgEAfE8KQTOgnXnxaE5s+5o1Xq8OylAngTMA4DON/RCCZwAAbCeFIBoAAABANW6CZY/hviIAwJJSCJoB7c2RF1Vo2sF1q14CZwDAVxr8IQTPAADYTwpBNAAAAIDdCJYBAGwuB82OygA0OFueVaJZtptVTuAMAPhusy94BgBAKVIIogEAAAAs6tfP3webBcsAALYnaAa0PG+ezZntGq9f8kqV8wsEAJZo+o8xBc8AAKBEKQTRAAAAAN51FSzL3PsDANiXoBnQwxx6UQXXMcolcAYALNn85+bQzScAAGqRQhANAAAA6IxgGQBA0VJMh/STUgAdzKZm0kavZeN17KAM9RM4AwAMAgAA8H+n1w+eugUAAADU5tfPGMa3Yf7x8eozAABlSiFoBvQ1t57Nqs06uJ61QeAMAFhzIDiG4BkAAG0RRAMAAACKIVgGAFC9FIJmQJ/z7EUV2ryu2W7WDoEzAGCLweAYgmcAALQtja/n189uCgIAAABLmu+3vRIsAwBow8kDDoGOZ1xnShs0XtdklBrilwkAbDUgDPOAMKgGAACdsRUNAAAAuMtNsMzhOwCANgmaAb3Pvrabub5RAYEzAGDrQWEIwTMAAMhS2IoGAAAA3Znvlw3zj7aVAQD0w0F8wEw8zcRnlWhOPvNwUIa2CJwBAHsODYJnAADwd7aiAQAAQOVutpUJlgEA9MshfIC3s7KN3u05eMhuewTOAIC9h4chBM8AAOBeKf5sRRNGAwAAgJ3ZVgYAwDtSTFvNklIA/J6jL6rQ3vVOsLpNAmcAQClDxBCCZwAA8B2nq8/JzUsAAABYzs22Mk9iBwDgPSkEzQD+NVubqRszXu/kkhrlFwsAlDZQDOPbWSUAAGBRwmgAAADwgZtQmW1lAAB8VgpBM4D35u6zWbs5+bp3VIY2CZwBAKUOFrkB9SQLAABYnzAaAAAA3RAqAwBgBSkEzQDumckvqtDW9W+89h2UoV0CZwBA6QPGMQTPAABgL8JoAAAAVOfXz5cQ2XD1n9xrAgBgLTa7ANw3qx/N5805OEPQNoEzAMCwAQAAfMV1GC3cTAUAAGBLN5vKMveRAADYkqAZwOfmeNvNXAepjMAZAFDb0JEbVDcMAQCgbGl8Pb/+4ItmAAAAvuImVPYYb7eWAQDAHhywB/j8fJ/n+bNKtGO8FsoideA/Adi72+O2lSwBw2dv+S9jIhgNwxAZBqJhMyYEoAVAWEPLkkxR+OrG81TBkj13p3bOdRXZFF4c/5IBgFwPIKcQngEAQK7ut6Ol3bEP1AAAANggURkAAJkQmgH87Ozvfs9yHPyMfxsEZwCAgwgAALAmKWxHAwAAKMbwFPPq7o/8XAcAgJwIzQB+qKnj1RSK0T1Q9mAM2yA4AwBKOZCcwg8oAQBgC+63ownSAAAAVsCWMgAACpTiFpslowB4nns7y9K+LmqQNsS/bADA4QQAAChFirvtaHF7uloyFgAAgJ+xpQwAgA1JITQDGE1TxyU8mKYUB6+P2yI4AwAcUgAAgK1IIUgDAAD4ywdBmS1lAABsTQqhGcDomjpeTaGM18n2NfJgDNsiOAMASj6oVHF7wmZlGgAAwANSCNIAAIACCcoAAOBTKYRmAJNo6jiFLemlsN1sgwRnAMAWDi1VCM8AAICfS/FnkBa7Y/9DEgAAgEUJygAA4NtSCM0AJmW7WTHOfi6+TYIzAGBLh5cqhGcAAMC0zu9+b0saAADwY4IyAAAYTQqhGcDkhs8yLiaR/+tm+5p5MIZtEpwBAFs9yAjPAACAJaSwJQ0AAHinqf86F7yYCgAAjCqF0AxgNsNnHT7fyN/Ba+d2Cc4AgC0faKoQngEAAOuT4s8ozZY0AADI2AfbyTpuuAIAgHmkEJoBzK6p49UUsnf28NRtE5wBAA42wjMAACA/5/d/4MN+AACYn5gMAABWzY3yAAuw3awI3UNRD8awbYIzAID/HXKqEJ4BAADlSPHnpjRRGgAAfIOYDAAAsiU0A1hQU8cl3IeZu4PtoAjOAAD+Pux0Bx3hGQAAsAUp3kVpcXtaXTIaAABKJiYDAIAiCc0AVqCp49UUvJ6SP8EZAMDnh54qhGcAAACdFLalAQCQiab+8L2qmAwAAMrlxniAlRg+l/E5TL66h5MejIGO4AwA4N8HoCqEZwAAAI84v/8DP+QHAGAstpIBAADvCM0AVsZ2s+wd2tfWZAx0BGcAAI8fhKoQngEAAIwhxbuNaXF7Wl4yGgCA7fkkJNuHz+MBAICPCc0AVmj4jOdiEtmy3Yw/CM4AAJ47FAnPAAAA5mFrGgBAppr6w/dtNpIBAADPEpoBrNjwWZDPfjLVvsbqi/iDvxAAAM8fjqoQngEAAKxFir+3ponTAABGZhsZAACwAKEZQAaaOl5NIVuH9rU2GQP3BGcAAD8/JFUhPAMAAMjN+YM/S36QAgBs0ScRWccTqQEAgCUJzQAyYbuZ11vKIzgDABjvwFSF8AwAAKBEKT7YnhYCNQBgxYabfN6ziQwAAMiBG98BMtPUcQmfO+Wo+3nnwRj4iOAMAGD8g1N3aBKeAQAAbFeKjwO1cJMEAPCsTwKyjidHAwAApRCaAWRouGfyYhJZOnjAJp8RnAEATHuIEp4BAADwiBQiNQDYjC/iMRvIAACALRKaAWRs+KzLQ5G8/lIYwRkAgAMVAAAAeUrxSaTW/WeeRggA8xCPAQAAPM2N7gAFaOp4NYXsdD9LPBgDXxGcAQDMe7A6hfAMAACAZaX4PFSzUQ2AzfoiHOv4XBcAAGA8QjOAQjR1/8Cli0lk5+DhlfyL4AwAYJlD1incoAAAAEB+UnwRq4XNagAs7B/RmI1jAAAAyxKaARSmqfvYrDIJr8eUR3AGALDsYat70y48AwAAYCtSfB2s2bAGsHH/CMY6ojEAAID8uLEdoFBNHa+mkJXu4ZEHY+ARgjMAgHUcuk4hPAMAAIBHnR/4Z2xbA5hRU/cRWPWPf0wsBgAAsC1CM4CCue8xP+3rsoaIh/nLAgDgAAYAAABbdn7wnxOwAcV5YJvYbz6zBAAA4FEpbqFZMgqAsjV1XMIDpnJy8PrMdwjOAADWeRA7hZs4AAAAIGfn7/zDnvQMfOUbYVjHFjEAAACWkEJoBrAZTd1/BnkxiXxep9vX6IMx8B2CMwCAdR/KTiE8AwAAAD52fvb/UOAGP/fNCOyez/sAAAAoSQqhGcDmuLcxL+3rtHaIb/OXBgAgn8OZJxMDAAAAa3Ke4L8zuTmJjwxPy61G/K/0WRsAAAD8TAqhGcBmNXW8mkI2Dl6veYbgDAAgr0NaFbenglSmAQAAADC61F5XY/iSJ9YCAADAtqUQmgFsmu1mWeles0/GwDMEZwAAeR7YqhCeAQAAAAAAAAAwjxRCMwCiv3/xEu5dzOK1u33dPhgDzxKcAQDkfXDrDm3CMwAAAAAAAAAAppBCaAbAnaaOV1PIwsHrNz8hOAMAKOMAV4XwDAAAAAAAAACAcaQQmgHwTlPHKW73KrJuYjN+THAGAFDWYa4K4RkAAAAAAAAAAM/pIrOTMQDwEdvNspDa1/KDMfBTgjMAgHIPdqfwJBEAAAAAAAAAAP5NaAbAl4YH4l9MYtXEZozmPyMAAChT9yFge3UPGDibBgAAAAAAAAAAH+hCs/8TmwHwAA/Az+B13QgYiw1nAAAbYeMZAAAAAAAAAAADG80A+JamjldT8NrOdgjOAAC2d+jrDhTCMwAAAAAAAACA7XEzOgDf5r7D1Uvt6/vBGBiT4AwAYLsHwGo4AFamAQAAAAAAAABQrBS30CwZBQDPsN1s3drXeG0Qo/vPCAAANnvA+P1Ei+5KJgIAAAAAAAAAUJTUXofu/hCxGQDPGh5uz3rZbMYkBGcAABsnPAMAAAAAAAAAKEoKoRkA46mMYLVsMGUy1uYBAPCH4WkkLw6JAAAAAAAAAABZObdXcuM5AGNq6ng1hVX6vWwAJiE4AwDgq4PiKW7xGQAAAAAAAAAA69RtNzkZAwBjcw/herWv/XogJvWfEQAA8MWB5DQcSs6mAQAAAAAAAACwKl1o9n9iMwAmtDeCVbLZjMkpGgEAeJinlQAAAAAAAAAALM5GMwAm19RRtV8uJuF9ANtkwxkAAA+723jWPR0jmQgAAAAAAAAAwCxSex1sNANgRpURrO/9gPcBzMWGMwAAnjY8weTFwRIAAAAAAAAAYBIpbptMklEAMKemjldTWNd7gvb9wMEYmIsNZwAAPK37MHM4wNh4BgAAAAAAAAAwnhS3jWYHsRkAc2tqW7RW6GwEzMmGMwAApjhovpgEAAAAAAAAAMC3ddvMTsYAwJKaOi7tl8okVkOAzuwEZwAATHXgPIXwDAAAAAAAAADgEUIzAFajqePVFFYjdRtPjYG5Cc4AAJj64Hlqv+zD004AAAAAAAAAAO6l9roKzQBYEw+bX9d7BbEZSxGcAQAw1yG0Gg6hlWkAAAAAAAAAABuW4rbRLBkFAGtju9l6tO8VND8s5j8jAABgpoPP7ydtdFcyEQAAAAAAAABgY1J7Hbr7J8RmAKzR8GB51sFmMxaldgQAYMnD6Sms3gYAAAAAAAAAytZtMzsZAwBr19Rxab9UJrE4cTqLE5wBALCGQ+ophGcAAAAAAAAAQFmEZgBkpanj1RQWl7ptqMbA0gRnAACs6bB6ar/swxNSAAAAAAAAAIA8pfa6Cs0AyI0Hx6/jfYTYjLUQnAEAsMaDazUcXCvTAAAAAAAAAAAykOK20SwZBQA5st1sFQ7eS7AWgjMAANZ8gK0i3uIzAAAAAAAAAIC1OcdtG0kyCgByNdyrdzGJRYnNWBXBGQAAuRxoTyE8AwAAAAAAAADWodtmdjIGAErQ1H1sVpnEYsRmrI7gDACA3A62p/bL3uEWAAAAAAAAAJhZaq+r0AyA0jR1vJrCcu8v2vcWB2NgbQRnAADkesCt4rbxrDINAAAAAAAAAGBCKW4bzZJRAFCa4SHwLyaxzHsMsRlrJTgDACD3w24V8RafAQAAAAAAAACM5Ry3G8GTUQBQKtvNltO+x9D0sFr+cgIAUNLB9xTCMwAAAAAAAADgZ7ptZidjAKB0wwPfLyaxiIOonTUTnAEAUOIh+NR+2cdt8xkAAAAAAAAAwL+k9roKzQDYEg95X4zYjNUTnAEAUPJhuBoOw5VpAAAAAAAAAAAfSHHbaJaMAoCtaep4NYXZ2aRKFgRnAABs4VBcRbzFZwAAAAAAAAAA5/ZKQjMAtsp2s0V07z0OxkAOBGcAADgkAwAAAAAAAABbYasIAER/L90lbg9yZx5iM7IiOAMAYKuH5e6g/OLADAAAAAAAAADFS3ELzZJRAMDb/XMXk5jvvYjYjNz8MgIAALZo+BA5Cc8AAAAAAAAAoFjnuN3gnYwCAP5QGcHs70kgKzacAQDAoKnjFLf4DAAAAAAAAADIV7fN7GQMAPCxpo5XU5jNQfxOjgRnAADw92H61H7Zh6e4AAAAAAAAAEAuUtxCs2QUAPA5D2afldiMbP0yAgAA+NPvp5y1B+tqOFhXpgIAAAAAAAAAq3Rur+RmbgB42N4I5nmP4v0JObPhDAAAHuCpLgAAAAAAAACwKuffD5QFAB4zPIT9YhKT62L4gzGQs/+MAAAA/q37kLq9ugc29E9GMxEAAAAAAAAAmF1qr0P383uxGQA8pTKC6d+viM0ogQ1nAADwhOFJLy8O4AAAAAAAAAAwuf7hsLujB8QCwE80dbyawqTEZhRDcAYAAD8/hJ/iFp8BAAAAAAAAAOM522QGAONwn9v0ui2spkAp/jMCAAD48SHxNBwU+yeqmQgAAAAAAAAAPC2116H7ObzYDABGtTeCSdlsRlHUkwAAMLKmjipuT4KpTAMAAAAAAAAAHtI/5HV39KBXABjbcE/bxSQmc/AehtL8MgIAABjXcHBMw0H9FNaQAwAAAAAAAMBHUntdbTIDgMlVRjAZsRlFsuEMAABmMIRnewd3AAAAAAAAAOhvyj67ORsA5tHU8WoKkxCbUSzBGQAAzHtwr+IWndl6BgAAAAAAAMDWnG0zA4B5DQ9Ld7/a+FL7vuZgDJRKcAYAAA7yAAAAAAAAADCV1F5XoRkALKOp4xK3h6Qz4vsbsRmlE5wBAMDyB/ruMP/iUA8AAAAAAABAQc5xuxk7GQUALGO4N+1iEqMSm7EJv4wAAACWNXy4noYD/ilsPQMAAAAAAAAgTylsMwOANamMYNz3OmIztsKGMwAAWKEhPNs78AMAAAAAAACQgdReZ9vMAGBdmjpeTWG89ztiM7ZEcAYAAOs+8Fdxi85sPQMAAAAAAABgbc62mQHAOg0PPXff2TjEZmyO4AwAAHwAAAAAAAAAAACPSmGbGQCsXlPHJW4PO+eH2vc92hs2x196AADI74OA7kOAFx8GAAAAAAAAADAj28wAIBPDPWYXkxjFQWjPFv0yAgAAyMtweO0PsLaeAQAAAAAAADCh1F5XoRkAZKcyglGIzdgsG84AAKAAtp4BAAAAAAAAMKJzeyU3WANAnpo6Xk3hx8RmbJrgDAAACjKEZ91l6xkAAAAAAAAA35HCNjMAyF5T96/l7h/7GbEZmyc4AwCAQg0fHOzD1jMAAAAAAAAAPmebGQAUpKnjEu4Z+wmxGYTgDAAAimfrGQAAAAAAAADvpLDNDACKM9wrdjGJp4nNYCA4AwCADbH1DAAAAAAAAGDTbDMDgIIN94d5MPlzxGZwR3AGAAAbZOsZAAAAAAAAwGaksM0MADahqePVFJ4iNoN3BGcAALBxtp4BAAAAAAAAFMk2MwDYENvNniY2gw8IzgAAgJ6tZwAAAAAAAADZS2GbGQBsUlPHJTx0/LvEZvAJwRkAAPAXW88AAAAAAAAAsmKbGQBs2PCw8YtJfIvYDL7wywgAAID3fj/tztYzAAAAAAAAgNVKYZsZAHBTGcG3iM3gH2w4AwAAHmLrGQAAAAAAAMAq2GYGAPyhqePVFB4mNoMHCM4AAIBvsfUMAAAAAAAAYHapvc5ujgYA3hseJO5erseIzeBBgjMAAOBptp4BAAAAAAAATKqLzE7GAAB8pqnjEu7feoTYDL5BcAYAAPyYrWcAAAAAAAAAo0lhmxkA8IDhvq2LSfyT2Ay+SXAGAACMytYzAAAAAAAAgG9L7XW1zQwA+I7hXi0PCf+a2AyeIDgDAAAmYesZAAAAAAAAwD+d2yu5CRoAeEZTx6spfElsBk8SnAEAAJMb4rMuPKtMAwAAAAAAANi4FLaZAQA/NNyTdTGJT4nN4Ad+GQEAADC14eDeH96tcQcAAAAAAAA26iwyAwBGVBnBp8Rm8EM2nAEAAIuw9QwAAAAAAADYgBS30CwZBQAwpqaOV1P4kNgMRiA4AwAAFjdsPduH+AwAAAAAAADIX2qvq21mAMBUhod9X0ziL2IzGMkvIwAAAJb2+wctwwch3fViKgAAAAAAAEBmzu2V3OQMAMygMoI/dO+/bJWFEdlwBgAArJKtZwAAAAAAAEAGUri5GQCYWVP3280qk7i9H2vfix2MAcYlOAMAAFZviM9sPQMAAAAAAADWoovMTsYAACyhqePVFHpiM5iI4AwAAMhGU/dP5enCs8o0AAAAAAAAgJmd43ZTczIKAGApwz1UF5MQm8GUfhkBAACQi+EHN931e+vZPsRnAAAAAAAAwHRSe11tMwMAVqQyArEZTE1wBgAAZOn3D3SGJ/Z014upAAAAAAAAACM5i8wAAFZJbAYz+D8jAAAASjHEZ114VpkGAAAAAAAA8E3nuN3AnIwCAFirpu6j+K0+nPvgvRrMQ3AGAAAUafhgZR/iMwAAAAAAAOBzKW7bzJJRAAA5aOp43ej/dLEZzEhwBgAAFG3YetZdL6YBAAAAAAAAxC0yu+6O/UMsAQCystHgTGwGMxOcAQAAmzHEZ114VpkGAAAAAAAAbM65vZKblQGAnG0wOBObwQIEZwAAwCY1df+0wn2IzwAAAAAAAKBkIjMAoCgbCs6693AH/8ZhGYIzAABg04atZ931YhoAAAAAAABQhNRe192xfwglAEBRNhKcic1gYYIzAACAwRCfdeFZZRoAAAAAAACQlRQiMwBgAzYQnInNYAUEZwAAAB9o6v4HUfsQnwEAAAAAAMCaneN2U3IyCgBgC4b7ml5KfW/nAQKwDr+MAAAA4G/3H1wU/iENAAAAAAAA5EZkBgBQnoP3d7AeNpwBAAA8qKn7bWfdJT4DAAAAAACAeaX2utp4AQBsXaEPzxabwcoIzgAAAJ4wxGfdBzeVaQAAAAAAAMAkUojMAAD+MNy3dCnl/V77Xu/g3yqsj+AMAADgh4anBu1DfAYAAAAAAABjOIvMAAA+19TxWsD/DLEZrJjgDAAAYESFrqwHAAAAAACAqZ3jdtNxMgoAgK8VcI+SBwzAygnOAAAAJjCsru8u8RkAAAAAAAB8TGQGAPCE4d6kS6b/7x+8/4P1E5wBAABMbPiApwvPKtMAAAAAAABg41J7XW20AAD4mabug7Mqp/eB7XvAg39zkAfBGQAAwIyGdfb7EJ8BAAAAAACwHSlEZgAAo8psy5mtZpAZwRkAAMBCxGcAAAAAAAAULIXIDABgUhlsObPVDDIlOAMAAFjY8LSh7noxDQAAAAAAADJ3jtuNxckoAACmt+LozFYzyJjgDAAAYEXEZwAAAAAAAGRIZAYAsJDhfqPLmt4b2nIL+ROcAQAArJT4DAAAAAAAgBUTmQEArMRKojOhGRREcAYAAJCBpu4/jNnHLUADAAAAAACAJYjMAABWaojOugdbV3O/RxSaQXkEZwAAAJkRnwEAAAAAADCjFLebiJNRAACs33Bv0csM7xGvQjMol+AMAAAgY+IzAAAAAAAAJpDCDcQAAFmbKDyz8RY2QnAGAABQiJmeTgQAAAAAAECZUojMAACKM9xT1HnmvqIuMAvvEWF7BGcAAACFaep+21l3ic8AAAAAAAD4SgqRGQDAptzdW/Qh7w2BjuAMAACgYOIzAAAAAAAA3kkhMgMAAOALgjMAAICNEJ8BAAAAAABsVgqRGQAAAA8SnAEAAGyQ+AwAAAAAAKB4KURmAAAAPEFwBgAAsHHiMwAAAAAAgGKkEJkBAADwQ4IzAAAA3ojPAAAAAAAAspNCZAYAAMCIBGcAAAB8qKn7H0ru4xagAQAAAAAAsB4pRGYAAABMRHAGAADAP4nPAAAAAAAAFpdCZAYAAMAMBGcAAAB8i/gMAAAAAABgNilEZgAAAMxMcAYAAMDTxGcAAAAAAACjSyEyAwAAYEGCMwAAAEYhPgMAAAAAAHhaCpEZAAAAKyE4AwAAYHTiMwAAAAAAgH9KITIDAABghQRnAAAATEp8BgAAAAAA8Obc/SIyAwAAYM0EZwAAAMxmiM86L6YBAAAAAABsRBeZpd2x32gGAAAAqyc4AwAAYBFN3W886y7xGQAAAAAAUBqRGQAAANkSnAEAALA48RkAAAAAAFAAkRkAAABFEJwBAACwKuIzAAAAAAAgE6m9riEyAwAAoDCCMwAAAFZLfAYAAAAAAKxMaq/r7hgnowAAAKBUgjMAAACyID4DAAAAAAAWkkJkBgAAwIYIzgAAAMhSU/c/1N3HLUIDAAAAAAAY07n7RWQGAADAFgnOAAAAyJ74DAAAAAAAGEEXmaXdsd9oBgAAAJslOAMAAKAo4jMAAAAAAOAbRGYAAADwjuAMAACAYg3xWefFNAAAAAAAgFZqr+vu+PYzBAAAAOAdwRkAAACb0NT9xrPuEp8BAAAAAMC2pBCZAQAAwMMEZwAAAGyO+AwAAAAAAIp3bq+0O/axGQAAAPANgjMAAAA2r6n7J5ru4xahAQAAAAAA+UntdQ2RGQAAAPyY4AwAAADuiM8AAAAAACAbqb2uu2P/2T4AAAAwEsEZAAAAfKKp++isu15MAwAAAAAAVuHc/SIyAwAAgOkIzgAAAOAB4jMAAAAAAFhMF5ml3bHfaAYAAABMTHAGAAAAT2jq/smp+7hFaAAAAAAAwHhSe11tMQMAAIBlCM4AAADgh8RnAAAAAADwY90WsxCZAQAAwPIEZwAAADCipu6js+56MQ0AAAAAAPhSF5ml3bHfaAYAAACshOAMAAAAJnIXn9l+BgAAAAAA0YdlV1vMAAAAYN0EZwAAADCTpu5/gC4+AwAAAABgS2wxAwAAgMwIzgAAAGABd9vPXkwDAAAAAICCpLDFDAAAALImOAMAAICF3cVntp8BAAAAAJCjbotZiMwAAACgDIIzAAAAWJmmfvuBvO1nAAAAAACsUWqva/d1d+y/BwAAAAoiOAMAAIAVu9t+Jj4DAAAAAGBJtpgBAADARgjOAAAAICPD9rN93CI0AAAAAACYSgpbzAAAAGCTBGcAAACQKdvPAAAAAAAYmS1mAAAAgOAMAAAASmH7GQAAAAAA35TCFjMAAADgHcEZAAAAFMj2MwAAAAAAPmGLGQAAAPAlwRkAAABsgO1nAAAAAACblcIWMwAAAOAbBGcAAACwMbafAQAAAAAUr9tiJjADAAAAniI4AwAAgI2z/QwAAAAAIHupva67Y/95LwAAAMCPCM4AAACAN7afAQAAAABkIbXXNWwxAwAAACYgOAMAAAA+NWw/6wjQAAAAAACWde5+scUMAAAAmJrgDAAAAHjI3faz/fAVAAAAAIDppPa6CswAAACAuQnOAAAAgKfYfgYAAAAAMKrUXtfu6+7Yfw8AAACwCMEZAAAAMIohQLP9DAAAAADgcefuF1vMAAAAgDURnAEAAACja+o+OusuARoAAAAAwP8IzAAAAIDVE5wBAAAAkxu2n3VeTAMAAAAA2JDUXtfu6+7Yfw8AAACweoIzAAAAYHZDgGb7GQAAAABQmhQCMwAAACBzgjMAAABgUU3dR2fdJUADAAAAAHJ07n7ZHfsHbQEAAABkT3AGAAAArMpdgPZiGgAAAADACgnMAAAAgKIJzgAAAIBVa+q3mzYEaAAAAADAElJ7XQVmAAAAwFYIzgAAAICsDAHaPm5b0AAAAAAAxpba69p93R377wEAAAA2RXAGAAAAZKup++isuwRoAAAAAMCzUgjMAAAAAN4IzgAAAIBiCNAAAAAAgAekEJgBAAAAfEpwBgAAABRLgAYAAAAAhMAMAAAA4FsEZwAAAMBmNHWchm9fTAMAAAAAipVCYAYAAADwNMEZAAAAsFkCNAAAAAAoQgqBGQAAAMBoBGcAAAAAAwEaAAAAAGQhhcAMAAAAYDKCMwAAAIBPCNAAAAAAYBVSCMwAAAAAZiM4AwAAAHiQAA0AAAAAZpFCYAYAAACwGMEZAAAAwJMEaAAAAAAwihQCMwAAAIDVEJwBAAAAjESABgAAAAAPSSEwAwAAAFgtwRkAAADARARoAAAAANA7D18FZgAAAAAZEJwBAAAAzKSpo2q/dNd++AoAAAAAJeoDs93x7YFMAAAAAGREcAYAAACwEAEaAAAAAIUQmAEAAAAURHAGAAAAsBICNAAAAAAykNrr2n3dHfvvAQAAACiM4AwAAABgxZr67anQL6YBAAAAwAJSCMwAAAAANkVwBgAAAJARARoAAAAAEzt3v+yOb59DAQAAALAxgjMAAACAjN0FaPv2qkwEAAAAgG9IcdteJjADAAAA4I3gDAAAAKAgTd1HZ90lQAMAAADgvRS3wCztjv33AAAAAPAXwRkAAABA4e62oL2YBgAAAMCmnLtfbC8DAAAA4DsEZwAAAAAbcxeg2YIGAAAAUI4UtpcBAAAAMALBGQAAAMDGNXUfnVXDb21BAwAAAMjDefgqMAMAAABgVIIzAAAAAP5iCxoAAADAqqS4bS+L3fHtcxsAAAAAmITgDAAAAIB/sgUNAAAAYFa2lwEAAACwGMEZAAAAAE+xBQ0AAABgFClu28vEZQAAAACsguAMAAAAgFHYggYAAADwTylucVnsjm8P8wEAAACAVRGcAQAAADAZW9AAAACAjTsPX20vAwAAACAbgjMAAAAAZnUXodmCBgAAAJQkhe1lAAAAABRAcAYAAADAopq633xWDb8VoQEAAAA5SCEuAwAAAKBQgjMAAAAAVuduC9o+/hejAQAAACzlPHxNu2MfmwEAAABAsQRnAAAAAGRBhAYAAADMRFwGAAAAwKYJzgAAAADIUlP30Vk1/PbFRAAAAIAniMsAAAAA4B3BGQAAAADFEKEBAAAAX0jtde2+2R3fNqkDAAAAAO8IzgAAAAAomggNAAAANimFuAwAAAAAniI4AwAAAGBzRGgAAABQlBTiMgAAAAAYjeAMAAAAAEKEBgAAAJlIIS4DAAAAgEkJzgAAAADgEyI0AAAAWNT59zfiMgAAAACYj+AMAAAAAL5BhAYAAACT+B2Xpd2x32IGAAAAACxEcAYAAAAAP/QuQtvffQ8AAAD8TVwGAAAAACsmOAMAAACAiTR1nIZvRWgAAABsUWqva/fN7vh2RgYAAAAAVk5wBgAAAAAzuovQOi8mAgAAQCFSiMsAAAAAoAiCMwAAAABYWFP328+q4bciNAAAANbuPHxNu2MfmgEAAAAABRGcAQAAAMBK3W1D28f/gjQAAACYSwpbywAAAABgcwRnAAAAAJAR29AAAACYiK1lAAAAAEBPcAYAAAAABbANDQAAgAelsLUMAAAAAPiC4AwAAAAACvVuG5oQDQAAYFtSDGFZ2FoGAAAAAHyD4AwAAAAANuZuG1rnxUQAAACyd/79ja1lAAAAAMBPCc4AAAAAgJ4QDQAAYPWEZQAAAADA5ARnAAAAAMCnmjqq9ks1/HZ/9z0AAADTSe117b4RlgEAAAAAcxOcAQAAAADfJkQDAAAYRYohLOu+3x373wMAAAAALEpwBgAAAACMRogGAADwoRTCMgAAAAAgE4IzAAAAAGBy70K0zoupAAAABUohLAMAAAAAMic4AwAAAAAW1dRxuvutEA0AAMjB+fc3u+MfZxoAAAAAgOwJzgAAAACAVXoXou3jzw1pAAAAcxCWAQAAAACbIzgDAAAAALLS1H14Vt39ka1oAADAT6T2uv7+fnfsfw8AAAAAsFmCMwAAAACgGLaiAQAAX7CtDAAAAADgAYIzAAAAAKB4tqIBAMBmpLCtDAAAAADgRwRnAAAAAMCmvYvRbEUDAID1S/G/qMy2MgAAAACAkQnOAAAAAAA+0dR/3LgqRgMAgPmkEJUBAAAAACxCcAYAAAAA8AQxGgAAjOL8+xtRGQAAAADAOgjOAAAAAABG9i5G67yYCgAAG5XiblNZ9/vdsf8zAAAAAABWSnAGAAAAADCjpu43oVV3fyRGAwAgdynuojKbygAAAAAA8iY4AwAAAABYkXfb0fbxZ5wGAABLOd99b0sZAAAAAEDBBGcAAAAAAJn4YDuaIA0AgLGkuNtSFqIyAAAAAIDNEpwBAAAAABTi3Xa0zoupAABwx5YyAAAAAAD+SXAGAADw/+3dwa2CQABF0WmAmrQbyjCUQTdjTTTwHRITM4KCX5CBcxIWDKxYufDmAQAchCANAGD3HoOyUNVPv/8AAAAAAOAtwRkAAAAAAL2BIO10u86+DADAZgjKAAAAAABYnOAMAAAAAIBJuraPz87ZsZU0AIDviLfr+nhf1f0ZAAAAAACsSnAGAAAAAMDXWEkDABhlnQwAAAAAgCIIzgAAAAAAWJUoDQDYoSa7t04GAAAAAECxBGcAAAAAAGzOQJSWXHwZAOAHxGQAAAAAAByK4AwAAAAAgCJ1bb+Kds6OraUBAHOIyQAAAAAAICM4AwAAAABg14RpAHBIeUgWqnpwQRUAAAAAAMgIzgAAAAAAIIyGacnF1wGAzRCSAQAAAADAwgRnAAAAAAAwU9cO/rHdahoAfCbermt+VtX9OQAAAAAAsDLBGQAAAAAALMhyGgAHFcNzRGaNDAAAAAAACiA4AwAAAACADRlZT0sEagD8WjNwZokMAAAAAAB2RnAGAAAAAAAFe7Ggdho5B4AkhoEFssQKGQAAAAAAHJvgDAAAAAAADuZFpJYI1QDKE4N4DAAAAAAA+BLBGQAAAAAAMMmbUC25+EoA/xLDSDiWnlV1/xwAAAAAAGBRgjMAAAAAAGAVXft2ZUewBuxB8+qhxTEAAAAAAGDrBGcAAAAAAEARJiys3QnXgE/FML4w1hOMAQAAAAAAeyc4AwAAAAAADmdGvJacZrwLrK+Z8pJQDAAAAAAAYJo/VHLUks5kpcoAAAAASUVORK5CYII=;" parent="1" vertex="1">
          <mxGeometry x="80" y="150" width="330" height="197.3" as="geometry" />
        </mxCell>
        <mxCell id="Dv5H7iyxTRO2InqMJQss-34" value="&lt;font style=&quot;background-color: rgb(204, 102, 0); font-size: 44px;&quot;&gt;Infraestructura TecnolÃ³gica del Proyecto&lt;/font&gt;" style="text;html=1;align=center;verticalAlign=middle;resizable=0;points=[];autosize=1;strokeColor=none;fillColor=none;" parent="1" vertex="1">
          <mxGeometry x="10" y="40" width="810" height="70" as="geometry" />
        </mxCell>
        <mxCell id="Dv5H7iyxTRO2InqMJQss-35" value="&lt;b&gt;&lt;font style=&quot;font-size: 36px;&quot;&gt;NUBE&lt;/font&gt;&lt;/b&gt;" style="text;html=1;align=center;verticalAlign=middle;resizable=0;points=[];autosize=1;strokeColor=none;fillColor=none;" parent="1" vertex="1">
          <mxGeometry x="170" y="253" width="130" height="60" as="geometry" />
        </mxCell>
        <mxCell id="wZPKLo5PwsMdjZlRSlF2-2" value="" style="edgeStyle=orthogonalEdgeStyle;rounded=0;orthogonalLoop=1;jettySize=auto;html=1;" edge="1" parent="1" source="Dv5H7iyxTRO2InqMJQss-36" target="wZPKLo5PwsMdjZlRSlF2-1">
          <mxGeometry relative="1" as="geometry" />
        </mxCell>
        <mxCell id="Dv5H7iyxTRO2InqMJQss-36" value="" style="sketch=0;outlineConnect=0;fontColor=#232F3E;gradientColor=none;fillColor=#C925D1;strokeColor=none;dashed=0;verticalLabelPosition=bottom;verticalAlign=top;align=center;html=1;fontSize=12;fontStyle=0;aspect=fixed;pointerEvents=1;shape=mxgraph.aws4.rds_instance;" parent="1" vertex="1">
          <mxGeometry x="141" y="738" width="78" height="78" as="geometry" />
        </mxCell>
        <mxCell id="Dv5H7iyxTRO2InqMJQss-38" value="&lt;b&gt;EC2 Instances&lt;/b&gt;" style="outlineConnect=0;dashed=0;verticalLabelPosition=bottom;verticalAlign=top;align=center;html=1;shape=mxgraph.aws3.ec2;fillColor=#F58534;gradientColor=none;" parent="1" vertex="1">
          <mxGeometry x="300" y="480.75" width="46.5" height="60.5" as="geometry" />
        </mxCell>
        <mxCell id="wZPKLo5PwsMdjZlRSlF2-11" style="edgeStyle=orthogonalEdgeStyle;rounded=0;orthogonalLoop=1;jettySize=auto;html=1;" edge="1" parent="1" source="wZPKLo5PwsMdjZlRSlF2-24" target="wZPKLo5PwsMdjZlRSlF2-6">
          <mxGeometry relative="1" as="geometry">
            <mxPoint x="-290" y="611.8" as="sourcePoint" />
            <Array as="points">
              <mxPoint x="-260" y="599" />
              <mxPoint x="-260" y="660" />
            </Array>
          </mxGeometry>
        </mxCell>
        <mxCell id="wZPKLo5PwsMdjZlRSlF2-15" style="edgeStyle=orthogonalEdgeStyle;rounded=0;orthogonalLoop=1;jettySize=auto;html=1;entryX=0;entryY=0.25;entryDx=0;entryDy=0;" edge="1" parent="1" source="Dv5H7iyxTRO2InqMJQss-42" target="Dv5H7iyxTRO2InqMJQss-43">
          <mxGeometry relative="1" as="geometry" />
        </mxCell>
        <mxCell id="Dv5H7iyxTRO2InqMJQss-42" value="" style="image;aspect=fixed;perimeter=ellipsePerimeter;html=1;align=center;shadow=0;dashed=0;spacingTop=3;image=img/lib/active_directory/web_server.svg;" parent="1" vertex="1">
          <mxGeometry x="-6.75" y="503.94000000000005" width="53.25" height="66.56" as="geometry" />
        </mxCell>
        <mxCell id="Dv5H7iyxTRO2InqMJQss-46" value="&lt;b&gt;EC2-Backend-Grupo1&lt;/b&gt;" style="text;html=1;align=center;verticalAlign=middle;resizable=0;points=[];autosize=1;strokeColor=none;fillColor=none;" parent="1" vertex="1">
          <mxGeometry x="230" y="562.5" width="150" height="30" as="geometry" />
        </mxCell>
        <mxCell id="Dv5H7iyxTRO2InqMJQss-47" value="&lt;b&gt;Amazon EKS Cluster&lt;/b&gt;" style="text;html=1;align=center;verticalAlign=middle;resizable=0;points=[];autosize=1;strokeColor=none;fillColor=none;" parent="1" vertex="1">
          <mxGeometry x="110" y="355.5" width="140" height="30" as="geometry" />
        </mxCell>
        <mxCell id="Dv5H7iyxTRO2InqMJQss-48" value="" style="sketch=0;points=[[0,0,0],[0.25,0,0],[0.5,0,0],[0.75,0,0],[1,0,0],[0,1,0],[0.25,1,0],[0.5,1,0],[0.75,1,0],[1,1,0],[0,0.25,0],[0,0.5,0],[0,0.75,0],[1,0.25,0],[1,0.5,0],[1,0.75,0]];outlineConnect=0;fontColor=#232F3E;fillColor=#ED7100;strokeColor=#ffffff;dashed=0;verticalLabelPosition=bottom;verticalAlign=top;align=center;html=1;fontSize=12;fontStyle=0;aspect=fixed;shape=mxgraph.aws4.resourceIcon;resIcon=mxgraph.aws4.eks;" parent="1" vertex="1">
          <mxGeometry x="141" y="385.5" width="78" height="78" as="geometry" />
        </mxCell>
        <mxCell id="wZPKLo5PwsMdjZlRSlF2-1" value="&lt;b&gt;dbprd01&lt;/b&gt;" style="image;aspect=fixed;html=1;points=[];align=center;fontSize=12;image=img/lib/azure2/databases/Azure_Database_PostgreSQL_Server.svg;" vertex="1" parent="1">
          <mxGeometry x="270" y="745" width="48" height="64" as="geometry" />
        </mxCell>
        <mxCell id="wZPKLo5PwsMdjZlRSlF2-6" value="" style="shape=image;verticalLabelPosition=bottom;labelBackgroundColor=default;verticalAlign=top;aspect=fixed;imageAspect=0;image=data:image/png,iVBORw0KGgoAAAANSUhEUgAAAnoAAAI6CAMAAACHLBVSAAAACXBIWXMAAAsTAAALEwEAmpwYAAACf1BMVEVHcEzzbC/8azb7aTP9bDb+bDT6bTT0bDD9bDb+ajX+bDX5bDf9aTT9bTT9aTT8aTL/Bzf+ajL6bjXzbC/8aTL+azL9ajb7ajP6bTXuRSn+bDX8bTT8azb6bDf6bTX+aTT8aTP8aTL8bDb8aTP1azH7azT+azP+bDP6bTP5ajf8ajL7TDL7bDT8bTP+ajT2ZTH9ajX8bDT+ajP+bDX8aTL9bDb+bDT0ajD0bDD8bDT7azX/WDX7azb5bDf9bDb+azL+bDL9aTT8aTP7bTX+ajL+ajPybC/9bDb9aTT6azf9bTT2bDH9bDTybC/8bDb+azP8ajT4ZjH6bTT+ajL9ajT9ajT6bDb+ajP+bDL7bDX+ajL5bDf7azL9bDX////7bDX9bDP9ajP7ajX8ajP7bDP9ajX9aTL7WRv7bzn9bTb7ZCn7TAr+0sL9bDb9bTf7Zy79azT7VBT7XyT9aTX9azX7aTD7VRb7aTX7XSH+mXP7URH+t5z7Yif9aTP7ZSz7Vhj/+/v7SAL9azP7Vhb7Whz7WBr7Sgb7ZCv7XB/7YSb7UA/7Tw77Tgz7RQD7Wx77ajP+e0r9bjf7azX7TQv7cj37Zi394Nb7QwD7XiL7WBj/8e77YCT808L9aDD//v/7Sgj+1cX7bDT+l3H9bDT7QAD/8Ov+i2D7bzf+mnX8bDT+fU3+iV3+p4f949n7TAn80L7+nHj81cT//f7+gFH+18j+x7L7bTb9fEz/7en9tpn9xbD/+fj+uZ/9eEb//P3+lG3+qYj7cDr+pIP/+Pb+vqb8xK3/8/D9Zi39kGf+3M/7azT+oH38dEH7bjf8sZT+rY/+zLn+iFv/6eL7OgD7OwCawqNCAAAAXXRSTlMAGYCyXq5NHIDh5DOvl7FlActKFmfJg/1MAueYfjJIs7Voga8g+OnkUTRrBE+a4wv+/OThYobdHhqS/Ah7MHvIx7luU8zmE4WrN5UkoRV41PAPV86Mpzzsz1rXLUAiA8wQAAAgAElEQVR42uyd23MT1xnADQTTEoPNbSDcUkgIw2VoCGlLAzNJhkk6zYS2M5k+9OHsObuzK7Myu7rYwrIsW5FlWzJCXhNibHzBDhDjGPAkOBBgHErTNg2d9KGXP6grSwYbVrbO7lqXPd8vLwqMvQed33znfN+5bEUFkCfvv3TwhT/tf3flyj/+Hs2D/OHDlStXfnjihf0VP98A3xNgF6++/4vfvfZLrPGSLhmvCRhjkcxXT8P4M/1PeaL/eYPYeOSV7fuXwRcHmGfZb379U003i2iigFG+EDGtpsRre947Xvkr+BYBKmoOHt8rSLo+gkaQWbCWjpSNb++GCAjkxb7tR7A+hooWpJsbAzEWZvw7Ct8ssACVVY2IFzWM7CXtH5FeX7MPvmHAUDuN5xEmaKmQeIl/C/QD5nF02+al1S7LVV0/4dBu+MKBTLhbp2cUEioUWBNFvHYHfO+ss3G1oENQQSH6f8KmSvj22aVatw5jVBTSxoN9jI6zbwtCkbSba99B6Am22Fcl6f2Oik66EWuh5MwOy1sIIag0SLejZTn0CRMD7Rt6ilkq4mVXfUVt3YvQM44PeLjIMzzjgRdjCH2OZoVYYgFvXugT10IPOZMdezEuUe+eLPVuPQn95DjWt9i/LcD+lY5PcP166CtHsbsFEYLKAL2V9Tuhv5yTW2glO8UzlI+HjMMp4mla2YiXOeuhaSCfA4bachMvKx+uhr4r8+SClJ94mWwXQcJRxpysL5PkIlfCAaWWMmUrRmUrXmZ5F2+FXixDVmCMUZmj/xNWQE+WW3YhYoIcAMGQb5QVG8o1uzDMNw7DGd6y4aMyn+Q9e4wNVUGflgW7cCnsP7Z51N0F/VryHDiCMUHIce4dgq4tcZaL+J/IgWBNg5PjpUzN4TaCHAohh2ugh0s35IkNyLE0iCIEvhKd5Tk45M1uoocZXymyEeMG5HD0GR9cWFBybHJgYmsQ9yRhHfR1SXFUcFotLxcCblwF/V1C+QVBBDGC/k+FLcwlwyGRGfEy2cZe6POSYJUgYMQUGDe+BP1efKoRIogxCCZboOeLzTqMEYNICG7JKC7H9rCS2T6fbbwF3V/MmgrCiFkEXAMGFIv1EnvTvHn7l2Fpo0i8jCTENBL/E7CgGLyDCWIcQl4BDwoPswnG/GQDgwmFTm0xiJdJNvaADIUFw2ibRdOOgQ6F44QA5j1NdKHIUjgqeQnMm+Oe+FtwokDmSTwIN9c9nocCX0HYCeY9V+CTwL0C8C7rhWQjeHBv6amCBAPcA/PAPTAPAPeWmJfBPHCvKLyJwDxwrxhsYXljKLhX1EoyVFUWq+/xsK6xBJzgoZK8eNwTa8AU24FKcn57CWAfi80cE2Gel6d7IIu9aFBWydM92DtqL3s0MC9fBIh7NgK74amAs0L2LZ+BTVRjLoEzkjZRDYsYlO7xB8EaO9gHixjUpWUByns2cEBkr5Qsq+r5GVRVVqDEUiwa2boyFClqINwR6kz1Xbt2rS96wZeI8yq1fkSAe6gsc4Spgp7S0JtI9k3c/OoeN8PDgQdNp1Ihf0Cm/lVw/55FtrF0Wa3SFvaFmi5yzzI0lroUp3wpCEFw76gldvAMrdy2hUP9o5wxzaFY3EuXahC4b9nSyi07KYY37vOf5nLTfKY2QDXnw40gkIX1M3Ymeq5E5D63MDeSYZrAR/AmMMgsa5mZ5ym9sbvcotzydQ9TLeZuBIdMTvQIKzFPcSdvcvkw8Q+qIRcuAjIJM9uSFXfdaF7mcd9QqQfTPZNsZmWjlG7e6fzMO9XhUhSKXIPgKvCInu3sjLZ5m1fravC3t/fSbGLZASbRcpR8wYh6nuTXeZuH/Ge47yKu/H85r4FKtNQzU1WJXaEx72P9QzD/GgvR4J31lHzASkVPDv6F0jzu4w53/vM9DBUWyuGWmaOPrdHblOZx3INQgCLLFUAnGG6N1m1jzdTmcdxEUIYhF4Zba9lteNCEedztTg+CIReGW0tBLzRqwjyOa2qXYciF4dYKbr8p8zguSjHbI9p74FR+HGdmS7wcu2/OPK5nkGJRA2uwbTQvDrBzGCOQMmkeN3SWZteyJIFW+bCana1S/jGT5nFciCLRQET4ALxanC0aM+qpoSGz5nHjQYUq7K0CsxaFobtD21KmzdNHXJXmUdJhMGsx1gjsHH709Js2T89xqR51FVWDWwtTo7ET9Baf6i1gHpcMUD0MinuLsZehY7dypJnWvO+//e/U7IblMNXDiLAG7FqIHSzdW6uevUUb83zB3tifMx8fdStUT5Ng597C6xgs3XKhTg7QjrbXeNnTlz2Xe4nyMgztNfArN2zdpKdG79HO89rdihr6e0a9CKV6GG8Aw3KCmbpJT01RZxh3IrLcfcWcekh6HQzLxXK2LutWo/S5baeqDPaYVO8LAku5udA0hGDAXbCqkjqPwt+YVA+RenAMqskz6o18Tl3Pi6oonI16MXr10HqwzDjoMfYqKvXc98bm3a11eY3N+8onK8EbMx+n2+mveyQtYJkRK0S2zEPyGePdej/4WtCw8R7SKb+iZn+qZ5D+iYTsBs8MEFl7RYESHDf068d2FQ1PGV41lQygQPThzOd+j4lHalBXhqCXpvW6oXqPo27Z1XHK4G8mw7Lc35NNOLwmnkhECHsQ9HT4PuO53uk63b3a5937TwrJns5MWnzxnGrmkSLM9p7jZ+wFPaQmb9G519nVe2Z2CddElgFJrnHQY888pCSaOCr3vr70vx+yH/vj5p4JtT3GFzKyeEIcnXtPGWkzqR6EvWfgNQbNQw1nh0y6d8XceAth7zl2svnyR2VwgjPnnq/X7DMJPgm+zaGe0deOBuo+N+Vec8xr+pmfbAXfnlLJzvsxFFlHebKgEcwd9hZyzxc33wJ4a+RcVrPxgnlZ5VuDHZFIJOGefdtjIHnLhHtXOrwWmoHhzX1PYWGLqIJau8/1/Wt8urm5+dHdlK/LlU4UlHCIo3ZvoM5jpSVEBOOerKE53zw5EEwmH8156ePo3Qt+lx75vLU3qN0b9MuWGiMuB+dmg57jxfO0R8eefdnowPWQ25secoco3Ru/1GatObCaNku1w5MMXbyU4S3xDyKJYX3I7bhM5d6ds70WG0Twi2BdprLi7DleIBHN+XqCqS4eeXPdL2Ds3uiFuGK1TXgdWJdmmaPLyW3+cz25rBr4250feUTnnv5/ls1DAmzbm6HKyWNta6w/xznve03XJkMJd/oVhLp7D/N0b9QO8yDRyOLgExmuYDTXtSr/7gx6zqvZ6rLXHxnIy73pC7aYB4nGDFscew5NbvVdz/E+lse+7oCqooC7q6s1oCrI2zXSvKh7n3ITvrgt5iFC9oF5FW8I7IW80yPhBtXTPXl2Yqxnqi/kD8gLaDrzA5O6e4mORMCuxhF4W2lFheDMqp7SGzt1O3cQU13BztlDQUNTIbdX1k2dzu3eY9+w/jsV+9oHF3tXvOlM87xddTcXGz7nFPja/V4kxyOh3KPuDZet7SNCJfPqNTrSvEB3aIBqcSzSJeu+xiN94xcNfmT0bl3/sL0tFDbBIpoDkww57uuhXJYdGIlnFj6C50JjD+b9zf2JvuxeA1vVY37r1DbsxMF25D71RqjpSGYflNzg8fs6+/onvn003dQzlUxNRsLpHNh2cDWMt87LbH1mth77Wp9kKLJ61eP2d3ckBlsDiiovTTOZv9fbceOt4oldN7Xx+OYzB30URVaWtKUCjLfOmua5k1dMmccNmLtOwIJ6u5hWz2lHIL2D0SHO5CGz1PnCthW/A+Otg6Z5Cd9ls+ZxfQVWT2B6xK121CKa4omc4kybV3D1ENNVZUcdB1J6Q19aMC99V22B1WN5w6iT9kvpCcZ3VswbCskIRtxCUekg9bz+6JAV87gxv1LgJhPpKLPqOWh/sivo4yyZd7kzUPBGS9vYneo5x7zaT/9qyTxuKigXXr3NUFopd3ojn1mLedx4LFCEdvOsmrfRIVFP8fi+tGhek8+jFEM9Vssrm5yhnvJ/9u7tuanjDAC4IDMhoZCSMGHoDGSShoYh5KEdCqEZmrwkPPDQlz6vzjkaXXxkdI0k7CNhY9mSJRvrmBgJGxsDDrdgY6jD1UxIaZJp0/SS/kfVkWRbl6OVZBmd/c633yNjM96Z33y7++3ud9yj37Yp717AJ2ezfZ3/27FekxdMUVCW3d3325R3td/n9UW+z3Q88QlI3+MeNcVKzx8cuNuevO/Ou057h0fuWTte2CMi0sXer22mkBextllVCfQ4ve6JB9YfO08P62LvExMs9ZwZ5Wl78u66gqHQtJY5e1MG7DS28aUe2HJemznvyuVYKD5ZyJyTBmwzcC72dsDv8hOeetimvL+Nur3OTLqQOZPxzo9AFDHS2w0+5/kCN9qUd0vJesOlD/EtJGQDxiBh7LT3GvxC8q025X0x6PP6Bsfb+/JUe6FiPMb9HXB5w8pcm/K0okqfUvpM2vXFuCH0XsV4V+8r2EcYE9H25D1TUlpRZeV/6U0ZMd+i/IjGUeCHZ91X2pOXSwRDoXRy9Y7fBZ9BQ9mB7+4A8MOzk+3Ju5KMhUiwf/WteLRfNmYoDnxF5W2AC8qNDs8ay4tOaEUVZa2FsjJs0FjUE3yXYZ7Ds8byepU+7+nycnR0MGTQYGz49hlCCLC8M+3JGy8UVb4o+xfDkh5R0Z1n/MqOV97zRNibVW5ZWUh6CC+v7IVKz5lS2pN3Rsk4vVUPJwPDxg1I2omM3mag9BpdGGgo73p/kIRiyYrSzMKU37gRibuQ0XtdACqvqz15M8l0KBRMVHStXRrIGjgk+7vI6H1kQymvUFRJKZXfBrrdIxtJ7xAyeipKeXPVRZVCIhwJGzkodFtcCaO8GwGtqPLP6k62MY+RoxIJLnmbAHZbafDOu7G8m1Nhb+2T3XmX39hxiftQ0XsfnrwG77wbynuaLhRVqp/s3hkNGzww8Y+o6B0T4MnrbS/nRSbjodjlmie7irHTrVbYw1Vd+bOATN7dgelQKOiquXVg+HSb32f8ARW9VwVc8h5oRZWe2kbLM4ZPt4TYPsNVW1FRyZsbGdaKKrV90CKGT7d5ekdw0RMxybunFVX09scPU37jR3cV1x15CZO8Qjcfvf3xwqCThfGhovehA4+8UjcfnedruYksGyM8iIjecRGNvNVuPlYmF3qF2IKI3mERi7y1bj61hxssLPS0iB9HRO8VKGs9T5vy7q9186nZ9bKx0NOOMw5jOswAclHUk23QYqCBvG/LuvnUVPR8rIxSegURvU9hVJQ99A8ANZSnFVXCU7qfx10acHtYGab4MSJ6WwUY8hq0GGggr1hU0e9GpUzLzIwT1T1lGOdoscWT7cirW1TRthgZPzvjtG9FRO8IhOvxHleuDXmlbj4P9Pvq9TsZGqiA6RW4cNUE9Kjyqrv5VL7QUHwsDVTF9DoDxiaDPuFS5VV386nc3E4Me1gaqPAbTo+lHUY67aT2k6LKK7ZIrvdWnKHNbSk4PYbkLd7/l4tmjyqv2CL5eZ2L8pGgTDg9Tq9eVSVProtijyqvokVyTaQn/YTT4/Qo8mj2qPIqWiTrlFXihNMzLPaBkFffHk1esZtP3UbLN6achNMzLrbAkFfPHk2eXjef8lVgIEw4PU6voTx9ezR5et18yq8TBHyE0+P0mpCnZ48mT7ebT9kVqlE25XF6DMqrtUeT16vXzacCrYfT4/SalFdtjyavtkVy5YXly6zK4/SYlFdpjyavtkVy5SMNV0wmnB6n17y8cnsUeU91WiRXFF0iQT/h9Di9VuSt2LtvvU/JeRFqUYVteZweq/JK9kb/O1pX3t2BIK2owrg8RPQOApNntX6TJp5sNltPXqmbz7O6v68wLQ/TGa4ATJ71TrrwU/7M85a6+awe66aYlsevD7ApLxd9dC3Z7y7Sy9ZtkUzrdpufr1mGJ3J6zMm7/uTG5NjZqVjYWyqL+BP3mm2RDEcerh7y7MubnZn794XFSNAX965W4zz59V5NM4I6LZIBySMCpgZ7hK2eK1XvbQtTrJLpk7xy2fGDMzWUcsrVjTBmA/otkgHJw/Uija2movLgz6tT7PL85Fh3foo9J1cdPWgfRzvvqrZX6Oaj0yIZkjxc9I4wtcWVA4VWFDMLDy8kIz0+v1fnwKtYVemqslfs5lPbIhmUPFzNlNnqPuBJjX8/PjKgDLkrp9gaedX2KN18AMnD1UJ+K1udpi7Fgukw8dY/3V+rJJfbo3TzgSSPSHsQ0XsX1tdwy88w1uzRuvlAkkdETE3OPhahylux9xO1mw8oeYS8j4jeLgmsPKv1ZuKSJ5vp76nfzQeYPILpE/QvS3DlWa038qQ8sscfHLhrCnmODxHR2+kAKy8X/V//pWIheshqCnlEQiTPsg8MvUuJNXnFenN/uvSU1v2zOeSJuD4DDoZe9pG1qt6cj3NhX1aitrsFJA/bF+gFKFvc7D+sF5+U6s3nNHZ+X0/k8rWv1SFaHypI8nDdHrBYTkEp7PkyI4UpVlNHwump7rHJ+WWtY+Pz+n2ovjsPSR6xv4eK3iEw38P1yIUpVnIPKQMj49Gcld6PRXuHEeiBJI+of0JFD85xhuyN56fY5IWHCzNL9L4EMF4A6WwzDqOi9wqEtZ4snwvHps6uTLFWel8CqPKIeBwVPfZryrJzOKMkrz2K5qgVlGp78OQRsg8VvS2sV1ecqcs352Zm6R/OqLX3DJ48VI+CCoU9tmdcZ/1+UTR7uQS8nGc/hYyeTWVbXpfV2rq9k8kYOHlE2IqM3iG7KeRV2NOaAYGTR2wnkNFjubrSirwye+x2bqSG4x1k9HaJJpFXsreYyy2ClEfIUWT0NjnMIq9oL+ZyxUDKEx0WbMHqFrd1eXl7CSfxwEx5RLWho8foFnc98qzWR38nUMO+Hx29/XbzyINMTz2Gjt4eu2nkPU0PXQJLT/wAHb0DklnkXY/0xAnc2IGOnkUSzSHvL8m0Hy48QcAnj7FuU+uWNzcK8Qhjbal3CCE91vYZ65N3e9DnASyP2PcgpLfZDl/emWlXmIAO6QBCemydZ6xL3kwC9AZD29+KFozh+BK4vIWzMT9seURQUdL7yAFb3u1A1kOgxzaU9LZLkOXNKpkweHhEehklvQMOwPKWk9N++PJEyYIzpC/ByptXhmX48rAu9VhZ7K1D3ux0IuwhZohtSOkxsdhbh7wnyWDcFPCwLvXYuEGwDnnjgT7ZHPLQLvUsFsEGT14uYIad7coJLlp6bwrg5C1MxPymkSeeQEvvHRsweUtdgyYoI+M+wF2ZcUVQ8qIDsDrnNQibgFeeRQUl76Fp9hclem8ipncCkLwf+lNmSnkavd2I6R017jVuq/LGFbffXPKIZMEcUHLeD5GMSc4vyk7RbKjpvSaCkGfClJefb3+Jmt4vRJF9eWZMeRo9C+5gX96z22ZMeejnW2Nm3JbkRQd6zJjy0M+3hsy4rch73GWyWh6fb9dCsjEs76/JoNOc8Ph8a7FsV5mVd2dkKmvSlMfn286f47Ygb3w0FiKmlceTnsVyik150bGUObcXJXqfcHmW3wsMyrs4OdgnmxceEW0fcHkWi83GnLz5iek4MXdwd/l4XWBMXnQsY+a5trC/fZu700p7HdpoNCnvTtDcc22RHmdXiNN2duQtjY+mzT7XEuLg820xOtJprzl5C2Y9NqvcZDje4OqKodrYkLesmLiGXJH1uLmObTSakXcxFTDlFZXasPNNxkrsfNEbjSbkLY2fnY57UMgT7JzcanwuGi1vLolhkVcM9TMubjXeIqKh8qIRl09GAo+I9r1cXNnVKdVAecvK4LCfoAnxNPdWXl9RDZM3MxlwhwgieeQt7q087KIx8q7fHo0h2V2srPQkrq0iXrIbIe/xeDee3UUp6ambubZOpD26vFvJybBMcIWqcmudSHtUeXNjQz5s8PL09nBrHUh7NHlzYxmE8IjIy8mdSHsUedGACyM8QuwvcWkvPu3VlxfFVcjjSa/DaU8a6qoPL0RwBk96nUh78fO68P6DGB5Pep1Je1LgRx15P430oYVHRL69ffFpz+/3y+7Fk7X0rsH+Xjyv6b2geHuj7u05M9mEz+vurrH3OHmOIE56/CCjftrbmFsETtdz672Anr3HA4jpOfjpLe0Ci7gh8rS9ba+uvWthvEmPX1mhheTYKHl17D2K4aXH7+nR4g3HVxtXSdazF52SkcoT+OVkevzWsWHydO3lur1Y6e3nuqixqc0PlVaenunYuyDhlOdQd3Bd9PjUJm6YPD17N/twLvRs27mtRqGqGydPx95cBuViz8EbDjRRYFl/T3m9uyrV9mYUjIs9Qd3NZTWO0xspr9beWBwjva3cVTM7jXW+B693P6/K3qQP4UrPfpC7aia2resot/7N0Ep78z0efPKOcVXNBZE2Ul6VveUAvn3G59xUk7G39eIe/dVjub3ZJLrdLTnKTb2w4p4zQe9uUW5vBNkNAtF2gotqPmwtTrnubxr0kiqz93UWF73/s3e2v3EcdRw/2+DnxzhxrdhJUzt24jghSRMnfkga5aF5LKWtSluEht/MdAYpkUofLvQiJaaiFCFB6SipIkShQlXCiwDvQCpIjQRShRBI8C+x59q3e8+zu2Pf7e338ypS1rPz8J3f08zdCZT0NtPl3vjf96y09xfvXyZd0tNiDnraRJd7/93Hf/zi9t9++8nv/1pde/ev3/jFf75886NUneJygrvdXJf7/R/d+ul77/7849/9+JcPH374588f//327f/+s0iIf/rg0+v337l1I2X3B5DdhiX0bzS/cf369R943L37xg9/duedj3793tsfekL81cOH//jD54+/uP3lJ//6NH3FZInsdqsKywUhrivx7t274s07d2598JO33/tNCqWnJ6Ck8OQc/qRBXohp/HIfWoaOIjBMxEDMYjLObiMxBO3FNHqsEyqKRq/k0E8MqB8ailxhgXziBHozUFBkuhhcLgK9RoV7MHwI9BrDCKQXlUGoJx4zhFQjis2TqOjFZUUJCClCckuQTmzmkGqER7BhKMdBqsHgcsMmtxophpuLBNBS2OT2EFTjBlRYQnGTLkMzrngBaW6YUwwkt+44TNCetfJUDoJxepqrISpLm0crkItLzmtozy65lRCLY7YJuFybgp44D624pptDeyjoNYYnkWrUL+jhpzE2p7QM7dVLMc5CJdBeQ5SHC/GbxmXoC8rDkRqUlzJmoD0or1F2D/EelNeoeA/ag/KQ50J50F7KzzAY6nlbRAfDXYLgua3GGcaWcQj3WHxnqwXObbeQ3dBeIcyTuKuypZxnCPjWlKfwgdutL/ApaI/dpBzuJG85Kzm6CW+LTwA1hOW0+1zN8KnHRh1spPvistD4pHfD6Baap9fZ4gv0GslBltpkQ9Iw1r+RzOfSeYWPMyQYDedMCpMNrvGdoc3AFE/dt6AhzGsSFqVM1bc/cprBd8M3C99IUbLhOVtczmsi2tPjdOFsm8/ppiLTlXoZzrbZ2CFbv7zsDRC/b9uEdBrT4tkGpyx+07tJs42W/qQkFxz5RdOyXbau4ePE+rDCMHyNiPJg8pre8LViqqsp24a1bXpGqNWu8f2bzADWNQn0rbbU4QYnOjaMVU0Iky1UZ/GU9xRWNEE8q1rD6xJRB1YzWexa5Sbx4uNc7cNSJo8pk/CfGPL2zuourGMiGTBJzje4MVNYw8TS4cVKCRWeUpNYv0SzM5Hi84SH7CLxtPXeS5r4ILzWEV+iLB+E11Lim1UJSTi4NAbCa7GEwxjJE2DwcFrbiqUWSc392aFHmq+inNKaDGVV857terviyDjWqGXZ9Wxz+l3P06p+fO6ixZnQptm+rEASrbZjZVLA+NOmiRLeB0Q0gk9dpIZ2Q02Rc3BG8ugQ1iNd7OG8wd+W4b2er+Ij3Wmkb7CB6svrjvfPYRXSq778z63xRvhZGkSAl3IWrxpPB7SV+awkAz8L1tjea4TQD7YgndVC0A58zAcEmBtYFlrozZWdFssDCO9AJfkd0dzzh85jP26U0hqyAzVDv6kzUgilXH2czVOd58zNvnZ8cQWwMX+T+6RmWspYAiRSPK+6U/sxoyCU/Xvqao9h/H2uQua/3BBJobU8Nj02inkEEdl7emq6d8YTlJebehok+Vm1uyeekTOCcy2M6bkw2dmFuQNuJDjaOXbqQm/PibwFLLaCnn1jTOVO9Mw+371w8STmCmwi810B9mI+AAAAAAAAAAAAAAAAAAAAAAAAAAAAAAAAAAAAAAAAAAAAAAAAAAAAAAAAAAAAAAAAAAAAAAAAAAAAAAAAAAAAAAAAAAAAAAAAAAAAAAAAAAAAAAAAAAAAAAAAAAAAAAAAAAAAAAAAAAAAAAAAAAAAAKlg/1h3dS6d3uv8hXtHO71XjnW2zW/GcEYXnpnu7fHonX4mWu/PdUdgbL91+ysLYZ4uWauof1nK4oGxA22OmlrovnQljNwODK/96ztaiNdFVTjnLDu4y5kwOvuzjOVf6b1TMzo62OlQdcNDO02+y0qRh1I83/vcju2hGnmRiIvQeMMxli84q5T3B2Z2JezwVmZN/lX6pfgztYfl0Wb2cOymlrTmwpuxKaunX80vkKLstUzmItOc1YaT90R/lwNpDEkhGAXe9xZjQsghN8I7lPP0ZnhZ7/MM9lk3s5PqTUiVaTKzVu0/x9ba9zp1Ptz4znt/kn+P5q/EnKkXvV3J1jtxLWZbr6i1KefGSIunjaK1uWLc0yzZzSuj3pjmuaufZMWX5ZUR3+iPSMN41d5zLg7ZNTSviEWDyCqAkHr9ea0PhhnhQb3xhzwbc7JmA7trNWZbrxWmS47UffjaxhJxcy7zpLKeWNoZIzYb3klVlZG3TLOxxu+1TrL23pHGjNk0taBYVNQBm0DSFJ7X7KT9EE8y7U9XTLkETADnc/Ha6vWlR3Ujm66bGw+Lr2W+TiF2taR2mPIAABFfSURBVGqP2sEBQzVfRMZMRB/+RJ3W1zeaetWirTERWXr8kkX73cENGMJ8ZYOztRJLLduDu5TH9Dg9nwUEUld6LJr08lvEROreSV3wMlXRlD0ZbfCHl+u3/tXUSAunuz+69IRN8tkdaJ/b7+WJYARKrgxVvq1cTOkFGlMdmya9vFGNsOH2a8ZtwkkWqW4wT9ZD0MKiPcGjxnpW+zIoPWaU7ShN0e5y5m/je++g9LjaROlxCm/3OrW2VIaOUGlZoRAZqbYwrHsiphncyp8XS4/THrtRdhRHoPHqW8VRMU04k15ds1dFevxRhXKWMVQaMT0Rsm9XhC5dI1qrT6ky0WhxJfTQc4qXpiyK59/oRbRKldRabKSXqVzo5P57Ks3U68IyGCmSXn07sU7JTMUSy0hJQmbcSa+eCa1m9V5+vqxEP7nUY/Jl2SKfOxCub6ZorqWUwvQuTXqNnzqTo5K0V4SehteKFoV7oW7uTPvpxS6P0QOn9hlZ5F2EVZsvVTreOf6CqjVT3WOWVbpi6dUPj9Zrjcyd9KQs2avupFevwFJNelVKJ33TqsiwaB2qujwbNDye8M6MB//3eJYFlc3lhZDlvGBNJX/wMlFexjZGblSTRIw5/lbdmYoiPSuz10YOpddXYkpYvJJ+ifRoMYr0qiuqo8g16iMhejYamDUuqHxTbMuStu56zWSNWHZb5cqO/Mq4cn7FzRx3uZOeldnrLQ0/42hlkJcVzdxJj1GvW+l5EVVAQQ9kiCq8Xwj1LLs6XemRpWAaUrvrZUPxu+VN6PGqzw3lq2KGn800n/QszN4ouZReeRalXUrvXptj6WVOBN4gn7Z3iEXx/3Dlh3YHEhGiMOvaH4wDLtb0WYOMv5xpQumx+ke/R8oqBLFCvbKCgOx0J73atiOS9DIzfsxGMoo2hBqu9tTuoN0LU133rz5o4fIKzFZKj6jO4fg4f+RQehPlVk/ucCm9WmYvmvSChUj7wNQPaUl9t/pjS4FYkoepGPr5yVImodKrG2Nky+uWMd6f85MyXgiwHUqv5nAiSm/Ir4NYB6Zz/jzf22c3vTxEba//gb8bMsmVXs3wKLONuZTe8MYm5+ycHyf3uZRejeFElF5w99kGpgOFeX6LRi3nV9jXDbN+5/uTK706Zq+C0YshvePkm7pCYSrOFYIy6dUaTlTp7fbloS3v7vkBMh2t/eSqilC7CdiD0SRLj75p5WxcSK8QNsmRzA7poMEK0qtu9qJKLxPIVsfs+mUfHrar8Pcy9jqqDzRaejUvT1W8HBH99SKQ1o4XrJ5edCi9GmYvsvT8YqSaturWfOCYot6zgRMT28MCfyA0k2jpcbat6pY03KX0Cmpb26x+V646lV7V4Cqy9E77ecYxq26NFv7A1D2c9e8pcFvnefH9QvPHEig9CtTDq5o9Y5hL6RV8LM/fAnmisD45l9KrHjNFlp6/S5RdVxcKQ5M99Z69XPC4fMFy1H7ziZSeec6P86uZvcmC0aOg540e6m28ce2SaiHK4TTsUnqP+Lhr6RUsk+Vdn8A01y27Tfkpbnd4A5JEh2sOflvWM3vK+EI18aVXKISuL2AhyqHj8aclcMWp2nCiS+/E/9s7t94ojiyOVzzIg41jA7YBgW3ZiQHHF5wLwQ5YxBCIwGSXzWYj7WbTqura7veVxtI88cIXKGm/QcQT33Knx3ad0/e6dbvbnX40Q0/Pmd+cqjqX/9E8Eh1IT+Yvqa/m4q+Knxq1UYgWouc/hzI85mUew3qSjRErDtCbSZTFD6l+girXLOJvomzzao4esr7SY72g6ovovozDBKrdaZN+jRHlCtBbQsXH2VF6OHsFPRfosUQzEBwcHaDHXouyzWt96EGxz/sfNY6rU4qfeh5VHTxsIXqXEVtMTGQ5PblxFzi2ZYrea9l3cpq/uALorVmb5T0qacxxe/Whhxrl+hWgt27WVtgk9GBFzYoBwHoclYbbo3eUytrKgw49tDbL8dZu2Zm9RvRopegRVAvI/t1K9OAckeH2oIlizKU9esNUrYoMtnBuj948Wuay3d7FQQ8VsrFhO9GD6EnK7UHx/wmW9uhJL8pvpUPMkw7M0qfFh9yLg94OR4Woh61ED2LGTCzl7ZRPziDW6IG5/HSo1rQAI26WmaDQ7VkEVxqGHu4R5PTXVqIHmbJEsPST/9F45MUavZshTmWc/o0Z1EkWmCUodHvm6A3PmP6DNgO9Yayp73Eb0UOpsniH0P3klt0aPen0kN4GJDQMi/YSZukht7fiED2JNH/UDPTmYl24gi+0EL2JINPtLQc0sXTZoidVfmLvA+8+68QsASuQGTFHj2pGfStHj8Q0NRilD9qHHnnHstwe/JWdSuDZoif3jjGFnyG10/1JmgW5vfSZ3Ri9h5AzOWgIerfiwhxUqHXzNwo9qNBGQgDwRxosu0FPVonG/Nsss1MhSJklKChXMkYPGoPYdkPQIy8T9WwsqAq+ytBDJfCgGwF/o2dNLZbogcpPbFeHEho7TsyySvMzNMbooR3k1aagR0SGROlXc61CDzycFF+AZgTolbRED6LHcfcmo4fhTTdmQdU2whF6sIqrds/VgV4/LaH2X8r599vtQQ/t685qy6Epnt4mbtCTiCXabhepVQlB2iwoXJR0e6boBUxRT6hW9MiGnyHfxzn3VluDHpxmT1tq0LcHv3I79NDCGq/jXJMLsVGAIMMsItftGaL3AKqxVJUSakEvR7Q00jvzbrUDPRTDO3F7mbE+O/SgPsrPC/fp6d3kmyXf7ZmhN4cKtEPSJPRI3xd5MqXhnVagB5mLcUtNdobDDj34TSa3dDLJYVQvmmWWXLdnhh4iL1htFnpROiizcWs8smBmr/nooXxt1FIDeV0seGuF3r6Up0lJh0Nq10T3J8ssuW7PBL3rH5DPE6Rp6JHPgoDlqYPTF81HD8QbP7I3T6UYVEzm2wq9owJRNfl2Jro/mWYBPxV3ewboLaLxAExd0bY+9KLzd5CjUz86cqw1HT1yD3bSUzAWKOYzrNAbevlJC6obuSg1C0gmxOtxtNFb4lh+1w9JE9EjZHW0tfuYLXtPrzUdPZRLZTnpABv0rtKCVC2cQAxKCLLNguSbAgX0somYOxQCb6RC/4uGojfaFnzpZXs+zu/uNhy9XpAxDmHCFXoPi1Sllj3PvIQg2yxIvglnl3LQyxlukRg+xrwd0lj0RrvpmTB7Sofi7LzzQ4+kN6vsHXGFHqdFayosatSVWbLdnt3Ilh5pMnokykFxkRZtHS26u81GL+X2knW+VuhJ42adJA6psjSOqlmy3Z7FjLRQL0VwLuiRSNYvPSiS2SoUVI1eYhZVuszXAj2UsVgr/Gf90UF5Zsl0e8boUSEmSRvQI+TKNZpawPi1ZqP3adxXUzrpDL3Dkjwt/E6HrsyCFKDB7Rmixxh9WeG35Ra9k2hLYswR3Ww0eglVqZQZLNDjJdUp0LWhrfuTaxZoFwS3Z4ReNIlnkrQJvbHCSMKPNBu9mJZeWljeHD2QO8+pyYOEhraMQ65Z0LQP6fb00YsGuL+7Xu23VQF65JNBfIKa6hzGc0Iv5vbSuXxz9GZKFTblWq+dx803C+oHD4zQYyJauGa+qPrbqgK9yOix5o2g2eght8fSo2vM0WOlYsHw2XxnZoGaCOn2ctCj4zmeGWeL+xP7NXxb1aBHVkIsIBusNho9VCEapDuyjdGDgXy5IePZvGo+G7Ok3V6e1/v95376sgrENgC9xCDosNnoybr4LP9sjB4ayLec8xJIaOiWEBSYBbu9mUL0fiauryagR255aDalxTiwOtCT0bCs3iZj9GS/Y4GmDzfV/SkyC3J7J/uHHPSO+xcTPXIJlRpaxPZqQe80CZBZl2aMnjxrFejSQOQv1zPqmwWp/5ycmsxbwNuJHirttxkHVgt6ZBgFIzn/ySF6MJCvoHgMEhqaJQSFZgH1n5Omk86hhzVomo7eLqWc89+IQ/SEkuwvEu1yaJYg7va6h14PFfdvNhs9Qjbf7qwTl+jJVa+w0RYSGv5rd2bpxd1e99BDYmjBQdPRy70M0ZsD9cain90m5L2OHJol7vY6iN5QV6joAqEHh6ycUsbUvw0dmiXu9jqI3ucObt5W9EJP89LL+ZSZJeb25o87h95Cd9Gb5LropdslbcwC6j+U7m6dA3rh/LmiN99d9Bb10WM3XZoF1H/oW/K+LvRegm50aRahL38QwbTzB4Gbdw49ro+elu5PqVmgJoKK16wu9L6TwPs31B2T4rBdLfQ66/WWPYNLR/en3CxIBgOmqFWN3pKvHtPYBH//9E/0nKE3ywzQ09H9KTcLksFgtXk9GN1Y3oONpkjecP4gaPbfdLfQM3F6WvWiCmbJGiddNXowupGXtoN9I9T3hdoXTDw1X81biR6o/NDScnSkFadR4KNglokMLaaq0euH6sWvoMcdun+Qp/L7Zpc7hd4R7N++3+oXX8T7aFDgo2KWDOyrRo+E5UWKZ34JSrtC988BM3HMXWor0YOZNnyl9MW/IqEQp2aZS8uRVI4eVy7FuUYNPvZvlL5VeiFsNsK9TqGHBqgo7I8gjauu+6NklkH96C2ikhFVSKlyhXZUXsS5Qgn/knDQD9lG9CYCrQ+OplPMOjXL9ZTbqxy9BfgsojA7A6Nf1edRr9JxAZ5X3rTEhZVccHvRg42GUn8tFLSr6/6omWVQO3og65Y55RriyUgiRXm9Pbk388KNMt8LihIWU9TaiB7sd5RUBRZ4acOuoVlSbq9y9NA2lxWN9BsYxJSeC6n4V3x0uI4Wc066hN6arpYK6qW449Ysg9rRm0MunL7Ke9VdNDyaqk76uQyn1rDw9Ia6wPnXnUIPen0Uyz9R7Fe4NQtS/6kJPTwsmeWxdxdluIXyJgPQ88LwuwL4US8knewUetLdqxa936HaTSyqZvkyrBu9Vcyel5XTmOMCy2wo14o9R3HKkA5yJGEeUCy7MiBdQg9K9ZQDVmhXPOfWLPPxuHIN6MUj2QF9ldBPWhl4mA3fN3KokRDWuwxoewEeWsrpfKfQg7CBcnaCastyKZtlunb01ugfMc0qb/D5wil+eyszY2gwQRoS5p+xeFl3IG5+iv77/tJXNCE09U/SKfS4/iwWVOgSOjYLksGoCT1ymyeEZaMzqTgTDo8ffKhW+7HgHxIJcN/3xd1vpqamHg2jCp3jOJtD0in0QOVHXWoGlfcp4qpuluna0cPn1+Lrg642wGNOs6Sx6OhKydkySp90Cz3wYBo5HOQpFx2bJeb26kGPDKmSdCnnj3Xv/DVX7bdi1tMLWoce2repS4Ue6ubSNcwyXT965H4gmAIbBlI8OzkzWtLFj5Y+r4XowfwhDYFkFIVWm82jYZZ9lLOqCz1yQ5R1p4zIM5Kk2B+oYW3fauQKPfm0/9FFj2mh94/AqKcb0fGta7OgapIRes8C+3IilesFLVp1R8fTVdM7T8QHaWXenS7Yf4LpQJ7S1y1us2ncCKDZo/0cxqLpKFkg7ZUNlddD12FYapYnVO6P/IdkDTKhpNJr//aIvdyhtT2bW0/k3fkM656LD/Ds7KsMrWpZn0gi/L/rPoDeUT302WnESke/Z0ecrRRqe72f5FwEBbP8IOU1/N/Hm9FI0Y3yV6Tqqxe9MUuuhYz51qO654Z59I2cbc/R4w/Hgzg4Df9ldZvDcV8WE0z7t36ycDARqI3cuhSObcICofUufjh+PNV3IfzMLCq/pB/8aHQsO90zrA290KO/7JEaru0ZGpmOivGno4HwfTF7xcmt70T34rHJE2L0J9V8kNqONbrrL28sb7MxrtNhBn13m5r/8dk40qk5HO7S2DNpiF/omWU18ENvKGsy19dJbdfV7YN7j8ZOXTy6d7DhFOyjKcGlSz+mU0fbrp9+fcvFXbb6/Zosvjf5rb6J1/v9J1Wa5Q25oNdfdsfXPPnzavT1fyeZKqc9kgQBAAAAAElFTkSuQmCC;" vertex="1" parent="1">
          <mxGeometry x="-240" y="628.07" width="80" height="71.93" as="geometry" />
        </mxCell>
        <mxCell id="wZPKLo5PwsMdjZlRSlF2-12" style="edgeStyle=orthogonalEdgeStyle;rounded=0;orthogonalLoop=1;jettySize=auto;html=1;entryX=0;entryY=0.5;entryDx=0;entryDy=0;" edge="1" parent="1" source="wZPKLo5PwsMdjZlRSlF2-9" target="Dv5H7iyxTRO2InqMJQss-42">
          <mxGeometry relative="1" as="geometry" />
        </mxCell>
        <mxCell id="wZPKLo5PwsMdjZlRSlF2-9" value="Browser" style="image;aspect=fixed;html=1;points=[];align=center;fontSize=12;image=img/lib/azure2/general/Browser.svg;" vertex="1" parent="1">
          <mxGeometry x="-240" y="510.5" width="65" height="52" as="geometry" />
        </mxCell>
        <mxCell id="wZPKLo5PwsMdjZlRSlF2-10" style="edgeStyle=orthogonalEdgeStyle;rounded=0;orthogonalLoop=1;jettySize=auto;html=1;entryX=0;entryY=0.577;entryDx=0;entryDy=0;entryPerimeter=0;" edge="1" parent="1" source="wZPKLo5PwsMdjZlRSlF2-24" target="wZPKLo5PwsMdjZlRSlF2-9">
          <mxGeometry relative="1" as="geometry">
            <mxPoint x="-290" y="611.8" as="sourcePoint" />
            <Array as="points">
              <mxPoint x="-260" y="599" />
              <mxPoint x="-260" y="541" />
            </Array>
          </mxGeometry>
        </mxCell>
        <mxCell id="wZPKLo5PwsMdjZlRSlF2-16" style="edgeStyle=orthogonalEdgeStyle;rounded=0;orthogonalLoop=1;jettySize=auto;html=1;entryX=0.5;entryY=0;entryDx=0;entryDy=0;entryPerimeter=0;" edge="1" parent="1" source="Dv5H7iyxTRO2InqMJQss-48" target="Dv5H7iyxTRO2InqMJQss-12">
          <mxGeometry relative="1" as="geometry" />
        </mxCell>
        <mxCell id="wZPKLo5PwsMdjZlRSlF2-17" value="&lt;b&gt;EC2-Frontend-Grupo1&lt;/b&gt;" style="text;html=1;align=center;verticalAlign=middle;resizable=0;points=[];autosize=1;strokeColor=none;fillColor=none;" vertex="1" parent="1">
          <mxGeometry x="-40" y="562.5" width="150" height="30" as="geometry" />
        </mxCell>
        <mxCell id="wZPKLo5PwsMdjZlRSlF2-18" value="" style="editableCssRules=.*;html=1;shape=image;verticalLabelPosition=bottom;labelBackgroundColor=#ffffff;verticalAlign=top;aspect=fixed;imageAspect=0;image=data:image/svg+xml,PHN2ZyB4bWxucz0iaHR0cDovL3d3dy53My5vcmcvMjAwMC9zdmciIHhtbG5zOnY9Imh0dHBzOi8vdmVjdGEuaW8vbmFubyIgd2lkdGg9IjcwMi44NDYzMTM0NzY1NjI1IiBoZWlnaHQ9IjY4MS45NjcxMDIwNTA3ODEyIiB2aWV3Qm94PSIxMC4wMDEwMjYxNTM1NjQ0NTMgMTAuMDAwOTMzNjQ3MTU1NzYyIDcwMi44NDYzMTM0NzY1NjI1IDY4MS45NjcxMDIwNTA3ODEyIj4mI3hhOwk8c3R5bGUgdHlwZT0idGV4dC9jc3MiPiYjeGE7CS5zdDB7ZmlsbDojMzI2Y2U1O30mI3hhOwkuc3Qxe2ZpbGw6I2ZmZjt9JiN4YTsJPC9zdHlsZT4mI3hhOwk8cGF0aCBjbGFzcz0ic3QwIiBkPSJNMzU4Ljk4NyAxMC4wNmMtNi4yMTMuMzEzLTEyLjMwMSAxLjg1NC0xNy45MDYgNC41MzFMOTYuNzM3IDEzMS4zNDJjLTEyLjgxMSA2LjExOC0yMi4xMTYgMTcuNjg5LTI1LjI4MSAzMS40MzhsLTYwLjI4MSAyNjIuMjVjLTIuODEyIDEyLjIwNy0uNTI0IDI1LjAyNCA2LjM0NCAzNS41MzFhNDYuMzUgNDYuMzUgMCAwIDAgMi42NTYgMy42ODhsMTY5LjEyNSAyMTAuMjgxYzguODY4IDExLjAyMiAyMi4zMTMgMTcuNDQgMzYuNTMxIDE3LjQzOGwyNzEuMjE5LS4wNjJjMTQuMjEyLjAxIDI3LjY1Ny02LjM5NiAzNi41MzEtMTcuNDA2bDE2OS4wNjMtMjEwLjMxM2M4Ljg3My0xMS4wMjggMTIuMTk3LTI1LjQ2NCA5LjAzMS0zOS4yMTlsLTYwLjM3NS0yNjIuMjVjLTMuMTY1LTEzLjc0OC0xMi40Ny0yNS4zMTktMjUuMjgxLTMxLjQzN0wzODEuNjQzIDE0LjU5MmMtNy4wNS0zLjM2OC0xNC44NDEtNC45MjYtMjIuNjU2LTQuNTMxeiIvPiYjeGE7CTxwYXRoIGNsYXNzPSJzdDEgc3QyIiBkPSJNMzYxLjQwOCA5OS4zMDhjLTguMDc3LjAwMS0xNC42MjYgNy4yNzYtMTQuNjI1IDE2LjI1IDAgLjEzOC4wMjguMjY5LjAzMS40MDYtLjAxMiAxLjIxOS0uMDcxIDIuNjg4LS4wMzEgMy43NS4xOTMgNS4xNzYgMS4zMjEgOS4xMzcgMiAxMy45MDYgMS4yMyAxMC4yMDcgMi4yNjEgMTguNjY3IDEuNjI1IDI2LjUzMS0uNjE5IDIuOTY1LTIuODAzIDUuNjc3LTQuNzUgNy41NjNsLS4zNDQgNi4xODhjLTguNzc3LjcyNy0xNy42MTIgMi4wNTktMjYuNDM3IDQuMDYzLTM3Ljk3NSA4LjYyMi03MC42NyAyOC4xODMtOTUuNTYyIDU0LjU5NC0xLjYxNS0xLjEwMi00LjQ0MS0zLjEyOS01LjI4MS0zLjc1LTIuNjExLjM1My01LjI1IDEuMTU4LTguNjg3LS44NDQtNi41NDUtNC40MDYtMTIuNTA2LTEwLjQ4Ny0xOS43MTktMTcuODEyLTMuMzA1LTMuNTA0LTUuNjk4LTYuODQxLTkuNjI1LTEwLjIxOS0uODkyLS43NjctMi4yNTMtMS44MDUtMy4yNS0yLjU5NC0zLjA3LTIuNDQ4LTYuNjkxLTMuNzI0LTEwLjE4Ny0zLjg0NC00LjQ5Ni0uMTU0LTguODI0IDEuNjA0LTExLjY1NiA1LjE1Ni01LjAzNSA2LjMxNS0zLjQyMyAxNS45NjggMy41OTQgMjEuNTYzLjA3MS4wNTcuMTQ3LjEwMS4yMTkuMTU2Ljk2NC43ODIgMi4xNDUgMS43ODMgMy4wMzEgMi40MzggNC4xNjcgMy4wNzcgNy45NzMgNC42NTEgMTIuMTI1IDcuMDk0IDguNzQ3IDUuNDAyIDE1Ljk5OCA5Ljg4MSAyMS43NSAxNS4yODEgMi4yNDYgMi4zOTQgMi42MzkgNi42MTMgMi45MzggOC40MzhsNC42ODggNC4xODhjLTI1LjA5MyAzNy43NjQtMzYuNzA3IDg0LjQwOS0yOS44NDQgMTMxLjkzOGwtNi4xMjUgMS43ODFjLTEuNjE0IDIuMDg1LTMuODk1IDUuMzY1LTYuMjgxIDYuMzQ0LTcuNTI1IDIuMzctMTUuOTk0IDMuMjQxLTI2LjIxOSA0LjMxMy00LjguMzk5LTguOTQyLjE2MS0xNC4wMzEgMS4xMjUtMS4xMi4yMTItMi42ODEuNjE5LTMuOTA2LjkwNi0uMDQzLjAwOS0uMDgyLjAyMi0uMTI1LjAzMS0uMDY3LjAxNS0uMTU1LjA0OC0uMjE5LjA2My04LjYyIDIuMDgzLTE0LjE1OCAxMC4wMDYtMTIuMzc1IDE3LjgxM3MxMC4yMDMgMTIuNTU3IDE4Ljg3NSAxMC42ODhjLjA2My0uMDE0LjE1NC0uMDE3LjIxOS0uMDMxLjA5OC0uMDIyLjE4NC0uMDcuMjgxLS4wOTQgMS4yMDktLjI2NSAyLjcyNC0uNTYxIDMuNzgxLS44NDQgNS4wMDMtMS4zNCA4LjYyNy0zLjMwOCAxMy4xMjUtNS4wMzEgOS42NzctMy40NzEgMTcuNjkyLTYuMzcgMjUuNS03LjUgMy4yNjEtLjI1NSA2LjY5NyAyLjAxMiA4LjQwNiAyLjk2OWw2LjM3NS0xLjA5NGMxNC42NyA0NS40ODMgNDUuNDE0IDgyLjI0NSA4NC4zNDQgMTA1LjMxMmwtMi42NTYgNi4zNzVjLjk1NyAyLjQ3NSAyLjAxMyA1LjgyNSAxLjMgOC4yNjktMi44MzkgNy4zNjEtNy43MDEgMTUuMTMxLTEzLjIzOCAyMy43OTMtMi42ODEgNC4wMDItNS40MjUgNy4xMDgtNy44NDQgMTEuNjg4LS41NzkgMS4wOTYtMS4zMTYgMi43NzktMS44NzUgMy45MzgtMy43NTkgOC4wNDItMS4wMDIgMTcuMzA1IDYuMjE5IDIwLjc4MSA3LjI2NiAzLjQ5OCAxNi4yODQtLjE5MSAyMC4xODctOC4yNS4wMDYtLjAxMS4wMjYtLjAyLjAzMS0uMDMxcy0uMDA0LS4wMjMgMC0uMDMxYy41NTYtMS4xNDMgMS4zNDQtMi42NDQgMS44MTMtMy43MTkgMi4wNzItNC43NDcgMi43NjItOC44MTUgNC4yMTktMTMuNDA2IDMuODctOS43MiA1Ljk5Ni0xOS45MTkgMTEuMzIzLTI2LjI3NCAxLjQ1OS0xLjc0IDMuODM3LTIuNDA5IDYuMzAyLTMuMDdsMy4zMTMtNmMzMy45MzggMTMuMDI3IDcxLjkyNyAxNi41MjIgMTA5Ljg3NSA3LjkwNmExODkuNzcgMTg5Ljc3IDAgMCAwIDI1LjA5NC03LjU2MmwzLjEyNSA1LjYyNWMyLjUwNi44MTUgNS4yNCAxLjIzNiA3LjQ2OSA0LjUzMSAzLjk4NSA2LjgwOSA2LjcxMSAxNC44NjQgMTAuMDMxIDI0LjU5NCAxLjQ1NyA0LjU5MSAyLjE3OCA4LjY1OSA0LjI1IDEzLjQwNi40NzIgMS4wODIgMS4yNTYgMi42MDUgMS44MTMgMy43NSAzLjg5NSA4LjA4NSAxMi45NDIgMTEuNzg3IDIwLjIxOSA4LjI4MSA3LjIxOS0zLjQ3OCA5Ljk4LTEyLjc0IDYuMjE5LTIwLjc4MWwtMS45MDYtMy45MzdjLTIuNDE5LTQuNTgtNS4xNjMtNy42NTQtNy44NDQtMTEuNjU2LTUuNTM3LTguNjYyLTEwLjEzLTE1Ljg1OC0xMi45NjktMjMuMjE5LTEuMTg3LTMuNzk3LjItNi4xNTggMS4xMjUtOC42MjUtLjU1NC0uNjM1LTEuNzM5LTQuMjItMi40MzctNS45MDYgNDAuNDU3LTIzLjg4OCA3MC4yOTktNjIuMDIxIDg0LjMxMy0xMDYuMDYyIDEuODkyLjI5NyA1LjE4Mi44NzkgNi4yNSAxLjA5NCAyLjItMS40NTEgNC4yMjItMy4zNDQgOC4xODgtMy4wMzEgNy44MDggMS4xMjkgMTUuODIzIDQuMDMgMjUuNSA3LjUgNC40OTggMS43MjMgOC4xMjIgMy43MjMgMTMuMTI1IDUuMDYzIDEuMDU3LjI4MyAyLjU3Mi41NDcgMy43ODEuODEzLjA5Ny4wMjQuMTgzLjA3MS4yODEuMDk0LjA2NS4wMTUuMTU2LjAxNy4yMTkuMDMxIDguNjcyIDEuODY3IDE3LjA5NC0yLjg3OSAxOC44NzUtMTAuNjg3cy0zLjc1NC0xNS43MzItMTIuMzc1LTE3LjgxMmMtMS4yNTQtLjI4NS0zLjAzMi0uNzY5LTQuMjUtMS01LjA4OS0uOTY0LTkuMjMxLS43MjYtMTQuMDMxLTEuMTI1LTEwLjIyNS0xLjA3MS0xOC42OTMtMS45NDMtMjYuMjE5LTQuMzEyLTMuMDY4LTEuMTktNS4yNTEtNC44NDEtNi4zMTMtNi4zNDRsLTUuOTA2LTEuNzE5YzMuMDYyLTIyLjE1NCAyLjIzNy00NS4yMTEtMy4wNjItNjguMjgxLTUuMzQ4LTIzLjI4NS0xNC44LTQ0LjU4MS0yNy40MDYtNjMuMzQ0bDUuMTg4LTQuNjU2Yy4yMzctMi42MjQuMDMzLTUuMzc2IDIuNzUtOC4yODEgNS43NTEtNS40MDEgMTMuMDAzLTkuODc5IDIxLjc1LTE1LjI4MSA0LjE1Mi0yLjQ0MyA3Ljk5LTQuMDE3IDEyLjE1Ni03LjA5NC45NDItLjY5NiAyLjIyOS0xLjc5OCAzLjIxOS0yLjU5NCA3LjAxNS01LjU5NiA4LjYzMS0xNS4yNDggMy41OTQtMjEuNTYycy0xNC43OTctNi45MDktMjEuODEyLTEuMzEyYy0uOTk5Ljc5MS0yLjM1NCAxLjgyMy0zLjI1IDIuNTk0LTMuOTI3IDMuMzc4LTYuMzUxIDYuNzE0LTkuNjU2IDEwLjIxOS03LjIxMiA3LjMyNi0xMy4xNzQgMTMuNDM4LTE5LjcxOSAxNy44NDQtMi44MzYgMS42NTEtNi45OSAxLjA4LTguODc1Ljk2OWwtNS41NjIgMy45NjljLTMxLjcxOS0zMy4yNjEtNzQuOTA1LTU0LjUyNS0xMjEuNDA2LTU4LjY1NmwtLjM0NC02LjUzMWMtMS45MDQtMS44MjItNC4yMDMtMy4zNzctNC43ODEtNy4zMTItLjYzNi03Ljg2NC40MjYtMTYuMzI1IDEuNjU2LTI2LjUzMS42NzktNC43NjkgMS44MDctOC43MyAyLTEzLjkwNi4wNDQtMS4xNzctLjAyNi0yLjg4NC0uMDMxLTQuMTU2LS4wMDEtOC45NzQtNi41NDgtMTYuMjUxLTE0LjYyNS0xNi4yNXptLTE4LjMxMiAxMTMuNDM4bC00LjM0NCA3Ni43MTktLjMxMi4xNTZjLS4yOTEgNi44NjMtNS45NCAxMi4zNDQtMTIuODc1IDEyLjM0NGExMi44MiAxMi44MiAwIDAgMS03LjU5NC0yLjQ2OWwtLjEyNS4wNjMtNjIuOTA2LTQ0LjU5NGMxOS4zMzQtMTkuMDExIDQ0LjA2My0zMy4wNiA3Mi41NjItMzkuNTMxIDUuMjA2LTEuMTgyIDEwLjQxLTIuMDU5IDE1LjU5NC0yLjY4N3ptMzYuNjU2IDBjMzMuMjczIDQuMDkyIDY0LjA0NSAxOS4xNTkgODcuNjI1IDQyLjI1bC02Mi41IDQ0LjMxMy0uMjE5LS4wOTRhMTIuOTEgMTIuOTEgMCAwIDEtMTcuNjg3LTIuMzc1Yy0xLjc3MS0yLjIyMS0yLjcwMS00LjgzMi0yLjgxMi03LjQ2OWwtLjA2Mi0uMDMxek0yMzIuMTI2IDI4My42Mmw1Ny40MzcgNTEuMzc1LS4wNjIuMzEzYTEyLjg4IDEyLjg4IDAgMCAxIDEuNjI1IDE3Ljc1IDEyLjg5IDEyLjg5IDAgMCAxLTYuNjg3IDQuNDA2bC0uMDYyLjI1LTczLjYyNSAyMS4yNWMtMy43NDctMzQuMjY1IDQuMzI5LTY3LjU3NCAyMS4zNzUtOTUuMzQ0em0yNTguMTU2LjAzMWM4LjUzNCAxMy44MzMgMTQuOTk3IDI5LjI4MiAxOC44NDQgNDYuMDMxIDMuODAxIDE2LjU0OCA0Ljc1NSAzMy4wNjcgMy4xODggNDkuMDMxbC03NC0yMS4zMTItLjA2Mi0uMzEyYy02LjYyNy0xLjgxMS0xMC42OTktOC41NTItOS4xNTYtMTUuMzEyLjYzMi0yLjc3IDIuMTAyLTUuMTEzIDQuMDk0LTYuODQ0bC0uMDMxLS4xNTYgNTcuMTI1LTUxLjEyNXptLTE0MC42NTYgNTUuMzEzaDIzLjUzMWwxNC42MjUgMTguMjgxLTUuMjUgMjIuODEzLTIxLjEyNSAxMC4xNTYtMjEuMTg3LTEwLjE4Ny01LjI1LTIyLjgxMnptNzUuNDM4IDYyLjU2M2ExMi44MyAxMi44MyAwIDAgMSAyLjk2OS4yMTlsLjEyNS0uMTU2IDc2LjE1NiAxMi44NzVjLTExLjE0NiAzMS4zMTMtMzIuNDczIDU4LjQ0LTYwLjk2OSA3Ni41OTRsLTI5LjU2Mi03MS40MDYuMDk0LS4xMjVjLTIuNzE2LTYuMzEuMDAyLTEzLjcxIDYuMjUtMTYuNzE5IDEuNi0uNzcgMy4yNzEtMS4xOTcgNC45MzgtMS4yODF6bS0xMjcuOTA2LjMxM2ExMi45IDEyLjkgMCAwIDEgMTIuMzc1IDEwLjAzMSAxMi43NyAxMi43NyAwIDAgMS0uNzE5IDcuOTM4bC4yMTkuMjgxLTI5LjI1IDcwLjY4OGMtMjcuMzQ3LTE3LjU0OS00OS4xMjktNDMuODI0LTYwLjc4MS03Ni4wNjJsNzUuNS0xMi44MTIuMTI1LjE1NmMuODQ1LS4xNTUgMS43MDEtLjIzIDIuNTMxLS4yMTl6bTYzLjc4MSAzMC45NjljMi4wMjQtLjA3NCA0LjA3OS4zNDEgNi4wMzEgMS4yODEgMi41NiAxLjIzMyA0LjUzNyAzLjE3MyA1Ljc4MSA1LjVoLjI4MWwzNy4yMTkgNjcuMjVjLTQuODMgMS42MTktOS43OTYgMy4wMDMtMTQuODc1IDQuMTU2LTI4LjQ2NSA2LjQ2My01Ni44MzkgNC41MDUtODIuNTMxLTQuMjVsMzcuMTI1LTY3LjEyNWguMDYzYTEyLjkxIDEyLjkxIDAgMCAxIDEwLjkwNi02LjgxMnoiIHN0cm9rZT0ibm9uZSIgc3Ryb2tlLXdpZHRoPSIuMjUiLz4mI3hhOzwvc3ZnPg==;fontColor=default;" vertex="1" parent="1">
          <mxGeometry x="123" y="492" width="40" height="38" as="geometry" />
        </mxCell>
        <mxCell id="wZPKLo5PwsMdjZlRSlF2-19" value="&lt;ul style=&quot;width: 348.398px; list-style: none; margin-block: 0px; padding-inline-start: 0px; padding: 2px 0px; font-family: &amp;quot;Amazon Ember&amp;quot;, &amp;quot;Helvetica Neue&amp;quot;, Roboto, Arial, sans-serif; font-size: 14px; text-align: left; background-color: rgb(35, 47, 62); margin: 0px !important; border-left: none !important;&quot; class=&quot;_nav-dropdown__list_8hy5c_298&quot; id=&quot;menu--regions&quot; role=&quot;menu&quot;&gt;&lt;li style=&quot;margin: 15px 0px; padding: 0px 20px; border-left: none !important;&quot; class=&quot;_nav-dropdown__dropdown-list-item_8hy5c_353&quot; role=&quot;menuitem&quot;&gt;&lt;a style=&quot;background-color: transparent; display: flex; align-items: center; font-size: 15px; line-height: 24px; min-height: auto; text-decoration-line: none; border: none; height: auto; font-weight: 700; color: rgb(236, 114, 17) !important;&quot; class=&quot;_nav-dropdown__dropdown-item_8hy5c_330 _awsc-region-menu-item--selected_1fdop_1117&quot; data-region-opt-in=&quot;false&quot; data-region-id=&quot;us-east-2&quot; target=&quot;_top&quot; href=&quot;https://us-east-2.console.aws.amazon.com/ec2/home?region=us-east-2#Instances:v=3;$case=tags:true%5C,client:false;$regex=tags:false%5C,client:false&quot;&gt;EE.UU. Este&amp;nbsp;(Ohio) us-east-2&lt;/a&gt;&lt;a style=&quot;align-items: center; line-height: 24px; min-height: auto; text-decoration-line: none; border: none; height: auto; outline: none; display: inline !important; color: rgb(236, 114, 17) !important;&quot; class=&quot;_nav-dropdown__dropdown-item_8hy5c_330 _awsc-region-menu-item--selected_1fdop_1117&quot; data-region-opt-in=&quot;false&quot; data-region-id=&quot;us-east-2&quot; target=&quot;_top&quot; href=&quot;https://us-east-2.console.aws.amazon.com/ec2/home?region=us-east-2#Instances:v=3;$case=tags:true%5C,client:false;$regex=tags:false%5C,client:false&quot;&gt;&lt;span style=&quot;pointer-events: none; display: inline !important; justify-content: space-between; width: 308.398px;&quot; class=&quot;_awsc-region-menu-item-region_1fdop_1099&quot;&gt;&lt;/span&gt;&lt;/a&gt;&lt;span style=&quot;pointer-events: none; display: flex; justify-content: space-between; width: 308.398px;&quot; class=&quot;_awsc-region-menu-item-region_1fdop_1099&quot;&gt;&lt;/span&gt;&lt;/li&gt;&lt;/ul&gt;" style="text;html=1;align=center;verticalAlign=middle;resizable=0;points=[];autosize=1;strokeColor=none;fillColor=none;" vertex="1" parent="1">
          <mxGeometry x="-305" y="268" width="370" height="70" as="geometry" />
        </mxCell>
        <mxCell id="wZPKLo5PwsMdjZlRSlF2-20" style="edgeStyle=orthogonalEdgeStyle;rounded=0;orthogonalLoop=1;jettySize=auto;html=1;entryX=0;entryY=0.916;entryDx=0;entryDy=0;entryPerimeter=0;" edge="1" parent="1" source="wZPKLo5PwsMdjZlRSlF2-6" target="Dv5H7iyxTRO2InqMJQss-43">
          <mxGeometry relative="1" as="geometry" />
        </mxCell>
        <mxCell id="wZPKLo5PwsMdjZlRSlF2-32" style="edgeStyle=orthogonalEdgeStyle;rounded=0;orthogonalLoop=1;jettySize=auto;html=1;entryX=0;entryY=0.5;entryDx=0;entryDy=0;" edge="1" parent="1" source="wZPKLo5PwsMdjZlRSlF2-24" target="wZPKLo5PwsMdjZlRSlF2-29">
          <mxGeometry relative="1" as="geometry">
            <Array as="points">
              <mxPoint x="-260" y="599" />
              <mxPoint x="-260" y="424" />
            </Array>
          </mxGeometry>
        </mxCell>
        <mxCell id="wZPKLo5PwsMdjZlRSlF2-24" value="" style="verticalLabelPosition=bottom;sketch=0;aspect=fixed;html=1;verticalAlign=top;strokeColor=none;align=center;outlineConnect=0;shape=mxgraph.citrix.laptop_2;" vertex="1" parent="1">
          <mxGeometry x="-360" y="572.5" width="70.4" height="52.5" as="geometry" />
        </mxCell>
        <mxCell id="wZPKLo5PwsMdjZlRSlF2-26" style="edgeStyle=orthogonalEdgeStyle;rounded=0;orthogonalLoop=1;jettySize=auto;html=1;" edge="1" parent="1" source="wZPKLo5PwsMdjZlRSlF2-25">
          <mxGeometry relative="1" as="geometry">
            <mxPoint x="-317.5" y="630" as="targetPoint" />
          </mxGeometry>
        </mxCell>
        <mxCell id="wZPKLo5PwsMdjZlRSlF2-25" value="" style="html=1;verticalLabelPosition=bottom;align=center;labelBackgroundColor=#ffffff;verticalAlign=top;strokeWidth=2;strokeColor=#0080F0;shadow=0;dashed=0;shape=mxgraph.ios7.icons.user;" vertex="1" parent="1">
          <mxGeometry x="-340" y="688" width="45" height="50" as="geometry" />
        </mxCell>
        <mxCell id="wZPKLo5PwsMdjZlRSlF2-29" value="" style="shape=image;verticalLabelPosition=bottom;labelBackgroundColor=default;verticalAlign=top;aspect=fixed;imageAspect=0;image=https://ionica.ca/wp-content/uploads/2023/03/lens-logo.png;" vertex="1" parent="1">
          <mxGeometry x="-239.17000000000002" y="392.37" width="64.17" height="64.26" as="geometry" />
        </mxCell>
        <mxCell id="wZPKLo5PwsMdjZlRSlF2-30" value="&lt;b&gt;OpenLens&lt;/b&gt;" style="text;html=1;align=center;verticalAlign=middle;resizable=0;points=[];autosize=1;strokeColor=none;fillColor=none;" vertex="1" parent="1">
          <mxGeometry x="-247.50000000000003" y="450" width="80" height="30" as="geometry" />
        </mxCell>
        <mxCell id="wZPKLo5PwsMdjZlRSlF2-31" style="edgeStyle=orthogonalEdgeStyle;rounded=0;orthogonalLoop=1;jettySize=auto;html=1;entryX=0;entryY=0.5;entryDx=0;entryDy=0;entryPerimeter=0;" edge="1" parent="1" source="wZPKLo5PwsMdjZlRSlF2-29" target="Dv5H7iyxTRO2InqMJQss-48">
          <mxGeometry relative="1" as="geometry" />
        </mxCell>
      </root>
    </mxGraphModel>
  </diagram>
</mxfile>
